<svg width="896" height="462" xmlns="http://www.w3.org/2000/svg" xmlns:xlink="http://www.w3.org/1999/xlink" xml:space="preserve" overflow="hidden"><defs><clipPath id="clip0"><rect x="321" y="123" width="894" height="460"/></clipPath><clipPath id="clip1"><rect x="321" y="123" width="894" height="460"/></clipPath><clipPath id="clip2"><rect x="321" y="123" width="894" height="460"/></clipPath><linearGradient x1="603.166" y1="90.229" x2="556.615" y2="136.78" gradientUnits="userSpaceOnUse" spreadMethod="pad" id="fill3"><stop offset="0" stop-color="#E44857" stop-opacity="1"/><stop offset="0.47" stop-color="#C711E1" stop-opacity="1"/><stop offset="1" stop-color="#7F52FF" stop-opacity="1"/></linearGradient></defs><g transform="translate(-320 -122)"><g><g clip-path="url(#clip0)"><g clip-path="url(#clip1)"><g clip-path="url(#clip2)"><path d="M0 229.628 893.204 229.628 893.204 230.372 0 230.372Z" fill="#DFDFDF" fill-rule="nonzero" fill-opacity="1" transform="matrix(1.00089 0 0 1 321 123)"/><path d="M446.23 230 446.974 230 446.974 460 446.23 460Z" fill="#DFDFDF" fill-rule="nonzero" fill-opacity="1" transform="matrix(1.00089 0 0 1 321 123)"/><path d="M603.047 138.849 556.496 138.849 556.496 92.2977 603.047 92.2977 579.779 115.566 603.047 138.849Z" fill="url(#fill3)" fill-rule="nonzero" transform="matrix(1.00089 0 0 1 321 123)"/><path d="M659.393 92.1489 650.044 92.1489 629.902 113.75 629.902 92.2977 622.459 92.2977 622.459 138.849 629.902 138.849 629.902 116.37 650.193 138.849 659.676 138.849 638.224 114.777 659.393 92.1489Z" fill="#000000" fill-rule="nonzero" fill-opacity="1" transform="matrix(1.00089 0 0 1 321 123)"/><path d="M684.626 106.306C681.896 104.779 678.822 103.974 675.694 103.969 672.523 103.89 669.392 104.7 666.658 106.306 664.055 107.821 661.891 109.986 660.375 112.588 658.903 115.429 658.151 118.589 658.187 121.788 658.136 124.998 658.899 128.168 660.405 131.003 661.827 133.676 664.015 135.863 666.687 137.285 669.45 138.824 672.562 139.629 675.724 139.623 678.906 139.693 682.047 138.873 684.79 137.256 687.371 135.786 689.486 133.619 690.893 131.003 692.374 128.171 693.126 125.014 693.082 121.818 693.08 118.595 692.276 115.424 690.744 112.588 689.346 109.953 687.224 107.774 684.626 106.306ZM684.045 127.743C683.289 129.371 682.073 130.743 680.547 131.688 679.042 132.705 677.257 133.225 675.441 133.177 673.581 133.205 671.755 132.687 670.186 131.688 668.728 130.663 667.531 129.312 666.687 127.743 665.84 125.918 665.443 123.917 665.526 121.907 665.474 119.884 665.925 117.879 666.836 116.072 667.597 114.447 668.812 113.076 670.335 112.127 671.887 111.094 673.726 110.574 675.59 110.638 677.406 110.585 679.192 111.106 680.696 112.127 682.162 113.161 683.361 114.528 684.194 116.117 685.814 119.85 685.759 124.097 684.045 127.788Z" fill="#000000" fill-rule="nonzero" fill-opacity="1" transform="matrix(1.00089 0 0 1 321 123)"/><path d="M708.132 96.2427 700.971 96.2427 700.971 102.078C701.071 102.833 700.805 103.59 700.257 104.118 699.699 104.618 698.966 104.88 698.217 104.847L694.704 104.847 694.704 110.981 700.838 110.981 700.838 129.366C700.824 131.135 701.222 132.883 701.999 134.472 702.721 135.923 703.897 137.099 705.348 137.821 706.907 138.681 708.677 139.083 710.454 138.983L716.052 138.983 716.052 132.566 711.958 132.566C710.947 132.629 709.971 132.195 709.338 131.405 708.658 130.564 708.293 129.51 708.311 128.428L708.311 110.981 716.186 110.981 716.186 104.847 708.311 104.847 708.311 96.2427Z" fill="#000000" fill-rule="nonzero" fill-opacity="1" transform="matrix(1.00089 0 0 1 321 123)"/><path d="M721.709 90.4071 729.003 90.4071 729.003 138.849 721.709 138.849Z" fill="#000000" fill-rule="nonzero" fill-opacity="1" transform="matrix(1.00089 0 0 1 321 123)"/><path d="M737.31 90.556 744.753 90.556 744.753 98.1482 737.31 98.1482Z" fill="#000000" fill-rule="nonzero" fill-opacity="1" transform="matrix(1.00089 0 0 1 321 123)"/><path d="M737.31 104.847 744.604 104.847 744.604 138.983 737.31 138.983Z" fill="#000000" fill-rule="nonzero" fill-opacity="1" transform="matrix(1.00089 0 0 1 321 123)"/><path d="M781.836 110.4C780.904 108.414 779.374 106.769 777.46 105.696 775.474 104.507 773.194 103.898 770.88 103.939 768.419 103.941 766.004 104.599 763.883 105.845 762.287 106.908 760.941 108.305 759.938 109.939L759.938 104.713 752.941 104.713 752.941 138.834 760.236 138.834 760.236 119.719C760.176 118.005 760.523 116.301 761.248 114.747 761.956 113.408 762.978 112.259 764.225 111.397 765.589 110.632 767.128 110.232 768.691 110.236 770.08 110.166 771.457 110.525 772.636 111.263 773.719 111.919 774.579 112.883 775.107 114.032 775.725 115.354 776.026 116.802 775.986 118.26L775.986 138.685 783.28 138.685 783.28 117.382C783.438 114.967 782.939 112.554 781.836 110.4Z" fill="#000000" fill-rule="nonzero" fill-opacity="1" transform="matrix(1.00089 0 0 1 321 123)"/><path d="M87.8317 128.294 93.9799 122.473C95.2158 124.327 97.2489 125.495 99.4731 125.629 101.795 125.629 103.463 123.962 103.463 120.806L103.463 98.8628 113.109 98.8628 113.109 120.97C113.349 124.583 112.083 128.134 109.611 130.78 107.066 133.2 103.636 134.466 100.128 134.278 95.3013 134.428 90.7074 132.203 87.8317 128.324ZM117.188 98.6841 145.28 98.6841 145.28 106.842 126.82 106.842 126.82 112.157 143.449 112.157 143.449 119.808 126.82 119.808 126.82 125.302 145.443 125.302 145.443 133.445 117.159 133.445 117.159 98.699ZM158.871 107.17 148.45 107.17 148.45 98.699 178.879 98.699 178.879 107.184 168.562 107.184 168.562 133.445 158.916 133.445 158.916 107.184Z" fill="#010101" fill-rule="nonzero" fill-opacity="1" transform="matrix(1.00089 0 0 1 321 123)"/><path d="M257.094 98.5204 266.472 98.5204 281.27 133.608 270.939 133.608 268.438 127.282 255.039 127.282 252.553 133.608 242.579 133.608ZM265.564 119.808 261.739 109.998 257.749 119.808ZM292.361 98.5204 282.699 98.5204 282.699 133.608 292.346 133.608ZM296.008 98.5204 304.94 98.5204 317.579 117.144 317.579 98.5204 327.061 98.5204 327.061 133.445 318.576 133.445 305.639 114.479 305.639 133.608 295.993 133.608ZM328.759 128.294 334.073 121.818C337.28 124.419 341.259 125.881 345.387 125.972 348.037 125.972 349.377 125.138 349.377 123.649L349.377 123.485C349.377 121.997 348.216 121.312 343.422 120.151 335.979 118.483 330.277 116.325 330.277 109.343L330.277 109.179C330.277 102.689 335.428 98.044 343.675 98.044 348.836 97.8658 353.896 99.5101 357.966 102.689L353.143 109.507C350.328 107.34 346.898 106.121 343.348 106.023 341.01 106.023 339.849 107.021 339.849 108.182L339.849 108.346C339.849 110.013 341.01 110.683 345.804 111.68 353.783 113.333 358.77 115.997 358.77 122.488L358.77 122.652C358.77 129.797 353.113 133.951 344.643 133.951 338.825 134.118 333.156 132.093 328.759 128.279Z" fill="#010101" fill-rule="nonzero" fill-opacity="1" transform="matrix(1.00089 0 0 1 321 123)"/><path d="M203.948 115.476C207.194 114.263 209.327 111.141 209.278 107.676L209.278 107.497C209.301 105.41 208.53 103.393 207.119 101.855 205.124 99.8602 201.953 98.6841 197.636 98.6841L181.261 98.6841 181.261 133.772 197.726 133.772C206.047 133.772 210.871 130.11 210.871 124.126L210.871 123.962C210.871 119.302 208.042 116.816 203.948 115.476ZM190.55 106.336 195.373 106.336C198.202 106.336 199.691 107.333 199.691 109.313 199.691 111.487 198.023 112.484 195.225 112.484L190.55 112.484ZM200.971 122.637C200.971 124.632 199.304 125.793 196.311 125.793L190.357 125.793 190.357 119.302 196.311 119.302C199.631 119.302 201.135 120.478 200.971 122.473Z" fill="#010101" fill-rule="nonzero" fill-opacity="1" transform="matrix(1.00089 0 0 1 321 123)"/><path d="M236.699 121.476C241.111 119.729 243.965 115.413 243.845 110.668L243.845 110.504C243.962 107.466 242.82 104.515 240.689 102.346 238.366 100.024 234.734 98.6841 229.375 98.6841L214.027 98.6841 214.027 133.608 223.658 133.608 223.658 123.188 226.829 123.188 233.811 133.608 244.946 133.608ZM234.198 111.159C234.198 113.66 232.203 115.313 229.047 115.313L223.733 115.313 223.733 106.842 229.047 106.842C232.203 106.842 234.198 108.167 234.198 110.995Z" fill="#010101" fill-rule="nonzero" fill-opacity="1" transform="matrix(1.00089 0 0 1 321 123)"/><path d="M774.765 259.446C787.098 259.446 797.095 269.443 797.095 281.776L797.095 408.209C797.095 420.542 787.098 430.539 774.765 430.539L565.041 430.539C552.708 430.539 542.711 420.542 542.711 408.209L542.711 281.776C542.711 269.443 552.708 259.446 565.041 259.446Z" fill="#F4F4F4" fill-rule="nonzero" fill-opacity="1" transform="matrix(1.00089 0 0 1 321 123)"/><path d="M565.443 383.11C564.179 382.352 563.149 381.26 562.465 379.954 561.032 377.149 561.032 373.827 562.465 371.022 564.551 367.16 569.307 365.626 573.258 367.539 574.326 368.057 575.262 368.81 575.997 369.742 576.696 370.598 577.148 371.626 577.307 372.719L575.298 372.719C575.122 371.966 574.759 371.269 574.241 370.694 573.684 370.062 572.999 369.554 572.231 369.206 571.43 368.829 570.555 368.636 569.671 368.64 568.545 368.624 567.439 368.935 566.485 369.533 565.534 370.139 564.765 370.994 564.267 372.005 563.196 374.272 563.196 376.898 564.267 379.165 564.765 380.176 565.534 381.03 566.485 381.636 568.225 382.698 570.381 382.821 572.231 381.964 572.996 381.612 573.681 381.105 574.241 380.475 574.756 379.893 575.119 379.192 575.298 378.436L577.307 378.436C577.156 379.53 576.702 380.561 575.997 381.413 575.266 382.349 574.329 383.103 573.258 383.616 570.76 384.815 567.831 384.692 565.443 383.289Z" fill="#000000" fill-rule="nonzero" fill-opacity="1" transform="matrix(1.00089 0 0 1 321 123)"/><path d="M582.25 383.423C581.31 382.857 580.539 382.05 580.017 381.085 578.946 378.991 578.946 376.511 580.017 374.416 580.539 373.447 581.316 372.639 582.265 372.079 584.254 370.968 586.677 370.968 588.666 372.079 589.617 372.636 590.396 373.444 590.914 374.416 591.471 375.437 591.753 376.587 591.733 377.751 591.746 378.913 591.465 380.061 590.914 381.085 590.391 382.055 589.614 382.863 588.666 383.423 587.689 383.985 586.577 384.274 585.45 384.256 584.328 384.277 583.22 383.988 582.25 383.423ZM587.639 381.934C588.283 381.538 588.8 380.963 589.128 380.282 589.861 378.715 589.861 376.905 589.128 375.339 588.453 373.929 587.012 373.05 585.45 373.091 584.687 373.079 583.934 373.28 583.277 373.672 582.638 374.083 582.125 374.659 581.788 375.339 581.072 376.908 581.072 378.712 581.788 380.282 582.12 380.96 582.637 381.533 583.277 381.934 584.617 382.729 586.284 382.729 587.624 381.934Z" fill="#000000" fill-rule="nonzero" fill-opacity="1" transform="matrix(1.00089 0 0 1 321 123)"/><path d="M602.704 371.841C603.393 372.244 603.952 372.84 604.312 373.553 604.702 374.354 604.896 375.236 604.878 376.128L604.878 383.973 602.913 383.973 602.913 376.277C602.972 375.373 602.679 374.483 602.094 373.791 601.498 373.181 600.668 372.856 599.816 372.898 599.177 372.886 598.546 373.041 597.985 373.344 597.46 373.633 597.035 374.075 596.764 374.61 596.467 375.211 596.319 375.875 596.333 376.545L596.333 383.988 594.397 383.988 594.397 371.543 596.273 371.543 596.273 373.449C596.635 372.761 597.187 372.191 597.866 371.811 599.383 371.047 601.172 371.047 602.689 371.811Z" fill="#000000" fill-rule="nonzero" fill-opacity="1" transform="matrix(1.00089 0 0 1 321 123)"/><path d="M611.606 383.973C610.831 384.023 610.067 383.765 609.478 383.259 608.939 382.745 608.651 382.022 608.689 381.279L608.689 373.255 606.5 373.255 606.5 371.528 607.84 371.528C608.117 371.543 608.388 371.44 608.584 371.245 608.776 371.046 608.879 370.778 608.867 370.501L608.867 368.417 610.624 368.417 610.624 371.528 613.601 371.528 613.601 373.255 610.624 373.255 610.624 381.1C610.606 381.394 610.715 381.681 610.922 381.889 611.133 382.092 611.417 382.2 611.711 382.187L613.601 382.187 613.601 383.914Z" fill="#000000" fill-rule="nonzero" fill-opacity="1" transform="matrix(1.00089 0 0 1 321 123)"/><path d="M622.429 371.409 622.429 373.434 621.982 373.434C620.988 373.38 620.019 373.754 619.318 374.461 618.623 375.251 618.27 376.284 618.335 377.334L618.335 383.973 616.4 383.973 616.4 371.528 618.335 371.528 618.335 374.029C618.637 373.257 619.154 372.585 619.824 372.094 620.477 371.625 621.268 371.384 622.072 371.409Z" fill="#000000" fill-rule="nonzero" fill-opacity="1" transform="matrix(1.00089 0 0 1 321 123)"/><path d="M624.454 369.28 624.454 366.973 626.731 366.973 626.731 369.28ZM626.523 383.973 624.588 383.973 624.588 371.528 626.523 371.528Z" fill="#000000" fill-rule="nonzero" fill-opacity="1" transform="matrix(1.00089 0 0 1 321 123)"/><path d="M639.564 372.168C640.476 372.74 641.218 373.547 641.707 374.505 642.75 376.596 642.75 379.055 641.707 381.145 641.218 382.104 640.476 382.911 639.564 383.482 638.647 384.046 637.588 384.341 636.512 384.331 635.62 384.35 634.739 384.14 633.951 383.72 633.182 383.31 632.539 382.696 632.091 381.949L632.091 384.048 630.215 384.048 630.215 371.603 630.215 367.047 632.165 367.047 632.091 373.702C632.542 372.962 633.179 372.35 633.937 371.93 634.726 371.518 635.607 371.308 636.497 371.32 637.579 371.306 638.642 371.601 639.564 372.168ZM638.447 381.964C639.089 381.544 639.604 380.957 639.936 380.267 640.287 379.501 640.466 378.668 640.457 377.825 640.467 376.987 640.289 376.158 639.936 375.399 639.604 374.703 639.089 374.112 638.447 373.687 637.816 373.271 637.075 373.053 636.318 373.061 635.561 373.044 634.815 373.252 634.175 373.657 633.529 374.078 633.014 374.671 632.686 375.369 632.321 376.125 632.137 376.956 632.15 377.795 632.138 378.64 632.323 379.475 632.686 380.237 633.014 380.931 633.529 381.519 634.175 381.934 634.812 382.351 635.558 382.568 636.318 382.559 637.079 382.555 637.82 382.321 638.447 381.889Z" fill="#000000" fill-rule="nonzero" fill-opacity="1" transform="matrix(1.00089 0 0 1 321 123)"/><path d="M653.393 371.528 655.329 371.528 655.329 383.973 653.527 383.973 653.527 382.068C653.169 382.763 652.609 383.333 651.92 383.705 650.409 384.469 648.624 384.469 647.111 383.705 646.415 383.31 645.855 382.713 645.504 381.994 645.113 381.193 644.919 380.31 644.938 379.418L644.938 371.573 646.873 371.573 646.873 379.284C646.821 380.182 647.114 381.066 647.692 381.755 648.287 382.366 649.118 382.69 649.97 382.649 650.607 382.668 651.239 382.519 651.801 382.217 652.328 381.924 652.753 381.477 653.021 380.937 653.319 380.335 653.466 379.671 653.453 379.001Z" fill="#000000" fill-rule="nonzero" fill-opacity="1" transform="matrix(1.00089 0 0 1 321 123)"/><path d="M662.355 383.973C661.58 384.023 660.816 383.765 660.227 383.259 659.694 382.742 659.411 382.02 659.452 381.279L659.452 373.255 657.249 373.255 657.249 371.528 658.604 371.528C658.881 371.54 659.149 371.437 659.348 371.245 659.534 371.043 659.635 370.776 659.631 370.501L659.631 368.417 661.373 368.417 661.373 371.528 664.35 371.528 664.35 373.255 661.373 373.255 661.373 381.1C661.359 381.394 661.468 381.678 661.671 381.889 661.886 382.095 662.177 382.202 662.474 382.187L664.365 382.187 664.365 383.914Z" fill="#000000" fill-rule="nonzero" fill-opacity="1" transform="matrix(1.00089 0 0 1 321 123)"/><path d="M669.188 383.423C668.24 382.866 667.458 382.063 666.926 381.1 665.855 379.006 665.855 376.526 666.926 374.431 667.448 373.462 668.225 372.654 669.173 372.094 671.162 370.983 673.586 370.983 675.575 372.094 676.529 372.646 677.309 373.456 677.823 374.431 678.914 376.52 678.914 379.012 677.823 381.1 677.3 382.069 676.523 382.878 675.575 383.438 673.58 384.548 671.153 384.548 669.159 383.438ZM674.577 381.934C675.222 381.538 675.739 380.963 676.066 380.282 676.8 378.715 676.8 376.905 676.066 375.339 675.392 373.929 673.951 373.05 672.389 373.091 671.625 373.079 670.872 373.28 670.216 373.672 669.577 374.083 669.063 374.659 668.727 375.339 668.011 376.908 668.011 378.712 668.727 380.282 669.059 380.96 669.575 381.533 670.216 381.934 671.555 382.729 673.223 382.729 674.562 381.934Z" fill="#000000" fill-rule="nonzero" fill-opacity="1" transform="matrix(1.00089 0 0 1 321 123)"/><path d="M687.38 371.409 687.38 373.434 686.933 373.434C685.939 373.38 684.97 373.754 684.269 374.461 683.573 375.251 683.221 376.284 683.286 377.334L683.286 383.973 681.351 383.973 681.351 371.528 683.301 371.528 683.301 374.029C683.608 373.258 684.123 372.588 684.79 372.094 685.443 371.625 686.234 371.384 687.038 371.409Z" fill="#000000" fill-rule="nonzero" fill-opacity="1" transform="matrix(1.00089 0 0 1 321 123)"/><path d="M690.982 383.78C690.272 383.51 689.65 383.052 689.181 382.455 688.761 381.897 688.537 381.218 688.541 380.52L690.476 380.52C690.491 380.929 690.643 381.324 690.908 381.636 691.194 381.983 691.57 382.247 691.995 382.395 692.508 382.587 693.053 382.684 693.603 382.678 694.363 382.719 695.115 382.509 695.746 382.083 696.249 381.712 696.534 381.114 696.505 380.49 696.525 380.024 696.358 379.568 696.044 379.225 695.664 378.867 695.178 378.643 694.66 378.584L692.412 378.242C691.457 378.129 690.564 377.712 689.866 377.051 689.259 376.441 688.93 375.606 688.958 374.744 688.948 374.092 689.151 373.453 689.539 372.927 689.945 372.375 690.496 371.948 691.131 371.692 691.871 371.382 692.668 371.23 693.469 371.245 694.289 371.233 695.105 371.385 695.865 371.692 696.522 371.954 697.098 372.386 697.533 372.942 697.938 373.456 698.164 374.089 698.173 374.744L696.223 374.744C696.223 374.382 696.09 374.032 695.85 373.761 695.571 373.459 695.224 373.224 694.838 373.076 694.392 372.91 693.917 372.828 693.439 372.838 692.976 372.828 692.516 372.91 692.084 373.076 691.716 373.203 691.392 373.431 691.146 373.731 690.93 374.001 690.814 374.339 690.819 374.684 690.801 375.117 690.956 375.542 691.25 375.86 691.609 376.186 692.063 376.39 692.546 376.441L694.868 376.813C695.847 376.922 696.763 377.35 697.473 378.034 698.083 378.686 698.411 379.552 698.381 380.445 698.395 381.158 698.192 381.858 697.801 382.455 697.381 383.042 696.809 383.505 696.148 383.795 695.361 384.118 694.514 384.276 693.662 384.256 692.747 384.279 691.834 384.116 690.982 383.78Z" fill="#000000" fill-rule="nonzero" fill-opacity="1" transform="matrix(1.00089 0 0 1 321 123)"/><path d="M710.097 383.973C709.321 384.023 708.558 383.765 707.968 383.259 707.435 382.742 707.152 382.02 707.194 381.279L707.194 373.255 705.006 373.255 705.006 371.528 706.346 371.528C706.622 371.544 706.893 371.442 707.09 371.245 707.286 371.047 707.394 370.779 707.388 370.501L707.388 368.417 709.129 368.417 709.129 371.528 712.107 371.528 712.107 373.255 709.129 373.255 709.129 381.1C709.095 381.666 709.527 382.153 710.094 382.187 710.134 382.19 710.176 382.19 710.216 382.187L712.107 382.187 712.107 383.914Z" fill="#000000" fill-rule="nonzero" fill-opacity="1" transform="matrix(1.00089 0 0 1 321 123)"/><path d="M716.856 383.423C715.889 382.878 715.096 382.072 714.563 381.1 713.472 379.012 713.472 376.52 714.563 374.431 715.081 373.459 715.86 372.651 716.811 372.094 718.8 370.983 721.223 370.983 723.212 372.094 724.164 372.651 724.942 373.459 725.46 374.431 726.551 376.52 726.551 379.012 725.46 381.1 724.938 382.074 724.155 382.884 723.197 383.438 722.222 384.005 721.11 384.293 719.982 384.271 718.882 384.276 717.802 383.982 716.856 383.423ZM722.245 381.934C722.889 381.538 723.406 380.963 723.733 380.282 724.467 378.715 724.467 376.905 723.733 375.339 723.401 374.656 722.886 374.078 722.245 373.672 720.899 372.898 719.243 372.898 717.898 373.672 717.259 374.083 716.745 374.659 716.409 375.339 715.675 376.905 715.675 378.715 716.409 380.282 716.741 380.96 717.258 381.533 717.898 381.934 719.238 382.729 720.905 382.729 722.245 381.934Z" fill="#000000" fill-rule="nonzero" fill-opacity="1" transform="matrix(1.00089 0 0 1 321 123)"/><path d="M564.535 410.144 562.599 410.144 562.599 393.144 564.535 393.144 564.535 401.108 572.499 393.144 575.149 393.144 566.902 401.361 575.283 410.144 572.573 410.144 564.535 401.748Z" fill="#000000" fill-rule="nonzero" fill-opacity="1" transform="matrix(1.00089 0 0 1 321 123)"/><path d="M578.349 409.594C577.406 409.04 576.633 408.236 576.117 407.271 575.025 405.177 575.025 402.682 576.117 400.587 576.638 399.621 577.415 398.817 578.364 398.265 581.322 396.498 585.151 397.464 586.918 400.422 586.951 400.475 586.982 400.532 587.014 400.587 587.56 401.619 587.835 402.771 587.817 403.937 587.838 405.101 587.555 406.25 586.999 407.271 586.478 408.237 585.701 409.041 584.751 409.594 583.777 410.165 582.665 410.458 581.535 410.442 580.416 410.458 579.313 410.165 578.349 409.594ZM583.738 408.105C584.377 407.694 584.891 407.118 585.227 406.438 585.939 404.871 585.939 403.076 585.227 401.51 584.173 399.463 581.66 398.658 579.613 399.71 579.533 399.752 579.454 399.797 579.377 399.843 578.729 400.242 578.211 400.821 577.888 401.51 577.154 403.07 577.154 404.877 577.888 406.438 578.562 407.847 580.003 408.727 581.565 408.685 582.333 408.684 583.086 408.467 583.738 408.06Z" fill="#000000" fill-rule="nonzero" fill-opacity="1" transform="matrix(1.00089 0 0 1 321 123)"/><path d="M593.847 410.144C593.071 410.193 592.307 409.937 591.718 409.43 591.177 408.918 590.89 408.194 590.929 407.45L590.929 399.441 588.755 399.441 588.755 397.714 590.11 397.714C590.388 397.72 590.656 397.613 590.854 397.416 591.045 397.223 591.148 396.959 591.137 396.687L591.137 394.603 592.879 394.603 592.879 397.714 595.856 397.714 595.856 399.441 592.879 399.441 592.879 407.331C592.864 407.628 592.971 407.919 593.177 408.135 593.397 408.33 593.686 408.431 593.981 408.417L595.871 408.417 595.871 410.144Z" fill="#000000" fill-rule="nonzero" fill-opacity="1" transform="matrix(1.00089 0 0 1 321 123)"/><path d="M600.575 410.144 598.64 410.144 598.64 393.144 600.575 393.144Z" fill="#000000" fill-rule="nonzero" fill-opacity="1" transform="matrix(1.00089 0 0 1 321 123)"/><path d="M604.133 395.451 604.133 393.144 606.337 393.144 606.337 395.451ZM606.203 410.144 604.267 410.144 604.267 397.714 606.203 397.714Z" fill="#000000" fill-rule="nonzero" fill-opacity="1" transform="matrix(1.00089 0 0 1 321 123)"/><path d="M618.186 398.027C618.871 398.43 619.429 399.018 619.794 399.724 620.183 400.526 620.376 401.407 620.36 402.299L620.36 410.144 618.41 410.144 618.41 402.448C618.466 401.544 618.173 400.655 617.591 399.962 616.995 399.351 616.165 399.027 615.313 399.069 614.675 399.057 614.043 399.211 613.482 399.515 612.963 399.811 612.538 400.251 612.261 400.781 611.964 401.386 611.816 402.055 611.83 402.731L611.83 410.174 609.894 410.174 609.894 397.744 611.755 397.744 611.755 399.649C612.122 398.955 612.68 398.382 613.363 397.997 614.099 397.619 614.917 397.43 615.745 397.446 616.595 397.422 617.438 397.622 618.186 398.027Z" fill="#000000" fill-rule="nonzero" fill-opacity="1" transform="matrix(1.00089 0 0 1 321 123)"/><path d="M631.882 409.296C630.618 408.538 629.587 407.447 628.905 406.14 627.491 403.331 627.491 400.017 628.905 397.208 629.582 395.898 630.614 394.805 631.882 394.052 633.128 393.279 634.569 392.882 636.036 392.905 637.276 392.892 638.502 393.162 639.623 393.694 640.689 394.201 641.627 394.945 642.362 395.868 643.05 396.728 643.497 397.756 643.658 398.845L641.618 398.845C641.465 398.064 641.11 397.336 640.591 396.731 640.036 396.096 639.351 395.588 638.581 395.243 637.77 394.866 636.886 394.673 635.991 394.677 634.876 394.658 633.782 394.973 632.85 395.585 631.903 396.194 631.145 397.054 630.661 398.071 629.609 400.362 629.609 403 630.661 405.291 631.145 406.308 631.903 407.168 632.85 407.777 633.786 408.377 634.879 408.688 635.991 408.671 636.991 408.681 637.981 408.458 638.879 408.016 639.717 407.609 640.424 406.975 640.918 406.184 641.431 405.4 641.704 404.486 641.707 403.549L641.707 403.43 637.241 403.43 637.241 401.614 643.777 401.614 643.777 402.85C643.79 404.216 643.44 405.562 642.764 406.75 642.083 407.856 641.122 408.764 639.981 409.385 638.775 410.054 637.414 410.397 636.036 410.383 634.577 410.417 633.137 410.04 631.882 409.296Z" fill="#000000" fill-rule="nonzero" fill-opacity="1" transform="matrix(1.00089 0 0 1 321 123)"/><path d="M647.364 395.451 647.364 393.144 649.568 393.144 649.568 395.451ZM649.434 410.144 647.573 410.144 647.573 397.714 649.508 397.714Z" fill="#000000" fill-rule="nonzero" fill-opacity="1" transform="matrix(1.00089 0 0 1 321 123)"/><path d="M656.505 410.144C655.729 410.193 654.966 409.937 654.376 409.43 653.84 408.915 653.557 408.191 653.602 407.45L653.602 399.441 651.414 399.441 651.414 397.714 652.753 397.714C653.304 397.739 653.77 397.313 653.795 396.763 653.795 396.737 653.797 396.712 653.795 396.687L653.795 394.603 655.537 394.603 655.537 397.714 658.515 397.714 658.515 399.441 655.537 399.441 655.537 407.331C655.522 407.628 655.629 407.919 655.835 408.135 656.049 408.333 656.334 408.434 656.624 408.417L658.529 408.417 658.529 410.144Z" fill="#000000" fill-rule="nonzero" fill-opacity="1" transform="matrix(1.00089 0 0 1 321 123)"/><path d="M672.88 397.595 672.88 399.619 672.434 399.619C671.439 399.566 670.47 399.939 669.769 400.647 669.077 401.431 668.728 402.461 668.801 403.505L668.801 410.144 666.777 410.144 666.777 397.714 668.727 397.714 668.727 400.215C669.031 399.439 669.547 398.763 670.216 398.265 670.874 397.806 671.661 397.572 672.463 397.595Z" fill="#000000" fill-rule="nonzero" fill-opacity="1" transform="matrix(1.00089 0 0 1 321 123)"/><path d="M685.772 404.398 675.858 404.398C675.913 405.192 676.142 405.964 676.528 406.661 676.888 407.277 677.4 407.789 678.016 408.15 678.643 408.517 679.359 408.708 680.085 408.7 680.593 408.7 681.096 408.615 681.574 408.447 682.027 408.297 682.449 408.071 682.825 407.777 683.158 407.514 683.419 407.171 683.584 406.78L685.46 406.78C685.309 407.477 684.962 408.117 684.462 408.626 683.902 409.195 683.227 409.635 682.482 409.921 681.681 410.238 680.828 410.4 679.966 410.397 678.857 410.414 677.766 410.125 676.81 409.564 675.889 409 675.142 408.19 674.652 407.227 674.12 406.186 673.855 405.031 673.878 403.862 673.858 402.707 674.129 401.565 674.667 400.542 675.167 399.585 675.919 398.783 676.84 398.22 677.782 397.65 678.865 397.355 679.966 397.371 681.02 397.354 682.056 397.65 682.944 398.22 683.832 398.798 684.547 399.604 685.013 400.557 685.516 401.596 685.771 402.738 685.757 403.892ZM677.346 400.111C676.602 400.827 676.129 401.779 676.006 402.805L683.792 402.805C683.675 401.8 683.235 400.861 682.542 400.126 681.885 399.466 680.986 399.106 680.056 399.128 679.06 399.094 678.089 399.447 677.346 400.111Z" fill="#000000" fill-rule="nonzero" fill-opacity="1" transform="matrix(1.00089 0 0 1 321 123)"/><path d="M697.786 398.265C698.704 398.833 699.45 399.642 699.944 400.602 700.977 402.699 700.977 405.159 699.944 407.256 699.45 408.216 698.704 409.025 697.786 409.594 696.87 410.162 695.812 410.457 694.734 410.442 693.841 410.454 692.959 410.24 692.173 409.817 691.408 409.406 690.767 408.8 690.313 408.06L690.313 408.849 690.313 414.06 688.392 414.06 688.392 397.684 690.253 397.684 690.253 399.783C690.706 399.039 691.347 398.427 692.114 398.012 692.9 397.589 693.781 397.374 694.674 397.386 695.775 397.37 696.857 397.675 697.786 398.265ZM696.669 408.075C697.311 407.649 697.826 407.058 698.158 406.363 698.872 404.819 698.872 403.039 698.158 401.495 697.826 400.8 697.311 400.209 696.669 399.783 696.04 399.377 695.304 399.165 694.555 399.173 693.798 399.167 693.053 399.378 692.412 399.783 691.767 400.206 691.252 400.798 690.923 401.495 690.208 403.039 690.208 404.819 690.923 406.363 691.252 407.06 691.767 407.652 692.412 408.075 693.05 408.487 693.796 408.699 694.555 408.685 695.316 408.706 696.063 408.493 696.699 408.075Z" fill="#000000" fill-rule="nonzero" fill-opacity="1" transform="matrix(1.00089 0 0 1 321 123)"/><path d="M705.438 409.594C704.494 409.04 703.721 408.236 703.205 407.271 702.113 405.177 702.113 402.682 703.205 400.587 703.726 399.621 704.503 398.817 705.452 398.265 707.437 397.133 709.869 397.133 711.854 398.265 712.803 398.817 713.581 399.621 714.102 400.587 715.193 402.682 715.193 405.177 714.102 407.271 713.572 408.236 712.79 409.04 711.839 409.594 710.865 410.165 709.753 410.458 708.623 410.442 707.504 410.457 706.402 410.164 705.438 409.594ZM710.826 408.105C711.468 407.698 711.983 407.121 712.315 406.438 713.049 404.877 713.049 403.07 712.315 401.51 711.992 400.821 711.474 400.242 710.826 399.843 709.487 399.048 707.819 399.048 706.48 399.843 705.832 400.242 705.314 400.821 704.991 401.51 704.257 403.07 704.257 404.877 704.991 406.438 705.323 407.121 705.838 407.698 706.48 408.105 707.825 408.879 709.481 408.879 710.826 408.105Z" fill="#000000" fill-rule="nonzero" fill-opacity="1" transform="matrix(1.00089 0 0 1 321 123)"/><path d="M719.029 409.966C718.323 409.69 717.706 409.227 717.243 408.626 716.821 408.074 716.591 407.399 716.588 406.706L718.538 406.706C718.547 407.113 718.694 407.508 718.955 407.822 719.26 408.155 719.636 408.414 720.056 408.581 720.567 408.767 721.106 408.858 721.649 408.849 722.408 408.895 723.162 408.691 723.793 408.269 724.3 407.901 724.592 407.302 724.567 406.676 724.583 406.207 724.412 405.751 724.091 405.41 723.718 405.05 723.236 404.825 722.721 404.77L720.458 404.413C719.508 404.307 718.62 403.895 717.927 403.237 717.322 402.618 716.994 401.779 717.019 400.915 717.015 400.265 717.213 399.63 717.585 399.098 718.002 398.552 718.557 398.125 719.193 397.863 719.928 397.555 720.719 397.403 721.515 397.416 722.335 397.404 723.151 397.556 723.912 397.863 724.568 398.126 725.143 398.557 725.579 399.113 725.984 399.627 726.21 400.26 726.219 400.915L724.284 400.915C724.275 400.556 724.138 400.212 723.897 399.947 723.631 399.636 723.287 399.399 722.9 399.262 722.425 399.081 721.919 398.994 721.411 399.009 720.948 399 720.488 399.082 720.056 399.247 719.698 399.384 719.38 399.609 719.133 399.902 718.909 400.175 718.786 400.517 718.791 400.87 718.77 401.308 718.932 401.733 719.238 402.046 719.587 402.375 720.038 402.574 720.518 402.612L722.855 402.999C723.827 403.106 724.737 403.53 725.445 404.204 726.06 404.86 726.386 405.733 726.353 406.631 726.37 407.34 726.166 408.036 725.773 408.626 725.363 409.224 724.79 409.689 724.12 409.966 723.334 410.296 722.487 410.458 721.634 410.442 720.744 410.448 719.86 410.286 719.029 409.966Z" fill="#000000" fill-rule="nonzero" fill-opacity="1" transform="matrix(1.00089 0 0 1 321 123)"/><path d="M599.518 280.734 599.518 319.127 608.748 319.127 608.748 325.483 599.518 325.483 599.518 340.117 592.566 340.117 592.566 325.483 562.465 325.483 562.465 318.874 592.492 280.734ZM592.566 289.979 569.894 319.127 592.566 319.127Z" fill="#000000" fill-rule="nonzero" fill-opacity="1" transform="matrix(1.00089 0 0 1 321 123)"/><path d="M624.856 337.304C621.143 334.542 618.267 330.807 616.549 326.511 612.599 316.193 612.599 304.778 616.549 294.46 618.268 290.144 621.141 286.383 624.856 283.592 632.235 278.413 642.069 278.413 649.449 283.592 653.163 286.383 656.036 290.144 657.755 294.46 661.705 304.778 661.705 316.193 657.755 326.511 656.037 330.807 653.161 334.542 649.449 337.304 642.051 342.426 632.253 342.426 624.856 337.304ZM645.861 331.974C648.485 329.743 650.43 326.817 651.473 323.533 652.862 319.325 653.522 314.909 653.423 310.478 653.522 306.022 652.862 301.583 651.473 297.348 650.434 294.044 648.49 291.1 645.861 288.847 640.728 284.895 633.576 284.895 628.443 288.847 625.811 291.091 623.866 294.032 622.831 297.333 620.23 305.867 620.23 314.984 622.831 323.518 623.866 326.819 625.811 329.76 628.443 332.004 633.584 335.935 640.72 335.935 645.861 332.004Z" fill="#000000" fill-rule="nonzero" fill-opacity="1" transform="matrix(1.00089 0 0 1 321 123)"/><path d="M678.18 337.304C674.467 334.542 671.591 330.807 669.873 326.511 665.907 316.196 665.907 304.775 669.873 294.46 671.593 290.144 674.466 286.383 678.18 283.592 685.553 278.412 695.385 278.412 702.758 283.592 706.472 286.383 709.345 290.144 711.065 294.46 715.014 304.778 715.014 316.193 711.065 326.511 709.347 330.807 706.471 334.542 702.758 337.304 695.365 342.423 685.573 342.423 678.18 337.304ZM699.17 332.004C701.799 329.774 703.749 326.849 704.797 323.563 706.179 319.353 706.838 314.938 706.748 310.507 706.838 306.052 706.179 301.614 704.797 297.377 703.754 294.074 701.804 291.128 699.17 288.877 694.037 284.925 686.886 284.925 681.753 288.877 679.121 291.12 677.175 294.062 676.14 297.362 673.54 305.897 673.54 315.014 676.14 323.548 677.202 326.834 679.167 329.754 681.812 331.974 686.953 335.906 694.089 335.906 699.23 331.974Z" fill="#000000" fill-rule="nonzero" fill-opacity="1" transform="matrix(1.00089 0 0 1 321 123)"/><path d="M740.436 307.813 751.884 307.813 751.884 312.904 740.436 312.904 740.436 324.903 735.404 324.903 735.404 312.904 723.495 312.904 723.495 307.858 735.404 307.858 735.404 295.77 740.496 295.77Z" fill="#000000" fill-rule="nonzero" fill-opacity="1" transform="matrix(1.00089 0 0 1 321 123)"/><path d="M206.926 345.506C206.958 355.866 198.588 364.29 188.228 364.323 177.868 364.356 169.444 355.985 169.411 345.625 169.378 335.266 177.749 326.841 188.109 326.808 188.128 326.808 188.149 326.808 188.168 326.808 198.37 326.652 206.768 334.795 206.924 344.997 206.927 345.167 206.927 345.336 206.926 345.506ZM198.708 345.506C198.708 338.777 193.825 334.177 188.168 334.177 182.511 334.177 177.628 338.777 177.628 345.506 177.628 352.235 182.496 356.835 188.168 356.835 194.135 356.694 198.858 351.742 198.719 345.776 198.716 345.685 198.713 345.595 198.708 345.506Z" fill="#EA4335" fill-rule="nonzero" fill-opacity="1" transform="matrix(1.00089 0 0 1 321 123)"/><path d="M247.388 345.506C247.42 355.866 239.05 364.29 228.69 364.323 218.33 364.356 209.906 355.985 209.873 345.625 209.84 335.266 218.211 326.841 228.571 326.808 228.59 326.808 228.611 326.808 228.63 326.808 238.832 326.652 247.23 334.795 247.386 344.997 247.389 345.167 247.389 345.336 247.388 345.506ZM239.17 345.506C239.17 338.777 234.287 334.177 228.63 334.177 222.973 334.177 218.091 338.777 218.091 345.506 218.091 352.235 222.959 356.835 228.63 356.835 234.597 356.694 239.321 351.742 239.181 345.776 239.178 345.685 239.175 345.595 239.17 345.506Z" fill="#FBBC05" fill-rule="nonzero" fill-opacity="1" transform="matrix(1.00089 0 0 1 321 123)"/><path d="M286.168 327.94 286.168 361.509C286.168 375.309 278.025 380.951 268.393 380.951 261.147 380.98 254.602 376.628 251.824 369.935L258.97 366.958C260.461 370.881 264.183 373.507 268.378 373.597 274.541 373.597 278.367 369.801 278.367 362.641L278.367 359.946 278.084 359.946C275.586 362.748 271.981 364.305 268.229 364.204 258.213 363.857 250.295 355.601 250.365 345.581 250.365 335.026 258.925 326.808 268.229 326.808 271.964 326.716 275.556 328.241 278.084 330.992L278.382 330.992 278.382 328.014 286.183 328.014ZM278.948 345.581C278.948 339.001 274.556 334.177 268.959 334.177 263.361 334.177 258.538 339.001 258.538 345.581 258.538 352.16 263.287 356.835 268.959 356.835 274.63 356.835 278.948 352.086 278.948 345.581Z" fill="#4285F4" fill-rule="nonzero" fill-opacity="1" transform="matrix(1.00089 0 0 1 321 123)"/><path d="M299.015 308.274 299.015 363.058 291.006 363.058 291.006 308.274Z" fill="#34A853" fill-rule="nonzero" fill-opacity="1" transform="matrix(1.00089 0 0 1 321 123)"/><path d="M330.217 351.669 336.589 355.912C333.12 361.115 327.271 364.229 321.017 364.204 310.914 364.347 302.609 356.271 302.466 346.167 302.463 345.947 302.464 345.726 302.469 345.506 302.469 334.386 310.463 326.808 320.094 326.808 329.726 326.808 334.549 334.52 336.098 338.718L336.946 340.832 311.951 351.252C313.532 354.815 317.123 357.055 321.017 356.909 324.781 356.933 328.278 354.97 330.217 351.744ZM310.612 344.94 327.315 338.003C326.006 335.41 323.274 333.851 320.377 334.043 314.719 334.304 310.342 339.102 310.601 344.76 310.604 344.82 310.607 344.881 310.612 344.94Z" fill="#EA4335" fill-rule="nonzero" fill-opacity="1" transform="matrix(1.00089 0 0 1 321 123)"/><path d="M139.102 340.653 139.102 332.718 165.898 332.718C166.181 334.295 166.316 335.895 166.3 337.497 166.3 343.452 164.677 350.806 159.437 356.061 154.197 361.316 147.81 364.204 139.176 364.204 123.144 364.717 109.731 352.137 109.217 336.105 108.704 320.072 121.284 306.659 137.316 306.146 137.936 306.126 138.556 306.126 139.176 306.146 146.585 306.041 153.726 308.91 159.005 314.11L153.408 319.707C149.56 316.035 144.421 314.024 139.102 314.11 127.447 314.42 118.251 324.118 118.56 335.773 118.858 346.992 127.883 356.016 139.102 356.314 144.589 356.531 149.914 354.423 153.765 350.508 156.247 347.802 157.756 344.344 158.052 340.683Z" fill="#4285F4" fill-rule="nonzero" fill-opacity="1" transform="matrix(1.00089 0 0 1 321 123)"/></g></g></g></g></g></svg>