<svg width="1039" height="424" xmlns="http://www.w3.org/2000/svg" xmlns:xlink="http://www.w3.org/1999/xlink" xml:space="preserve" overflow="hidden"><g transform="translate(-266 -164)"><g><g><g><g><path d="M303.298 338.104C314.346 338.104 323.303 347.057 323.303 358.101L323.303 358.101C323.303 369.144 314.346 378.097 303.298 378.097L232.1 378.097C221.051 378.097 212.095 369.144 212.095 358.101 212.095 347.057 221.051 338.104 232.1 338.104Z" fill="#F3F3F3" fill-rule="nonzero" fill-opacity="1" transform="matrix(1.00373 0 0 1 267.148 164)"/><path d="M234.478 364.588 232.91 364.588 232.91 351.32 241.318 351.32 241.318 352.802 234.426 352.802 234.426 357.368 240.888 357.368 240.888 358.85 234.426 358.85Z" fill="#000000" fill-rule="nonzero" fill-opacity="1" transform="matrix(1.00373 0 0 1 267.148 164)"/><path d="M243.352 353.112 243.352 351.389 245.075 351.389 245.075 353.112ZM244.971 364.588 243.455 364.588 243.455 354.956 244.971 354.956Z" fill="#000000" fill-rule="nonzero" fill-opacity="1" transform="matrix(1.00373 0 0 1 267.148 164)"/><path d="M252.57 354.784 252.57 356.369 252.208 356.369C251.433 356.327 250.676 356.615 250.123 357.161 249.589 357.782 249.317 358.585 249.365 359.401L249.365 364.571 247.849 364.571 247.849 354.956 249.365 354.956 249.365 356.903C249.599 356.3 249.999 355.774 250.52 355.387 251.021 355.025 251.626 354.837 252.243 354.853Z" fill="#000000" fill-rule="nonzero" fill-opacity="1" transform="matrix(1.00373 0 0 1 267.148 164)"/><path d="M262.667 360.125 255.017 360.125C255.07 360.728 255.246 361.316 255.534 361.848 255.803 362.343 256.202 362.755 256.688 363.037 257.171 363.332 257.726 363.48 258.291 363.468 258.689 363.466 259.085 363.402 259.462 363.278 259.819 363.16 260.152 362.979 260.445 362.744 260.703 362.539 260.905 362.274 261.03 361.969L262.495 361.969C262.378 362.519 262.102 363.022 261.702 363.416 261.272 363.859 260.748 364.2 260.169 364.416 259.545 364.672 258.878 364.8 258.205 364.795 257.34 364.805 256.487 364.579 255.741 364.14 255.008 363.711 254.41 363.084 254.017 362.331 253.609 361.512 253.402 360.609 253.414 359.694 253.402 358.795 253.616 357.906 254.035 357.11 254.834 355.569 256.433 354.61 258.17 354.629 258.99 354.618 259.793 354.853 260.479 355.301 261.165 355.719 261.723 356.314 262.099 357.024 262.486 357.835 262.681 358.726 262.667 359.625ZM256.068 356.679C255.482 357.236 255.11 357.978 255.017 358.781L261.099 358.781C261.006 357.999 260.662 357.267 260.117 356.696 259.609 356.183 258.909 355.902 258.187 355.921 257.41 355.892 256.65 356.164 256.068 356.679Z" fill="#000000" fill-rule="nonzero" fill-opacity="1" transform="matrix(1.00373 0 0 1 267.148 164)"/><path d="M272.058 355.318C272.791 355.755 273.387 356.388 273.781 357.144 274.581 358.774 274.581 360.683 273.781 362.314 273.385 363.065 272.789 363.69 272.058 364.123 271.34 364.571 270.509 364.803 269.663 364.795 268.967 364.805 268.279 364.64 267.664 364.312 267.072 363.985 266.574 363.509 266.217 362.934L266.217 364.657 264.77 364.657 264.77 354.956 264.77 351.389 266.286 351.389 266.286 356.558C266.643 355.983 267.141 355.509 267.733 355.18 268.345 354.859 269.024 354.694 269.715 354.697 270.538 354.684 271.35 354.897 272.058 355.318ZM271.179 362.968C271.674 362.629 272.072 362.165 272.334 361.624 272.618 361.033 272.759 360.384 272.747 359.729 272.758 359.074 272.616 358.424 272.334 357.833 272.079 357.292 271.679 356.834 271.179 356.507 270.671 356.167 270.068 355.998 269.456 356.024 268.846 356.004 268.245 356.172 267.733 356.507 267.228 356.829 266.827 357.289 266.579 357.833 266.296 358.424 266.155 359.074 266.165 359.729 266.153 360.384 266.294 361.033 266.579 361.624 266.832 362.17 267.232 362.636 267.733 362.968 268.248 363.296 268.846 363.463 269.456 363.451 270.066 363.47 270.668 363.301 271.179 362.968Z" fill="#000000" fill-rule="nonzero" fill-opacity="1" transform="matrix(1.00373 0 0 1 267.148 164)"/><path d="M282.035 355.059C282.572 355.306 283.019 355.716 283.31 356.231 283.636 356.789 283.796 357.429 283.775 358.075L283.775 364.588 282.293 364.588 282.293 363.141C282.011 363.68 281.564 364.114 281.018 364.381 280.403 364.684 279.722 364.833 279.037 364.812 278.442 364.826 277.853 364.702 277.314 364.45 276.843 364.24 276.442 363.899 276.159 363.468 275.883 363.035 275.74 362.532 275.746 362.021 275.742 361.528 275.88 361.042 276.142 360.625 276.397 360.191 276.759 359.827 277.193 359.574 277.665 359.293 278.196 359.122 278.744 359.074L281.57 358.798C281.768 358.781 281.949 358.681 282.069 358.523 282.205 358.326 282.273 358.09 282.259 357.851 282.262 357.492 282.168 357.141 281.983 356.834 281.794 356.534 281.518 356.3 281.191 356.162 280.834 355.998 280.446 355.916 280.053 355.921 279.652 355.912 279.252 355.988 278.882 356.145 278.551 356.265 278.254 356.467 278.02 356.731 277.803 356.963 277.665 357.26 277.624 357.575L276.142 357.575C276.211 357.03 276.431 356.517 276.779 356.093 277.152 355.633 277.631 355.273 278.175 355.042 278.778 354.777 279.43 354.642 280.088 354.646 280.76 354.629 281.427 354.772 282.035 355.059ZM280.846 363.296C281.742 362.863 282.3 361.947 282.276 360.952L282.276 359.849 278.968 360.194C278.504 360.227 278.068 360.43 277.744 360.763 277.436 361.073 277.267 361.497 277.279 361.934 277.274 362.246 277.365 362.553 277.538 362.813 277.725 363.07 277.974 363.277 278.261 363.416 278.594 363.559 278.951 363.63 279.312 363.623 279.848 363.64 280.381 363.528 280.863 363.296Z" fill="#000000" fill-rule="nonzero" fill-opacity="1" transform="matrix(1.00373 0 0 1 267.148 164)"/><path d="M287.549 364.433C286.99 364.228 286.499 363.869 286.136 363.399 285.81 362.967 285.634 362.441 285.636 361.9L287.152 361.9C287.156 362.217 287.273 362.522 287.48 362.762 287.712 363.03 288.009 363.237 288.341 363.365 288.739 363.509 289.16 363.58 289.582 363.571 290.194 363.621 290.802 363.458 291.305 363.106 291.7 362.818 291.927 362.353 291.908 361.865 291.922 361.504 291.791 361.15 291.546 360.883 291.255 360.592 290.871 360.415 290.461 360.384L288.738 360.108C287.995 360.027 287.301 359.706 286.756 359.195 286.289 358.709 286.036 358.059 286.05 357.385 286.044 356.879 286.201 356.384 286.498 355.973 286.816 355.526 287.251 355.175 287.756 354.956 288.934 354.486 290.247 354.486 291.426 354.956 291.943 355.152 292.394 355.487 292.735 355.921 293.054 356.322 293.23 356.82 293.235 357.334L291.719 357.334C291.717 357.055 291.612 356.784 291.426 356.576 291.217 356.333 290.95 356.15 290.65 356.041 290.299 355.902 289.925 355.831 289.548 355.835 289.189 355.831 288.832 355.895 288.496 356.024 288.205 356.122 287.949 356.302 287.756 356.541 287.581 356.755 287.49 357.024 287.497 357.299 287.487 357.637 287.611 357.966 287.842 358.213 288.117 358.466 288.469 358.624 288.841 358.661L290.668 358.953C291.433 359.034 292.148 359.367 292.701 359.901 293.171 360.411 293.419 361.087 293.39 361.779 293.407 362.336 293.25 362.884 292.942 363.347 292.622 363.811 292.172 364.171 291.65 364.381 291.043 364.648 290.383 364.779 289.72 364.76 288.981 364.809 288.241 364.697 287.549 364.433Z" fill="#000000" fill-rule="nonzero" fill-opacity="1" transform="matrix(1.00373 0 0 1 267.148 164)"/><path d="M303.97 360.125 296.268 360.125C296.326 360.73 296.509 361.316 296.802 361.848 297.069 362.338 297.462 362.748 297.939 363.037 298.428 363.33 298.988 363.48 299.559 363.468 299.952 363.466 300.341 363.402 300.713 363.278 301.072 363.163 301.404 362.982 301.695 362.744 301.954 362.539 302.155 362.274 302.281 361.969L303.746 361.969C303.635 362.517 303.365 363.02 302.97 363.416 302.533 363.859 302.004 364.2 301.42 364.416 300.796 364.672 300.129 364.8 299.455 364.795 298.59 364.805 297.737 364.579 296.991 364.14 296.259 363.711 295.661 363.084 295.268 362.331 294.86 361.512 294.653 360.609 294.665 359.694 294.653 358.795 294.867 357.906 295.285 357.11 296.094 355.576 297.687 354.622 299.421 354.629 300.241 354.616 301.046 354.849 301.73 355.301 302.416 355.719 302.974 356.314 303.349 357.024 303.742 357.833 303.944 358.724 303.935 359.625ZM297.353 356.679C296.774 357.237 296.407 357.982 296.319 358.781L302.385 358.781C302.29 358.002 301.952 357.273 301.42 356.696 300.904 356.181 300.2 355.902 299.473 355.921 298.695 355.898 297.939 356.169 297.353 356.679Z" fill="#000000" fill-rule="nonzero" fill-opacity="1" transform="matrix(1.00373 0 0 1 267.148 164)"/><path d="M715.874 139.501C729.197 139.501 739.997 150.301 739.997 163.624L739.997 309.225C739.997 322.548 729.197 333.348 715.874 333.348L236.218 333.348C222.895 333.348 212.095 322.548 212.095 309.225L212.095 163.624C212.095 150.301 222.895 139.501 236.218 139.501Z" fill="#F3F3F3" fill-rule="nonzero" fill-opacity="1" transform="matrix(1.00373 0 0 1 267.148 164)"/><path d="M461.787 243.421 460.271 243.421 460.271 230.153 461.787 230.153 461.787 236.373 467.99 230.153 470.058 230.153 463.51 236.563 470.058 243.455 467.939 243.455 461.667 236.907Z" fill="#000000" fill-rule="nonzero" fill-opacity="1" transform="matrix(1.00373 0 0 1 267.148 164)"/><path d="M474.245 243.421C473.62 243.472 473.001 243.274 472.522 242.869 472.11 242.461 471.892 241.897 471.919 241.318L471.919 235.064 470.196 235.064 470.196 233.72 471.247 233.72C471.466 233.73 471.678 233.649 471.833 233.495 471.979 233.337 472.06 233.127 472.057 232.91L472.057 231.29 473.418 231.29 473.418 233.72 475.762 233.72 475.762 235.064 473.418 235.064 473.418 241.232C473.378 241.658 473.692 242.037 474.118 242.076 474.166 242.082 474.214 242.082 474.262 242.076L475.744 242.076 475.744 243.421Z" fill="#000000" fill-rule="nonzero" fill-opacity="1" transform="matrix(1.00373 0 0 1 267.148 164)"/><path d="M479.57 242.955C478.841 242.521 478.245 241.896 477.846 241.146 477.419 240.345 477.2 239.451 477.209 238.544 477.2 237.631 477.419 236.731 477.846 235.925 479.161 233.575 482.132 232.734 484.482 234.049 485.27 234.49 485.919 235.138 486.359 235.925 486.779 236.733 486.993 237.633 486.979 238.544 486.999 239.452 486.779 240.35 486.341 241.146 485.952 241.901 485.354 242.53 484.618 242.955 483.073 243.851 481.167 243.851 479.621 242.955ZM483.774 241.749C484.286 241.446 484.694 240.996 484.946 240.457 485.245 239.864 485.394 239.208 485.376 238.544 485.394 237.876 485.245 237.212 484.946 236.614 484.689 236.073 484.282 235.618 483.774 235.305 483.252 235 482.656 234.845 482.051 234.857 481.446 234.84 480.848 234.996 480.328 235.305 479.818 235.624 479.406 236.077 479.139 236.614 478.853 237.217 478.711 237.877 478.725 238.544 478.711 239.206 478.853 239.861 479.139 240.457 479.694 241.53 480.808 242.197 482.016 242.18 482.628 242.221 483.24 242.083 483.774 241.784Z" fill="#000000" fill-rule="nonzero" fill-opacity="1" transform="matrix(1.00373 0 0 1 267.148 164)"/><path d="M493.768 233.633 493.768 235.201 493.423 235.201C492.644 235.158 491.884 235.453 491.338 236.011 490.797 236.619 490.523 237.421 490.58 238.234L490.58 243.403 489.064 243.403 489.064 233.702 490.58 233.702 490.58 235.649C490.809 235.048 491.204 234.522 491.717 234.133 492.224 233.785 492.827 233.604 493.44 233.616Z" fill="#000000" fill-rule="nonzero" fill-opacity="1" transform="matrix(1.00373 0 0 1 267.148 164)"/><path d="M387.298 52.0372C400.621 52.0372 411.421 62.8376 411.421 76.1604L411.421 110.519C411.421 123.842 400.621 134.642 387.298 134.642L236.218 134.642C222.895 134.642 212.095 123.842 212.095 110.519L212.095 76.1604C212.095 62.8376 222.895 52.0372 236.218 52.0372Z" fill="#F3F3F3" fill-rule="nonzero" fill-opacity="1" transform="matrix(1.00373 0 0 1 267.148 164)"/><path d="M287.98 100.439 286.463 100.439 286.463 87.171 287.98 87.171 287.98 93.3913 294.2 87.171 296.268 87.171 289.823 93.5809 296.371 100.473 294.252 100.473 287.98 93.9082Z" fill="#000000" fill-rule="nonzero" fill-opacity="1" transform="matrix(1.00373 0 0 1 267.148 164)"/><path d="M298.766 99.939C298.035 99.499 297.439 98.8673 297.043 98.1126 296.206 96.4911 296.206 94.5647 297.043 92.9433 297.436 92.1901 298.034 91.5631 298.766 91.1341 300.312 90.2379 302.217 90.2379 303.763 91.1341 304.495 91.5645 305.092 92.1912 305.486 92.9433 305.924 93.7395 306.143 94.6369 306.124 95.5452 306.134 96.4522 305.913 97.3472 305.486 98.147 305.083 98.8967 304.488 99.5267 303.763 99.9735 302.998 100.413 302.13 100.639 301.247 100.628 300.374 100.626 299.516 100.388 298.766 99.939ZM302.97 98.7329C303.47 98.416 303.875 97.9694 304.142 97.4406 304.433 96.8394 304.581 96.1787 304.573 95.5107 304.58 94.8428 304.432 94.1827 304.142 93.5809 303.875 93.052 303.47 92.6054 302.97 92.2885 301.468 91.3517 299.491 91.8095 298.554 93.3114 298.501 93.3987 298.451 93.4887 298.404 93.5809 298.106 94.1798 297.96 94.842 297.973 95.5107 297.956 96.1796 298.104 96.8423 298.404 97.4406 299.233 99.037 301.199 99.6594 302.795 98.8309 302.855 98.8001 302.914 98.7673 302.97 98.7329Z" fill="#000000" fill-rule="nonzero" fill-opacity="1" transform="matrix(1.00373 0 0 1 267.148 164)"/><path d="M310.845 100.439C310.218 100.486 309.597 100.282 309.122 99.8701 308.694 99.4779 308.467 98.915 308.501 98.3366L308.501 92.0818 306.778 92.0818 306.778 90.7378 307.829 90.7378C308.045 90.7417 308.252 90.654 308.398 90.4965 308.551 90.348 308.632 90.1409 308.622 89.9279L308.622 88.3082 310.156 88.3082 310.156 90.7378 312.499 90.7378 312.499 92.0818 310.156 92.0818 310.156 98.216C310.142 98.4481 310.23 98.675 310.397 98.8363 310.562 98.9982 310.786 99.0854 311.017 99.0775L312.499 99.0775 312.499 100.422Z" fill="#000000" fill-rule="nonzero" fill-opacity="1" transform="matrix(1.00373 0 0 1 267.148 164)"/><path d="M323.062 95.9587 315.325 95.9587C315.37 96.5637 315.547 97.1516 315.842 97.6818 316.111 98.1765 316.51 98.5878 316.996 98.8707 317.479 99.1649 318.034 99.3144 318.599 99.3015 318.997 99.3003 319.393 99.2362 319.77 99.112 320.122 98.9932 320.448 98.8123 320.735 98.5778 320.999 98.374 321.206 98.1074 321.339 97.8024L322.803 97.8024C322.679 98.3492 322.403 98.8504 322.01 99.2498 321.573 99.6889 321.051 100.035 320.477 100.266 319.85 100.509 319.185 100.631 318.513 100.628 317.648 100.639 316.795 100.413 316.049 99.9735 315.323 99.5731 314.725 98.9757 314.326 98.2504 313.917 97.4325 313.71 96.5284 313.722 95.6141 313.71 94.7143 313.924 93.826 314.343 93.0295 314.73 92.2723 315.328 91.6439 316.066 91.2202 316.802 90.7677 317.649 90.5346 318.513 90.5482 319.331 90.5396 320.136 90.7734 320.822 91.2202 321.518 91.6581 322.074 92.2858 322.424 93.0295 322.826 93.8371 323.027 94.7296 323.01 95.6313ZM316.462 92.5987C315.876 93.1546 315.504 93.8986 315.411 94.7009L321.476 94.7009C321.402 93.916 321.063 93.1801 320.511 92.6159 320.003 92.1021 319.304 91.8216 318.582 91.8405 317.804 91.8119 317.045 92.0835 316.462 92.5987Z" fill="#000000" fill-rule="nonzero" fill-opacity="1" transform="matrix(1.00373 0 0 1 267.148 164)"/><path d="M326.284 100.284C325.727 100.074 325.238 99.7169 324.871 99.2498 324.545 98.818 324.369 98.2916 324.371 97.7507L325.887 97.7507C325.896 98.0667 326.012 98.3705 326.215 98.6123 326.447 98.8814 326.744 99.0885 327.076 99.2153 327.474 99.3597 327.895 99.4299 328.317 99.4221 328.925 99.4674 329.532 99.3099 330.04 98.9741 330.433 98.6777 330.659 98.2085 330.643 97.7163 330.657 97.3541 330.526 97.0012 330.281 96.7341 329.988 96.4572 329.613 96.282 329.213 96.2344L327.49 95.9587C326.747 95.8769 326.053 95.5565 325.508 95.0455 325.06 94.5827 324.809 93.966 324.802 93.3224 324.797 92.8156 324.954 92.3208 325.25 91.9095 325.577 91.4795 326.012 91.1415 326.508 90.9273 327.691 90.4572 329.011 90.4572 330.195 90.9273 330.707 91.1241 331.153 91.458 331.487 91.8922 331.813 92.2904 331.991 92.7903 331.987 93.3052L330.471 93.3052C330.469 93.0253 330.364 92.7558 330.178 92.547 329.969 92.3049 329.702 92.1207 329.403 92.0128 328.708 91.7494 327.943 91.7494 327.249 92.0128 326.961 92.1162 326.704 92.2946 326.508 92.5298 326.337 92.745 326.246 93.0129 326.249 93.2879 326.239 93.626 326.363 93.9546 326.594 94.2012 326.87 94.4551 327.221 94.6125 327.593 94.6492L329.42 94.9421C330.185 95.0224 330.9 95.356 331.453 95.8898 331.929 96.3972 332.182 97.0729 332.159 97.768 332.172 98.3264 332.01 98.8749 331.694 99.336 331.374 99.804 330.926 100.169 330.402 100.387 329.79 100.641 329.134 100.764 328.472 100.749 327.717 100.755 326.971 100.597 326.284 100.284Z" fill="#000000" fill-rule="nonzero" fill-opacity="1" transform="matrix(1.00373 0 0 1 267.148 164)"/><path d="M336.829 100.439C336.2 100.494 335.578 100.289 335.106 99.8701 334.679 99.4779 334.451 98.915 334.486 98.3366L334.486 92.0818 332.763 92.0818 332.763 90.7378 333.814 90.7378C334.034 90.7467 334.25 90.6587 334.4 90.4965 334.553 90.348 334.634 90.1409 334.623 89.9279L334.623 88.3082 336.002 88.3082 336.002 90.7378 338.345 90.7378 338.345 92.0818 336.002 92.0818 336.002 98.216C335.988 98.4481 336.076 98.675 336.243 98.8363 336.409 98.9982 336.633 99.0854 336.863 99.0775L338.328 99.0775 338.328 100.422Z" fill="#000000" fill-rule="nonzero" fill-opacity="1" transform="matrix(1.00373 0 0 1 267.148 164)"/><path d="M1009.13 253.535C1022.45 253.535 1033.25 264.335 1033.25 277.658L1033.25 384.92C1033.25 398.243 1022.45 409.044 1009.13 409.044L768.893 409.044C755.57 409.044 744.77 398.243 744.77 384.92L744.77 277.658C744.77 264.335 755.57 253.535 768.893 253.535Z" fill="#F3F3F3" fill-rule="nonzero" fill-opacity="1" transform="matrix(1.00373 0 0 1 267.148 164)"/><path d="M715.874 0C729.197-3.06082e-15 739.997 10.8003 739.997 24.1232L739.997 110.536C739.997 123.859 729.197 134.659 715.874 134.659L440.352 134.659C427.029 134.659 416.229 123.859 416.229 110.536L416.229 24.1232C416.229 10.8003 427.029 3.28653e-06 440.352 3.28653e-06Z" fill="#F3F3F3" fill-rule="nonzero" fill-opacity="1" transform="matrix(1.00373 0 0 1 267.148 164)"/><path d="M562.777 74.4029 561.261 74.4029 561.261 61.1351 562.777 61.1351 562.777 67.3555 568.981 61.1351 571.048 61.1351 564.621 67.545 571.152 74.4374 569.032 74.4374 562.777 67.8896Z" fill="#000000" fill-rule="nonzero" fill-opacity="1" transform="matrix(1.00373 0 0 1 267.148 164)"/><path d="M573.547 73.9721C572.825 73.5665 572.229 72.9705 571.824 72.249 571.386 71.4528 571.165 70.5554 571.186 69.6472 571.169 68.7338 571.389 67.8317 571.824 67.0281 572.225 66.2816 572.821 65.6568 573.547 65.2188 575.106 64.354 577.002 64.354 578.561 65.2188 579.286 65.6568 579.883 66.2816 580.284 67.0281 580.718 67.8317 580.939 68.7338 580.922 69.6472 580.94 70.5554 580.722 71.4528 580.284 72.249 579.872 72.9658 579.278 73.5605 578.561 73.9721 577.799 74.4189 576.927 74.6457 576.045 74.6269 575.168 74.6469 574.301 74.4201 573.547 73.9721ZM577.751 72.766C578.263 72.4634 578.671 72.0128 578.923 71.4736 579.498 70.2573 579.498 68.8475 578.923 67.6312 578.666 67.0908 578.259 66.6361 577.751 66.3216 576.684 65.706 575.371 65.706 574.305 66.3216 573.8 66.6404 573.393 67.0941 573.133 67.6312 572.558 68.8475 572.558 70.2573 573.133 71.4736 573.39 72.0087 573.798 72.4577 574.305 72.766 575.365 73.4076 576.691 73.4076 577.751 72.766Z" fill="#000000" fill-rule="nonzero" fill-opacity="1" transform="matrix(1.00373 0 0 1 267.148 164)"/><path d="M582.92 62.9444 582.92 61.1351 584.643 61.1351 584.643 62.9444ZM584.54 74.4029 583.041 74.4029 583.041 64.7019 584.54 64.7019Z" fill="#000000" fill-rule="nonzero" fill-opacity="1" transform="matrix(1.00373 0 0 1 267.148 164)"/><path d="M593.896 64.9431C594.436 65.2547 594.872 65.7154 595.154 66.2699 595.454 66.8988 595.602 67.5895 595.585 68.2859L595.585 74.4029 594.069 74.4029 594.069 68.4066C594.115 67.6996 593.888 67.0015 593.431 66.4595 592.98 65.997 592.354 65.7468 591.708 65.7702 591.208 65.7552 590.716 65.8741 590.278 66.1148 589.87 66.3375 589.539 66.6804 589.33 67.097 589.094 67.5667 588.975 68.0873 588.986 68.6133L588.986 74.4029 587.487 74.4029 587.487 64.7019 588.934 64.7019 588.934 66.1838C589.218 65.6443 589.656 65.2008 590.192 64.9087 590.759 64.6071 591.394 64.4586 592.035 64.4779 592.685 64.4731 593.326 64.6332 593.896 64.9431Z" fill="#000000" fill-rule="nonzero" fill-opacity="1" transform="matrix(1.00373 0 0 1 267.148 164)"/><path d="M303.298 382.922C314.346 382.922 323.303 391.874 323.303 402.918L323.303 402.918C323.303 413.962 314.346 422.914 303.298 422.914L232.1 422.914C221.051 422.914 212.095 413.962 212.095 402.918 212.095 391.874 221.051 382.922 232.1 382.922Z" fill="#F3F3F3" fill-rule="nonzero" fill-opacity="1" transform="matrix(1.00373 0 0 1 267.148 164)"/><path d="M251.795 401.807C251.516 402.353 251.093 402.811 250.571 403.133 250.006 403.483 249.37 403.702 248.71 403.771L252.157 409.388 250.347 409.388 246.901 403.84 244.127 403.84 244.127 409.388 242.559 409.388 242.559 396.12 247.866 396.12C248.633 396.105 249.393 396.263 250.089 396.586 250.704 396.887 251.219 397.359 251.571 397.947 251.939 398.553 252.126 399.253 252.105 399.963 252.157 400.594 252.05 401.228 251.795 401.807ZM244.248 397.585 244.248 402.358 247.987 402.358C248.452 402.375 248.915 402.275 249.331 402.065 249.71 401.886 250.029 401.598 250.244 401.238 250.458 400.847 250.564 400.408 250.554 399.963 250.564 399.524 250.458 399.089 250.244 398.705 250.029 398.345 249.71 398.057 249.331 397.878 248.912 397.676 248.452 397.576 247.987 397.585Z" fill="#000000" fill-rule="nonzero" fill-opacity="1" transform="matrix(1.00373 0 0 1 267.148 164)"/><path d="M262.53 404.925 254.845 404.925C254.889 405.53 255.067 406.118 255.361 406.649 255.63 407.143 256.03 407.555 256.516 407.837 256.998 408.132 257.553 408.28 258.118 408.268 258.516 408.266 258.911 408.203 259.29 408.079 259.645 407.967 259.972 407.786 260.255 407.545 260.519 407.341 260.725 407.074 260.858 406.769L262.323 406.769C262.199 407.315 261.923 407.817 261.53 408.217 261.092 408.656 260.57 409.002 259.997 409.233 259.369 409.476 258.704 409.598 258.032 409.595 257.167 409.605 256.314 409.38 255.568 408.94 254.831 408.516 254.233 407.887 253.845 407.131 253.437 406.312 253.23 405.41 253.242 404.495 253.233 403.597 253.44 402.711 253.845 401.91 254.653 400.37 256.259 399.417 257.998 399.446 258.815 399.432 259.618 399.66 260.307 400.101 260.991 400.516 261.546 401.112 261.909 401.824 262.309 402.632 262.509 403.525 262.495 404.426ZM255.93 401.583C255.348 402.134 254.976 402.872 254.879 403.668L260.944 403.668C260.87 402.882 260.531 402.146 259.979 401.583 259.471 401.069 258.771 400.788 258.049 400.807 257.271 400.773 256.511 401.045 255.93 401.565Z" fill="#000000" fill-rule="nonzero" fill-opacity="1" transform="matrix(1.00373 0 0 1 267.148 164)"/><path d="M270.232 399.86C270.769 400.106 271.216 400.516 271.507 401.031 271.826 401.591 271.981 402.231 271.955 402.875L271.955 409.388 270.525 409.388 270.525 407.941C270.242 408.48 269.796 408.914 269.25 409.181 268.634 409.485 267.954 409.633 267.268 409.612 266.674 409.626 266.084 409.502 265.545 409.25 265.071 409.045 264.668 408.704 264.39 408.268 264.115 407.836 263.972 407.333 263.977 406.821 263.977 406.33 264.108 405.849 264.356 405.425 264.621 404.993 264.988 404.633 265.424 404.374 265.9 404.098 266.429 403.928 266.975 403.874L269.801 403.599C270.001 403.59 270.187 403.488 270.301 403.323 270.437 403.127 270.504 402.89 270.49 402.651 270.494 402.291 270.392 401.938 270.197 401.634 270.013 401.336 269.742 401.102 269.422 400.962 269.065 400.799 268.677 400.716 268.285 400.721 267.878 400.714 267.473 400.79 267.096 400.945 266.765 401.074 266.469 401.281 266.234 401.548 266.026 401.779 265.893 402.067 265.855 402.375L264.373 402.375C264.444 401.834 264.658 401.322 264.994 400.893 265.381 400.442 265.864 400.084 266.406 399.842 267.01 399.584 267.663 399.455 268.319 399.463 268.979 399.446 269.634 399.582 270.232 399.86ZM269.043 408.096C269.472 407.881 269.835 407.553 270.094 407.148 270.344 406.726 270.475 406.244 270.473 405.753L270.473 404.65 267.165 404.994C266.701 405.027 266.265 405.23 265.941 405.563 265.633 405.873 265.464 406.297 265.476 406.735 265.473 407.047 265.562 407.353 265.734 407.613 265.915 407.877 266.165 408.087 266.458 408.217 266.791 408.36 267.147 408.43 267.509 408.423 268.04 408.437 268.566 408.325 269.043 408.096Z" fill="#000000" fill-rule="nonzero" fill-opacity="1" transform="matrix(1.00373 0 0 1 267.148 164)"/><path d="M276.125 409.388 274.608 409.388 274.608 396.12 276.125 396.12Z" fill="#000000" fill-rule="nonzero" fill-opacity="1" transform="matrix(1.00373 0 0 1 267.148 164)"/><path d="M291.667 399.928C292.192 400.252 292.616 400.719 292.89 401.272 293.192 401.895 293.34 402.58 293.321 403.271L293.321 409.388 291.805 409.388 291.805 403.323C291.832 402.656 291.619 402.001 291.202 401.479 290.776 400.981 290.132 400.723 289.479 400.79 288.476 400.773 287.561 401.355 287.152 402.272 286.928 402.818 286.823 403.406 286.842 403.995L286.842 409.509 285.326 409.509 285.326 403.444C285.366 402.76 285.152 402.084 284.723 401.548 284.278 401.076 283.648 400.824 283 400.859 282.505 400.845 282.018 400.985 281.604 401.255 281.201 401.517 280.889 401.896 280.708 402.341 280.484 402.887 280.379 403.475 280.398 404.064L280.398 409.578 278.882 409.578 278.882 399.756 280.346 399.756 280.346 401.186C280.622 400.676 281.032 400.252 281.535 399.963 282.062 399.672 282.657 399.524 283.258 399.532 283.92 399.515 284.571 399.689 285.136 400.032 285.683 400.371 286.12 400.862 286.394 401.445 286.704 400.866 287.163 400.378 287.721 400.032 288.312 399.689 288.986 399.515 289.668 399.532 290.359 399.472 291.052 399.608 291.667 399.928Z" fill="#000000" fill-rule="nonzero" fill-opacity="1" transform="matrix(1.00373 0 0 1 267.148 164)"/><path d="M187.334 94.6492C198.382 94.6492 207.339 103.602 207.339 114.646L207.339 114.646C207.339 125.689 198.382 134.642 187.334 134.642L116.136 134.642C105.088 134.642 96.131 125.689 96.131 114.646 96.131 103.602 105.088 94.6492 116.136 94.6492Z" fill="#F3F3F3" fill-rule="nonzero" fill-opacity="1" transform="matrix(1.00373 0 0 1 267.148 164)"/><path d="M126.612 113.551C126.332 114.086 125.916 114.538 125.406 114.861 124.835 115.187 124.2 115.387 123.545 115.447L126.992 121.047 125.268 121.047 121.822 115.499 119.065 115.499 119.065 121.047 117.497 121.047 117.497 107.779 122.804 107.779C123.572 107.768 124.333 107.933 125.027 108.262 125.646 108.556 126.167 109.022 126.526 109.606 126.88 110.224 127.058 110.927 127.043 111.639 127.068 112.303 126.92 112.962 126.612 113.551ZM119.065 109.33 119.065 114.103 122.804 114.103C123.274 114.11 123.74 114.009 124.166 113.81 124.538 113.618 124.849 113.326 125.062 112.966 125.275 112.581 125.382 112.147 125.372 111.708 125.382 111.263 125.275 110.823 125.062 110.433 124.842 110.082 124.533 109.796 124.166 109.606 123.738 109.412 123.273 109.318 122.804 109.33Z" fill="#000000" fill-rule="nonzero" fill-opacity="1" transform="matrix(1.00373 0 0 1 267.148 164)"/><path d="M137.347 116.636 129.662 116.636C129.716 117.241 129.898 117.829 130.196 118.359 130.462 118.854 130.855 119.27 131.334 119.565 131.819 119.85 132.373 119.999 132.936 119.996 133.334 119.995 133.73 119.93 134.108 119.806 134.461 119.681 134.793 119.5 135.09 119.272 135.348 119.068 135.55 118.801 135.676 118.497L137.14 118.497C137.019 119.04 136.744 119.536 136.348 119.927 135.921 120.379 135.397 120.727 134.814 120.943 134.189 121.192 133.523 121.32 132.85 121.323 131.984 121.334 131.132 121.107 130.386 120.668 129.656 120.228 129.06 119.596 128.663 118.841 128.255 118.029 128.049 117.131 128.06 116.222 128.074 115.349 128.298 114.492 128.715 113.724 129.51 112.181 131.114 111.225 132.85 111.26 133.667 111.249 134.469 111.476 135.159 111.914 135.85 112.363 136.409 112.987 136.779 113.724 137.167 114.535 137.361 115.426 137.347 116.326ZM130.748 113.293C130.158 113.844 129.791 114.592 129.714 115.395L135.779 115.395C135.685 114.607 135.341 113.87 134.797 113.293 134.291 112.776 133.591 112.494 132.867 112.518 132.087 112.494 131.328 112.772 130.748 113.293Z" fill="#000000" fill-rule="nonzero" fill-opacity="1" transform="matrix(1.00373 0 0 1 267.148 164)"/><path d="M145.049 111.587C145.581 111.844 146.024 112.251 146.325 112.759 146.65 113.318 146.811 113.957 146.79 114.603L146.79 121.116 145.308 121.116 145.308 119.686C145.016 120.217 144.572 120.649 144.033 120.926 143.415 121.223 142.736 121.37 142.051 121.357 141.457 121.37 140.867 121.246 140.328 120.995 139.86 120.774 139.46 120.428 139.174 119.996 138.893 119.566 138.749 119.062 138.76 118.548 138.761 118.056 138.898 117.572 139.157 117.153 139.417 116.717 139.785 116.355 140.225 116.102 140.695 115.831 141.218 115.667 141.758 115.619L144.584 115.326C144.78 115.315 144.962 115.221 145.084 115.068 145.222 114.865 145.289 114.623 145.273 114.379 145.282 114.02 145.187 113.667 144.998 113.362 144.798 113.078 144.532 112.847 144.222 112.69 143.858 112.533 143.464 112.457 143.068 112.466 142.668 112.46 142.27 112.53 141.896 112.673 141.566 112.804 141.271 113.01 141.035 113.276 140.821 113.505 140.683 113.793 140.638 114.103L139.174 114.103C139.229 113.563 139.445 113.053 139.794 112.638 140.176 112.178 140.66 111.812 141.207 111.57 141.804 111.309 142.451 111.18 143.102 111.191 143.773 111.175 144.438 111.311 145.049 111.587ZM143.878 119.823C144.309 119.618 144.669 119.288 144.912 118.876 145.17 118.463 145.302 117.984 145.291 117.497L145.291 116.395 141.982 116.739C141.521 116.766 141.085 116.962 140.759 117.291 140.461 117.608 140.295 118.027 140.294 118.462 140.289 118.774 140.38 119.081 140.552 119.341 140.733 119.605 140.983 119.814 141.276 119.944 141.609 120.102 141.975 120.179 142.344 120.168 142.875 120.173 143.4 120.055 143.878 119.823Z" fill="#000000" fill-rule="nonzero" fill-opacity="1" transform="matrix(1.00373 0 0 1 267.148 164)"/><path d="M150.96 121.116 149.443 121.116 149.443 107.848 150.96 107.848 150.96 115.895 155.336 111.415 157.232 111.415 152.683 116.033 157.404 121.202 155.474 121.202 150.96 116.308Z" fill="#000000" fill-rule="nonzero" fill-opacity="1" transform="matrix(1.00373 0 0 1 267.148 164)"/><path d="M161.35 121.116C160.725 121.168 160.105 120.97 159.627 120.564 159.216 120.156 158.996 119.593 159.024 119.014L159.024 112.759 157.301 112.759 157.301 111.415 158.352 111.415C158.57 111.426 158.782 111.345 158.938 111.191 159.085 111.032 159.165 110.822 159.162 110.605L159.162 108.985 160.523 108.985 160.523 111.415 162.866 111.415 162.866 112.759 160.574 112.759 160.574 118.893C160.535 119.319 160.848 119.697 161.274 119.737 161.322 119.742 161.371 119.742 161.419 119.737L162.901 119.737 162.901 121.081Z" fill="#000000" fill-rule="nonzero" fill-opacity="1" transform="matrix(1.00373 0 0 1 267.148 164)"/><path d="M164.986 109.657 164.986 107.934 166.709 107.934 166.709 109.657ZM166.605 121.116 165.089 121.116 165.089 111.415 166.605 111.415Z" fill="#000000" fill-rule="nonzero" fill-opacity="1" transform="matrix(1.00373 0 0 1 267.148 164)"/><path d="M173.653 121.116 172.033 121.116 168.259 111.415 169.983 111.415 172.963 119.341 175.91 111.415 177.478 111.415Z" fill="#000000" fill-rule="nonzero" fill-opacity="1" transform="matrix(1.00373 0 0 1 267.148 164)"/><path d="M187.437 116.636 179.752 116.636C179.794 117.242 179.97 117.831 180.269 118.359 180.542 118.855 180.94 119.271 181.424 119.565 181.91 119.852 182.463 120 183.026 119.996 183.424 119.995 183.821 119.93 184.198 119.806 184.546 119.681 184.872 119.501 185.163 119.272 185.427 119.068 185.633 118.802 185.766 118.497L187.231 118.497C187.101 119.037 186.827 119.531 186.438 119.927 186.006 120.371 185.482 120.718 184.904 120.943 184.279 121.192 183.612 121.32 182.94 121.323 182.075 121.334 181.222 121.107 180.476 120.668 179.742 120.233 179.144 119.6 178.753 118.841 178.346 118.029 178.14 117.131 178.15 116.222 178.136 115.317 178.35 114.422 178.77 113.62 179.18 112.902 179.775 112.307 180.493 111.897 181.233 111.459 182.08 111.232 182.94 111.242 183.757 111.237 184.558 111.464 185.249 111.897 185.942 112.346 186.497 112.979 186.852 113.724 187.253 114.531 187.455 115.424 187.437 116.326ZM180.924 113.293C180.338 113.849 179.966 114.593 179.873 115.395L185.938 115.395C185.857 114.607 185.518 113.868 184.973 113.293 184.465 112.779 183.766 112.499 183.044 112.518 182.263 112.488 181.501 112.767 180.924 113.293Z" fill="#000000" fill-rule="nonzero" fill-opacity="1" transform="matrix(1.00373 0 0 1 267.148 164)"/><path d="M183.181 139.501C196.504 139.501 207.305 150.301 207.305 163.624L207.305 221.641C207.305 234.964 196.504 245.764 183.181 245.764L24.1232 245.764C10.8003 245.764-4.92979e-06 234.964-4.92979e-06 221.641L-4.92979e-06 163.624C-4.92979e-06 150.301 10.8003 139.501 24.1232 139.501Z" fill="#F3F3F3" fill-rule="nonzero" fill-opacity="1" transform="matrix(1.00373 0 0 1 267.148 164)"/><path d="M183.216 250.537C196.539 250.537 207.339 261.337 207.339 274.66L207.339 309.242C207.339 322.565 196.539 333.366 183.216 333.366L48.5566 333.366C35.2337 333.366 24.4334 322.565 24.4334 309.242L24.4334 274.66C24.4334 261.337 35.2337 250.537 48.5566 250.537Z" fill="#F3F3F3" fill-rule="nonzero" fill-opacity="1" transform="matrix(1.00373 0 0 1 267.148 164)"/><path d="M537.396 338.104C550.719 338.104 561.52 348.904 561.52 362.227L561.52 398.722C561.52 412.045 550.719 422.846 537.396 422.846L352.233 422.846C338.911 422.846 328.11 412.045 328.11 398.722L328.11 362.227C328.11 348.904 338.911 338.104 352.233 338.104Z" fill="#F3F3F3" fill-rule="nonzero" fill-opacity="1" transform="matrix(1.00373 0 0 1 267.148 164)"/><path d="M399.05 387.298C398.352 387 397.754 386.511 397.327 385.885 396.925 385.272 396.722 384.55 396.741 383.818L398.343 383.818C398.336 384.29 398.474 384.753 398.74 385.144 399.008 385.544 399.386 385.861 399.825 386.058 400.838 386.459 401.965 386.459 402.978 386.058 403.406 385.878 403.771 385.579 404.029 385.196 404.288 384.829 404.421 384.388 404.409 383.938 404.419 383.414 404.234 382.904 403.892 382.508 403.518 382.091 403.013 381.812 402.461 381.715L400.118 381.267C399.532 381.164 398.979 380.928 398.498 380.578 398.052 380.249 397.692 379.818 397.447 379.32 397.204 378.815 397.08 378.261 397.085 377.701 397.075 377.03 397.261 376.372 397.62 375.805 398.005 375.244 398.535 374.797 399.153 374.513 399.847 374.208 400.6 374.055 401.359 374.065 402.136 374.048 402.908 374.208 403.616 374.53 404.24 374.814 404.776 375.261 405.167 375.823 405.535 376.391 405.727 377.058 405.718 377.735L404.098 377.735C404.109 377.318 403.988 376.908 403.754 376.563 403.516 376.212 403.18 375.936 402.789 375.771 401.895 375.373 400.874 375.373 399.98 375.771 399.589 375.936 399.253 376.212 399.015 376.563 398.786 376.911 398.665 377.318 398.671 377.735 398.655 378.224 398.821 378.703 399.136 379.079 399.494 379.458 399.966 379.712 400.48 379.803L402.927 380.285C403.507 380.399 404.054 380.64 404.529 380.992 404.989 381.329 405.361 381.772 405.615 382.284 406.202 383.449 406.13 384.839 405.425 385.937 404.993 386.545 404.395 387.017 403.702 387.298 402.954 387.631 402.143 387.796 401.324 387.781 400.54 387.777 399.767 387.614 399.05 387.298Z" fill="#000000" fill-rule="nonzero" fill-opacity="1" transform="matrix(1.00373 0 0 1 267.148 164)"/><path d="M420.606 383.507C420.064 385.063 418.939 386.349 417.47 387.091L420.226 390.538 418.245 390.538 415.953 387.695C415.472 387.798 414.981 387.85 414.489 387.85 413.319 387.867 412.166 387.557 411.163 386.954 410.167 386.363 409.35 385.511 408.802 384.49 407.653 382.293 407.653 379.674 408.802 377.477 410.538 374.335 414.489 373.197 417.63 374.932 418.702 375.523 419.584 376.405 420.175 377.477 420.75 378.533 421.047 379.72 421.036 380.923 421.047 381.803 420.9 382.679 420.606 383.507ZM410.267 383.731C410.655 384.521 411.251 385.187 411.99 385.661 413.541 386.581 415.471 386.581 417.022 385.661 417.761 385.187 418.357 384.521 418.745 383.731 419.174 382.863 419.391 381.908 419.382 380.94 419.403 379.967 419.184 379.002 418.745 378.131 418.36 377.341 417.764 376.672 417.022 376.202 416.25 375.743 415.369 375.505 414.471 375.512 413.582 375.502 412.71 375.748 411.956 376.219 411.22 376.691 410.625 377.351 410.233 378.131 409.381 379.901 409.381 381.962 410.233 383.731Z" fill="#000000" fill-rule="nonzero" fill-opacity="1" transform="matrix(1.00373 0 0 1 267.148 164)"/><path d="M423.724 387.574 423.724 374.306 425.275 374.306 425.275 386.092 432.047 386.092 432.047 387.574Z" fill="#000000" fill-rule="nonzero" fill-opacity="1" transform="matrix(1.00373 0 0 1 267.148 164)"/><path d="M434.218 387.574 434.218 374.306 438.922 374.306C440.078 374.285 441.221 374.57 442.23 375.133 443.183 375.695 443.959 376.513 444.47 377.494 445.551 379.665 445.551 382.215 444.47 384.386 443.959 385.362 443.181 386.175 442.23 386.73 441.221 387.298 440.08 387.589 438.922 387.574ZM438.922 386.092C439.78 386.111 440.628 385.891 441.369 385.455 442.103 385.019 442.701 384.386 443.092 383.628 443.495 382.791 443.697 381.869 443.678 380.94 443.7 380.01 443.498 379.088 443.092 378.252 442.706 377.49 442.108 376.855 441.369 376.426 440.63 375.984 439.782 375.757 438.922 375.771L435.786 375.771 435.786 386.109Z" fill="#000000" fill-rule="nonzero" fill-opacity="1" transform="matrix(1.00373 0 0 1 267.148 164)"/><path d="M456.032 383.094 448.33 383.094C448.389 383.699 448.571 384.285 448.864 384.817 449.131 385.306 449.524 385.716 450.001 386.006 450.491 386.299 451.051 386.449 451.621 386.437 452.014 386.435 452.403 386.371 452.776 386.247 453.134 386.132 453.466 385.951 453.758 385.713 454.016 385.508 454.218 385.243 454.344 384.938L455.808 384.938C455.698 385.486 455.427 385.989 455.033 386.385 454.595 386.828 454.066 387.169 453.482 387.384 452.858 387.641 452.191 387.769 451.518 387.763 450.653 387.774 449.8 387.548 449.054 387.109 448.321 386.68 447.723 386.052 447.331 385.299 446.922 384.481 446.715 383.578 446.728 382.663 446.715 381.764 446.929 380.875 447.348 380.079 448.156 378.545 449.75 377.59 451.483 377.597 452.303 377.585 453.108 377.818 453.792 378.269 454.478 378.688 455.036 379.282 455.412 379.992 455.805 380.802 456.006 381.693 455.998 382.594ZM449.416 379.648C448.837 380.206 448.47 380.95 448.382 381.75L454.447 381.75C454.352 380.971 454.014 380.242 453.482 379.665 452.967 379.15 452.262 378.871 451.535 378.89 450.747 378.891 449.989 379.193 449.416 379.734Z" fill="#000000" fill-rule="nonzero" fill-opacity="1" transform="matrix(1.00373 0 0 1 267.148 164)"/><path d="M459.633 387.574 458.117 387.574 458.117 374.306 459.633 374.306Z" fill="#000000" fill-rule="nonzero" fill-opacity="1" transform="matrix(1.00373 0 0 1 267.148 164)"/><path d="M462.408 376.098 462.408 374.375 464.131 374.375 464.131 376.098ZM464.027 387.574 462.511 387.574 462.511 377.873 464.027 377.873Z" fill="#000000" fill-rule="nonzero" fill-opacity="1" transform="matrix(1.00373 0 0 1 267.148 164)"/><path d="M473.849 377.873 475.314 377.873 475.314 386.799C475.329 387.557 475.145 388.306 474.779 388.97 474.421 389.574 473.885 390.055 473.246 390.348 472.507 390.688 471.699 390.853 470.885 390.831 470.129 390.844 469.379 390.705 468.68 390.417 468.07 390.178 467.534 389.778 467.129 389.263 466.738 388.766 466.498 388.168 466.44 387.539L467.956 387.539C468.039 387.92 468.223 388.272 468.49 388.556 468.766 388.871 469.116 389.114 469.507 389.263 469.944 389.438 470.413 389.526 470.885 389.521 471.664 389.568 472.431 389.307 473.022 388.797 473.546 388.261 473.821 387.529 473.78 386.781L473.78 386.109 473.78 385.11C473.427 385.625 472.946 386.04 472.384 386.316 471.076 386.919 469.558 386.861 468.301 386.161 467.649 385.779 467.124 385.215 466.784 384.541 466.035 383.068 466.035 381.328 466.784 379.855 467.124 379.181 467.649 378.617 468.301 378.235 469.57 377.528 471.104 377.477 472.419 378.097 472.984 378.39 473.468 378.815 473.832 379.338ZM472.333 385.024C472.791 384.764 473.163 384.374 473.401 383.904 473.93 382.817 473.93 381.545 473.401 380.458 473.163 379.987 472.791 379.598 472.333 379.338 471.373 378.81 470.208 378.81 469.248 379.338 468.8 379.6 468.44 379.989 468.214 380.458 467.685 381.545 467.685 382.817 468.214 383.904 468.445 384.369 468.804 384.757 469.248 385.024 470.208 385.551 471.373 385.551 472.333 385.024Z" fill="#000000" fill-rule="nonzero" fill-opacity="1" transform="matrix(1.00373 0 0 1 267.148 164)"/><path d="M484.549 378.114C485.096 378.416 485.535 378.879 485.807 379.441 486.114 380.061 486.267 380.747 486.255 381.44L486.255 387.574 484.739 387.574 484.739 381.509C484.78 380.821 484.56 380.142 484.118 379.613 483.674 379.141 483.043 378.89 482.395 378.924 481.882 378.915 481.375 379.046 480.931 379.303 480.507 379.567 480.171 379.951 479.966 380.406 479.709 380.942 479.59 381.535 479.621 382.129L479.621 387.643 478.105 387.643 478.105 374.375 479.621 374.375 479.621 377.356 479.621 379.269C479.895 378.731 480.328 378.292 480.862 378.011 481.432 377.702 482.073 377.547 482.723 377.563 483.371 377.577 484.001 377.768 484.549 378.114Z" fill="#000000" fill-rule="nonzero" fill-opacity="1" transform="matrix(1.00373 0 0 1 267.148 164)"/><path d="M491.511 387.574C490.883 387.622 490.263 387.417 489.787 387.005 489.367 386.611 489.146 386.047 489.184 385.472L489.184 379.217 487.461 379.217 487.461 377.873 488.512 377.873C488.94 377.883 489.296 377.544 489.305 377.117 489.307 377.098 489.305 377.08 489.305 377.063L489.305 375.443 490.683 375.443 490.683 377.873 493.01 377.873 493.01 379.217 490.735 379.217 490.735 385.368C490.714 385.598 490.795 385.825 490.959 385.989 491.125 386.151 491.349 386.239 491.579 386.23L493.061 386.23 493.061 387.574Z" fill="#000000" fill-rule="nonzero" fill-opacity="1" transform="matrix(1.00373 0 0 1 267.148 164)"/><path d="M715.874 338.104C729.197 338.104 739.997 348.904 739.997 362.227L739.997 384.938C739.997 398.26 729.197 409.061 715.874 409.061L590.485 409.061C577.162 409.061 566.361 398.26 566.361 384.938L566.361 362.227C566.361 348.904 577.162 338.104 590.485 338.104Z" fill="#F3F3F3" fill-rule="nonzero" fill-opacity="1" transform="matrix(1.00373 0 0 1 267.148 164)"/><path d="M585.746 380.664 584.247 380.664 584.247 367.431 585.746 367.431 585.746 375.461 590.123 370.981 592.018 370.981 587.573 375.633 592.277 380.716 590.347 380.716 585.832 375.823Z" fill="#000000" fill-rule="nonzero" fill-opacity="1" transform="matrix(1.00373 0 0 1 267.148 164)"/><path d="M595.206 380.234C594.491 379.818 593.898 379.226 593.483 378.51 592.668 376.884 592.668 374.968 593.483 373.341 594.884 371.017 597.894 370.248 600.237 371.618 600.952 372.032 601.547 372.626 601.96 373.341 602.398 374.137 602.619 375.035 602.598 375.943 602.607 376.849 602.388 377.744 601.96 378.545 601.549 379.262 600.954 379.856 600.237 380.268 598.683 381.126 596.795 381.126 595.24 380.268ZM599.41 379.027C599.922 378.724 600.33 378.274 600.582 377.735 600.873 377.141 601.021 376.484 601.013 375.823 601.02 375.154 600.871 374.494 600.582 373.893 600.32 373.36 599.915 372.912 599.41 372.6 598.888 372.295 598.292 372.14 597.687 372.152 597.082 372.135 596.484 372.292 595.964 372.6 595.459 372.912 595.054 373.36 594.792 373.893 594.494 374.492 594.348 375.154 594.362 375.823 594.344 376.486 594.493 377.142 594.792 377.735 595.044 378.274 595.452 378.724 595.964 379.027 596.479 379.35 597.079 379.512 597.687 379.493 598.289 379.522 598.886 379.379 599.41 379.079Z" fill="#000000" fill-rule="nonzero" fill-opacity="1" transform="matrix(1.00373 0 0 1 267.148 164)"/><path d="M607.664 380.664C607.038 380.716 606.42 380.518 605.941 380.113 605.517 379.712 605.291 379.145 605.32 378.562L605.32 372.325 603.597 372.325 603.597 370.981 604.804 370.981C605.022 370.994 605.236 370.912 605.389 370.757 605.541 370.607 605.622 370.4 605.613 370.188L605.613 368.568 606.975 368.568 606.975 370.981 609.301 370.981 609.301 372.325 606.957 372.325 606.957 378.476C606.918 378.902 607.231 379.281 607.657 379.32 607.705 379.326 607.753 379.326 607.802 379.32L609.284 379.32 609.284 380.664Z" fill="#000000" fill-rule="nonzero" fill-opacity="1" transform="matrix(1.00373 0 0 1 267.148 164)"/><path d="M613.281 380.664 611.696 380.664 611.696 367.431 613.212 367.431Z" fill="#000000" fill-rule="nonzero" fill-opacity="1" transform="matrix(1.00373 0 0 1 267.148 164)"/><path d="M616.434 369.223 616.434 367.5 618.157 367.5 618.157 369.223ZM618.054 380.664 616.538 380.664 616.538 370.981 618.054 370.981Z" fill="#000000" fill-rule="nonzero" fill-opacity="1" transform="matrix(1.00373 0 0 1 267.148 164)"/><path d="M627.755 371.222C628.298 371.529 628.735 371.99 629.013 372.549 629.314 373.178 629.463 373.868 629.444 374.565L629.444 380.664 627.927 380.664 627.927 374.668C627.972 373.967 627.743 373.276 627.29 372.738 626.844 372.268 626.215 372.016 625.567 372.049 625.067 372.032 624.573 372.151 624.137 372.394 623.728 372.616 623.397 372.959 623.189 373.376 622.953 373.846 622.834 374.366 622.844 374.892L622.844 380.664 621.328 380.664 621.328 370.981 622.793 370.981 622.793 372.462C623.075 371.927 623.506 371.484 624.033 371.187 625.215 370.591 626.607 370.591 627.789 371.187Z" fill="#000000" fill-rule="nonzero" fill-opacity="1" transform="matrix(1.00373 0 0 1 267.148 164)"/><path d="M636.491 375.633 640.023 380.595 638.3 380.595 635.63 376.787 632.993 380.595 631.27 380.595 634.802 375.598 631.46 370.912 633.183 370.912 635.647 374.358 638.111 370.912 639.834 370.912Z" fill="#000000" fill-rule="nonzero" fill-opacity="1" transform="matrix(1.00373 0 0 1 267.148 164)"/><path d="M641.712 380.664 641.712 378.579 643.78 378.579 643.78 380.664Z" fill="#000000" fill-rule="nonzero" fill-opacity="1" transform="matrix(1.00373 0 0 1 267.148 164)"/><path d="M654.773 370.981 654.773 370.981 654.773 380.664 653.308 380.664 653.308 379.079C652.96 379.658 652.459 380.128 651.861 380.44 651.248 380.771 650.558 380.937 649.862 380.923 649.025 380.926 648.201 380.701 647.484 380.268 646.752 379.83 646.156 379.198 645.761 378.442 644.957 376.812 644.957 374.902 645.761 373.272 646.156 372.516 646.752 371.884 647.484 371.446 648.201 371.013 649.025 370.788 649.862 370.791 650.558 370.777 651.248 370.943 651.861 371.274 652.454 371.601 652.952 372.077 653.308 372.652L653.308 367.483 654.773 367.483ZM651.723 379.079C652.233 378.759 652.64 378.299 652.895 377.752 653.177 377.161 653.319 376.512 653.308 375.857 653.317 375.202 653.176 374.554 652.895 373.962 652.635 373.419 652.228 372.96 651.723 372.635 651.213 372.297 650.61 372.128 650 372.152 649.388 372.126 648.785 372.295 648.277 372.635 647.781 372.966 647.383 373.424 647.123 373.962 646.842 374.554 646.7 375.202 646.709 375.857 646.699 376.512 646.84 377.161 647.123 377.752 647.378 378.293 647.777 378.752 648.277 379.079 648.785 379.419 649.388 379.587 650 379.562 650.61 379.586 651.213 379.417 651.723 379.079Z" fill="#000000" fill-rule="nonzero" fill-opacity="1" transform="matrix(1.00373 0 0 1 267.148 164)"/><path d="M663.578 371.153C664.109 371.41 664.553 371.816 664.853 372.325 665.172 372.885 665.327 373.524 665.301 374.168L665.301 380.664 663.836 380.664 663.836 379.234C663.549 379.765 663.102 380.192 662.561 380.458 661.946 380.763 661.266 380.911 660.58 380.888 659.987 380.902 659.398 380.785 658.857 380.544 658.385 380.327 657.985 379.98 657.702 379.544 657.421 379.115 657.278 378.61 657.289 378.097 657.284 377.606 657.414 377.122 657.668 376.701 657.938 376.279 658.305 375.924 658.736 375.667 659.205 375.392 659.729 375.221 660.27 375.168L663.096 374.892C663.295 374.883 663.482 374.782 663.595 374.616 663.731 374.42 663.799 374.184 663.785 373.944 663.785 373.588 663.69 373.236 663.509 372.928 663.32 372.635 663.051 372.402 662.734 372.256 662.37 372.099 661.976 372.023 661.579 372.032 661.179 372.025 660.781 372.095 660.408 372.238 660.077 372.369 659.782 372.576 659.546 372.842 659.332 373.067 659.198 373.358 659.167 373.669L657.685 373.669C657.74 373.129 657.957 372.619 658.305 372.204 658.684 371.744 659.169 371.384 659.718 371.153 660.315 370.888 660.961 370.753 661.614 370.757 662.289 370.739 662.961 370.874 663.578 371.153ZM662.389 379.372C662.825 379.167 663.19 378.836 663.44 378.424 663.699 378.013 663.831 377.532 663.819 377.046L663.819 375.943 660.511 376.288C660.054 376.319 659.627 376.515 659.305 376.839 659.007 377.156 658.841 377.575 658.839 378.011 658.834 378.323 658.926 378.629 659.098 378.89 659.265 379.158 659.512 379.37 659.805 379.493 660.14 379.641 660.504 379.718 660.873 379.717 661.398 379.725 661.919 379.606 662.389 379.372Z" fill="#000000" fill-rule="nonzero" fill-opacity="1" transform="matrix(1.00373 0 0 1 267.148 164)"/><path d="M670.936 380.664C670.31 380.716 669.692 380.518 669.213 380.113 668.789 379.712 668.563 379.145 668.592 378.562L668.592 372.325 666.869 372.325 666.869 370.981 667.92 370.981C668.139 370.991 668.351 370.91 668.506 370.757 668.658 370.607 668.739 370.4 668.73 370.188L668.73 368.568 670.091 368.568 670.091 370.981 672.417 370.981 672.417 372.325 670.074 372.325 670.074 378.476C670.034 378.902 670.348 379.281 670.774 379.32 670.822 379.326 670.87 379.326 670.918 379.32L672.4 379.32 672.4 380.664Z" fill="#000000" fill-rule="nonzero" fill-opacity="1" transform="matrix(1.00373 0 0 1 267.148 164)"/><path d="M683.497 376.202 675.829 376.202C675.874 376.806 676.051 377.394 676.346 377.925 676.625 378.412 677.022 378.821 677.501 379.114 677.986 379.394 678.541 379.537 679.103 379.527 679.496 379.534 679.887 379.47 680.258 379.338 680.614 379.229 680.948 379.053 681.24 378.821 681.495 378.612 681.695 378.347 681.826 378.045L683.29 378.045C683.168 378.585 682.899 379.079 682.515 379.475 682.074 379.918 681.546 380.265 680.964 380.492 680.339 380.737 679.672 380.859 679 380.854 678.138 380.873 677.29 380.645 676.553 380.199 675.827 379.799 675.23 379.201 674.83 378.476 674.42 377.664 674.213 376.765 674.227 375.857 674.215 374.958 674.428 374.068 674.847 373.272 675.257 372.554 675.852 371.959 676.57 371.549 677.304 371.113 678.145 370.886 679 370.894 679.816 370.884 680.619 371.112 681.309 371.549 682.001 372.002 682.561 372.633 682.928 373.376 683.316 374.182 683.511 375.066 683.497 375.96ZM676.915 372.859C676.332 373.41 675.96 374.148 675.864 374.944L681.929 374.944C681.834 374.165 681.496 373.436 680.964 372.859 680.449 372.344 679.744 372.064 679.017 372.083 678.241 372.058 677.487 372.335 676.915 372.859Z" fill="#000000" fill-rule="nonzero" fill-opacity="1" transform="matrix(1.00373 0 0 1 267.148 164)"/><path d="M688.563 380.664C687.939 380.709 687.322 380.511 686.84 380.113 686.428 379.705 686.209 379.141 686.237 378.562L686.237 372.325 684.514 372.325 684.514 370.981 685.565 370.981C685.783 370.991 685.995 370.91 686.15 370.757 686.293 370.602 686.373 370.398 686.374 370.188L686.374 368.568 687.736 368.568 687.736 370.981 690.062 370.981 690.062 372.325 687.718 372.325 687.718 378.476C687.679 378.902 687.992 379.281 688.418 379.32 688.466 379.326 688.515 379.326 688.563 379.32L690.045 379.32 690.045 380.664Z" fill="#000000" fill-rule="nonzero" fill-opacity="1" transform="matrix(1.00373 0 0 1 267.148 164)"/><path d="M692.578 369.223 692.578 367.5 694.301 367.5 694.301 369.223ZM694.197 380.664 692.681 380.664 692.681 370.981 694.197 370.981Z" fill="#000000" fill-rule="nonzero" fill-opacity="1" transform="matrix(1.00373 0 0 1 267.148 164)"/><path d="M710.084 371.239C710.613 371.553 711.037 372.014 711.307 372.566 711.607 373.19 711.754 373.874 711.738 374.565L711.738 380.664 710.222 380.664 710.222 374.616C710.267 373.934 710.058 373.259 709.636 372.721 709.221 372.259 708.62 372.011 707.999 372.049 707.501 372.032 707.008 372.164 706.586 372.428 706.181 372.693 705.864 373.071 705.673 373.514 705.434 374.055 705.322 374.646 705.346 375.237L705.346 380.733 703.829 380.733 703.829 374.685C703.874 373.999 703.659 373.322 703.226 372.79 702.783 372.316 702.149 372.07 701.503 372.118 700.507 372.073 699.589 372.659 699.211 373.582 698.987 374.129 698.882 374.716 698.901 375.306L698.901 380.802 697.385 380.802 697.385 370.981 698.85 370.981 698.85 372.411C699.137 371.909 699.546 371.489 700.039 371.187 700.562 370.891 701.159 370.741 701.762 370.757 702.43 370.741 703.088 370.92 703.657 371.274 704.198 371.608 704.629 372.094 704.898 372.669 705.21 372.085 705.673 371.598 706.242 371.256 706.828 370.919 707.494 370.746 708.172 370.757 708.842 370.727 709.507 370.896 710.084 371.239Z" fill="#000000" fill-rule="nonzero" fill-opacity="1" transform="matrix(1.00373 0 0 1 267.148 164)"/><path d="M723.214 376.202 715.546 376.202C715.591 376.806 715.769 377.394 716.063 377.925 716.342 378.412 716.739 378.821 717.218 379.114 717.704 379.394 718.258 379.537 718.82 379.527 719.213 379.534 719.604 379.47 719.975 379.338 720.331 379.229 720.666 379.053 720.957 378.821 721.212 378.612 721.412 378.347 721.543 378.045L723.007 378.045C722.885 378.585 722.616 379.079 722.232 379.475 721.791 379.918 721.264 380.265 720.681 380.492 720.054 380.735 719.389 380.857 718.717 380.854 717.855 380.873 717.008 380.645 716.27 380.199 715.545 379.799 714.947 379.201 714.547 378.476 714.137 377.664 713.93 376.765 713.944 375.857 713.932 374.958 714.145 374.068 714.564 373.272 714.974 372.554 715.569 371.959 716.287 371.549 717.021 371.113 717.862 370.886 718.717 370.894 719.534 370.884 720.336 371.112 721.026 371.549 721.718 372.002 722.278 372.633 722.645 373.376 723.033 374.182 723.228 375.066 723.214 375.96ZM716.632 372.859C716.049 373.41 715.677 374.148 715.581 374.944L721.646 374.944C721.551 374.165 721.214 373.436 720.681 372.859 720.166 372.344 719.461 372.064 718.734 372.083 717.959 372.058 717.204 372.335 716.632 372.859Z" fill="#000000" fill-rule="nonzero" fill-opacity="1" transform="matrix(1.00373 0 0 1 267.148 164)"/><path d="M1009.73 139.501C1023.05 139.501 1033.85 150.301 1033.85 163.624L1033.85 224.656C1033.85 237.979 1023.05 248.779 1009.73 248.779L768.893 248.779C755.57 248.779 744.77 237.979 744.77 224.656L744.77 163.624C744.77 150.301 755.57 139.501 768.893 139.501Z" fill="#F3F3F3" fill-rule="nonzero" fill-opacity="1" transform="matrix(1.00373 0 0 1 267.148 164)"/><path d="M873.605 201.325 870.659 192.538C870.366 191.642 870.176 190.815 869.987 190.108 869.797 190.901 869.607 191.676 869.366 192.503L866.454 201.325 864.731 201.325 869.073 188.557 871.038 188.557 875.432 201.325Z" fill="#000000" fill-rule="nonzero" fill-opacity="1" transform="matrix(1.00373 0 0 1 267.148 164)"/><path d="M881.755 191.521 881.755 193.106 881.411 193.106C880.635 193.065 879.879 193.353 879.326 193.899 878.783 194.514 878.511 195.321 878.568 196.139L878.568 201.308 877.051 201.308 877.051 191.607 878.568 191.607 878.568 193.554C878.797 192.953 879.191 192.427 879.705 192.038 880.21 191.685 880.811 191.497 881.428 191.504Z" fill="#000000" fill-rule="nonzero" fill-opacity="1" transform="matrix(1.00373 0 0 1 267.148 164)"/><path d="M888.148 191.521 888.148 193.106 887.786 193.106C887.016 193.07 886.266 193.358 885.718 193.899 885.176 194.514 884.903 195.321 884.96 196.139L884.96 201.308 883.444 201.308 883.444 191.607 884.96 191.607 884.96 193.554C885.182 192.95 885.579 192.422 886.097 192.038 886.602 191.685 887.204 191.497 887.821 191.504Z" fill="#000000" fill-rule="nonzero" fill-opacity="1" transform="matrix(1.00373 0 0 1 267.148 164)"/><path d="M891.37 200.895C890.658 200.476 890.066 199.883 889.647 199.172 888.817 197.548 888.817 195.626 889.647 194.002 890.042 193.251 890.638 192.624 891.37 192.193 893.682 190.813 896.677 191.571 898.056 193.883 898.08 193.923 898.102 193.963 898.125 194.002 898.545 194.804 898.759 195.7 898.745 196.604 898.762 197.517 898.543 198.42 898.107 199.223 897.696 199.94 897.101 200.535 896.384 200.946 894.83 201.804 892.942 201.804 891.387 200.946ZM895.574 199.689C896.079 199.377 896.484 198.929 896.746 198.396 897.048 197.798 897.196 197.135 897.177 196.466 897.191 195.798 897.044 195.136 896.746 194.537 895.917 192.941 893.951 192.317 892.356 193.146 892.295 193.177 892.237 193.21 892.18 193.244 891.68 193.561 891.275 194.008 891.008 194.537 890.724 195.14 890.583 195.8 890.595 196.466 890.579 197.133 890.72 197.795 891.008 198.396 891.275 198.925 891.68 199.372 892.18 199.689 893.24 200.33 894.566 200.33 895.626 199.689Z" fill="#000000" fill-rule="nonzero" fill-opacity="1" transform="matrix(1.00373 0 0 1 267.148 164)"/><path d="M904.345 201.325 902.777 201.325 899.589 191.624 901.174 191.624 903.397 198.758 903.604 199.533 903.794 198.758 906.102 191.624 907.653 191.624 909.962 198.758 910.186 199.533 910.376 198.758 912.53 191.624 914.115 191.624 910.91 201.325 909.325 201.325 907.05 193.865 906.878 193.244 906.706 193.847Z" fill="#000000" fill-rule="nonzero" fill-opacity="1" transform="matrix(1.00373 0 0 1 267.148 164)"/><path d="M873.416 337.725C872.432 337.124 871.624 336.274 871.072 335.261 869.923 333.064 869.923 330.445 871.072 328.248 872.189 326.151 874.384 324.855 876.758 324.888 879.131 324.866 881.319 326.16 882.445 328.248 883.594 330.445 883.594 333.064 882.445 335.261 880.685 338.419 876.698 339.555 873.538 337.796 873.497 337.772 873.457 337.749 873.416 337.725ZM879.274 336.484C880.02 336.011 880.616 335.335 880.997 334.537 881.443 333.676 881.667 332.716 881.652 331.746 881.661 330.778 881.443 329.821 881.014 328.955 880.213 327.323 878.542 326.303 876.724 326.335 875.831 326.322 874.954 326.561 874.191 327.025 873.457 327.505 872.864 328.172 872.468 328.955 871.617 330.724 871.617 332.785 872.468 334.555 872.864 335.337 873.457 336.004 874.191 336.484 874.954 336.948 875.831 337.187 876.724 337.174 877.623 337.193 878.507 336.953 879.274 336.484Z" fill="#000000" fill-rule="nonzero" fill-opacity="1" transform="matrix(1.00373 0 0 1 267.148 164)"/><path d="M887.131 338.38 885.667 338.38 885.667 325.112 887.183 325.112 887.183 333.159 891.56 328.679 893.455 328.679 888.923 333.297 893.627 338.38 891.698 338.38 887.183 333.486Z" fill="#000000" fill-rule="nonzero" fill-opacity="1" transform="matrix(1.00373 0 0 1 267.148 164)"/><path d="M894.816 326.921 894.816 325.198 896.539 325.198 896.539 326.921ZM896.436 338.38 894.92 338.38 894.92 328.679 896.436 328.679Z" fill="#000000" fill-rule="nonzero" fill-opacity="1" transform="matrix(1.00373 0 0 1 267.148 164)"/><path d="M900.916 337.949C900.199 337.537 899.605 336.943 899.193 336.226 898.378 334.599 898.378 332.683 899.193 331.057 899.596 330.307 900.191 329.676 900.916 329.23 902.47 328.372 904.359 328.372 905.913 329.23 906.638 329.676 907.233 330.307 907.636 331.057 908.474 332.678 908.474 334.605 907.636 336.226 907.224 336.943 906.63 337.537 905.913 337.949 905.151 338.399 904.281 338.631 903.397 338.621 902.524 338.635 901.664 338.402 900.916 337.949ZM905.12 336.76C905.615 336.436 906.018 335.992 906.292 335.468 906.576 334.865 906.718 334.205 906.706 333.538 906.719 332.871 906.578 332.211 906.292 331.608 905.463 330.013 903.497 329.389 901.902 330.218 901.841 330.249 901.783 330.281 901.726 330.316 901.214 330.619 900.806 331.069 900.554 331.608 900.254 332.206 900.106 332.869 900.123 333.538 900.108 334.206 900.256 334.868 900.554 335.468 900.816 336 901.221 336.448 901.726 336.76 902.792 337.375 904.105 337.375 905.172 336.76Z" fill="#000000" fill-rule="nonzero" fill-opacity="1" transform="matrix(1.00373 0 0 1 267.148 164)"/><path d="M22.8481 199.878 21.3318 199.878 21.3318 186.645 22.8481 186.645 22.8481 194.709 27.2075 190.246 29.1029 190.246 24.5712 194.847 29.2925 199.878 27.3454 199.878 22.8481 194.985Z" fill="#000000" fill-rule="nonzero" fill-opacity="1" transform="matrix(1.00373 0 0 1 267.148 164)"/><path d="M32.3079 199.516C31.5819 199.079 30.987 198.453 30.5848 197.707 29.7477 196.086 29.7477 194.159 30.5848 192.538 30.9904 191.816 31.5864 191.22 32.3079 190.815 33.863 189.957 35.7497 189.957 37.3048 190.815 38.0263 191.22 38.6223 191.816 39.0279 192.538 39.865 194.159 39.865 196.086 39.0279 197.707 38.1771 199.254 36.5381 200.204 34.7719 200.171 33.9062 200.181 33.0543 199.954 32.3079 199.516ZM36.495 198.31C36.9993 197.998 37.4055 197.55 37.6667 197.018 37.9662 196.425 38.1142 195.769 38.0975 195.105 38.1142 194.437 37.9662 193.773 37.6667 193.175 37.4055 192.643 36.9993 192.195 36.495 191.883 35.438 191.233 34.1057 191.233 33.0488 191.883 32.5445 192.195 32.1383 192.643 31.8771 193.175 31.5776 193.773 31.4296 194.437 31.4463 195.105 31.4296 195.769 31.5776 196.425 31.8771 197.018 32.1383 197.55 32.5445 197.998 33.0488 198.31 34.1057 198.96 35.438 198.96 36.495 198.31Z" fill="#000000" fill-rule="nonzero" fill-opacity="1" transform="matrix(1.00373 0 0 1 267.148 164)"/><path d="M44.8003 199.878C44.1722 199.933 43.5488 199.728 43.0772 199.309 42.6507 198.917 42.4229 198.355 42.4569 197.776L42.4569 191.607 40.7338 191.607 40.7338 190.263 41.7849 190.263C41.9965 190.265 42.2005 190.186 42.3535 190.039 42.5074 189.884 42.5887 189.672 42.5775 189.453L42.5775 187.816 43.9387 187.816 43.9387 190.246 46.2821 190.246 46.2821 191.59 43.9904 191.59 43.9904 197.724C43.9797 197.96 44.0671 198.191 44.2316 198.362 44.4033 198.512 44.6245 198.591 44.852 198.586L46.3166 198.586 46.3166 199.878Z" fill="#000000" fill-rule="nonzero" fill-opacity="1" transform="matrix(1.00373 0 0 1 267.148 164)"/><path d="M50.3658 199.878 48.8667 199.878 48.8667 186.645 50.3658 186.645Z" fill="#000000" fill-rule="nonzero" fill-opacity="1" transform="matrix(1.00373 0 0 1 267.148 164)"/><path d="M53.5191 188.506 53.5191 186.783 55.2422 186.783 55.2422 188.506ZM55.1388 199.878 53.6225 199.878 53.6225 190.194 55.1388 190.194Z" fill="#000000" fill-rule="nonzero" fill-opacity="1" transform="matrix(1.00373 0 0 1 267.148 164)"/><path d="M64.8398 190.504C65.3822 190.811 65.8204 191.273 66.0976 191.831 66.399 192.453 66.5467 193.139 66.5284 193.83L66.5284 199.878 65.0293 199.878 65.0293 193.882C65.0686 193.18 64.8408 192.491 64.3918 191.952 63.9432 191.483 63.3171 191.226 62.6687 191.245 62.1704 191.237 61.6782 191.356 61.2385 191.59 60.8322 191.824 60.5029 192.171 60.2908 192.589 60.056 193.053 59.9378 193.568 59.9462 194.089L59.9462 199.878 58.4471 199.878 58.4471 190.194 59.8945 190.194 59.8945 191.676C60.1721 191.137 60.6041 190.694 61.1351 190.401 61.7087 190.101 62.3492 189.953 62.9961 189.97 63.6467 189.984 64.2825 190.168 64.8398 190.504Z" fill="#000000" fill-rule="nonzero" fill-opacity="1" transform="matrix(1.00373 0 0 1 267.148 164)"/><path d="M73.593 194.985 77.0392 199.947 75.3161 199.947 72.6453 196.139 70.0779 199.878 68.3549 199.878 71.801 194.881 68.4582 190.194 70.1813 190.194 72.6626 193.641 75.1094 190.194 76.8325 190.194Z" fill="#000000" fill-rule="nonzero" fill-opacity="1" transform="matrix(1.00373 0 0 1 267.148 164)"/><path d="M78.7968 199.878 78.7968 197.793 80.8817 197.793 80.8817 199.878Z" fill="#000000" fill-rule="nonzero" fill-opacity="1" transform="matrix(1.00373 0 0 1 267.148 164)"/><path d="M84.8276 199.878C84.271 199.67 83.7823 199.311 83.4146 198.844 83.0891 198.412 82.9137 197.886 82.9149 197.345L84.4313 197.345C84.4397 197.66 84.5552 197.965 84.7586 198.207 84.9916 198.475 85.2876 198.682 85.6202 198.81 86.0175 198.955 86.4381 199.025 86.8608 199.017 87.4689 199.061 88.0749 198.905 88.5839 198.569 88.9704 198.276 89.1892 197.812 89.1697 197.328 89.1856 196.961 89.0557 196.601 88.8079 196.329 88.5145 196.055 88.139 195.886 87.7396 195.846L86.0165 195.57C85.2725 195.484 84.5769 195.157 84.035 194.64 83.5863 194.178 83.3331 193.561 83.3285 192.917 83.3235 192.41 83.4805 191.916 83.7765 191.504 84.1009 191.075 84.5357 190.741 85.0343 190.539 85.6059 190.296 86.2228 190.179 86.8436 190.194 87.4811 190.179 88.1147 190.296 88.7045 190.539 89.2149 190.746 89.6651 191.078 90.0141 191.504 90.3254 191.911 90.5003 192.405 90.5138 192.917L88.9113 192.917C88.9003 192.639 88.7972 192.372 88.6184 192.159 88.4007 191.919 88.129 191.736 87.8257 191.624 87.4803 191.49 87.111 191.425 86.7402 191.435 86.3821 191.426 86.0256 191.485 85.6891 191.607 85.3977 191.705 85.1405 191.885 84.9482 192.124 84.7769 192.333 84.6852 192.595 84.6897 192.865 84.6749 193.205 84.7995 193.534 85.0343 193.778 85.3099 194.032 85.6607 194.19 86.0337 194.226L87.7568 194.519C88.5188 194.609 89.2319 194.941 89.7901 195.467 90.2624 195.977 90.516 196.651 90.4965 197.345 90.5065 197.9 90.3506 198.446 90.0485 198.913 89.7239 199.373 89.2759 199.732 88.7562 199.947 88.1485 200.212 87.4896 200.343 86.8263 200.326 86.1369 200.312 85.4574 200.159 84.8276 199.878Z" fill="#000000" fill-rule="nonzero" fill-opacity="1" transform="matrix(1.00373 0 0 1 267.148 164)"/><path d="M101.662 195.467 93.9255 195.467C93.9665 196.074 94.1431 196.661 94.4424 197.19 94.7096 197.679 95.102 198.09 95.5796 198.379 96.063 198.67 96.6181 198.818 97.1821 198.81 97.5801 198.808 97.9756 198.744 98.3538 198.62 98.705 198.501 99.0318 198.32 99.3187 198.086 99.5817 197.883 99.7891 197.616 99.9218 197.311L101.369 197.311C101.259 197.859 100.989 198.362 100.594 198.758 100.16 199.197 99.6372 199.539 99.0603 199.757 98.4374 200.014 97.7695 200.142 97.0959 200.137 96.2354 200.15 95.3882 199.923 94.6492 199.482 93.9119 199.058 93.3133 198.429 92.9261 197.673 92.5108 196.863 92.3035 195.963 92.323 195.053 92.3018 194.154 92.5094 193.265 92.9261 192.469 93.7306 190.934 95.3291 189.982 97.0615 190.005 97.8793 189.988 98.6833 190.217 99.3704 190.66 100.054 191.075 100.609 191.671 100.973 192.383 101.374 193.191 101.575 194.083 101.559 194.985ZM95.0627 192.124C94.4832 192.682 94.1174 193.427 94.0289 194.226L99.939 194.226C99.8653 193.441 99.5248 192.705 98.9741 192.141 98.4655 191.628 97.7669 191.347 97.0443 191.366 96.2914 191.361 95.5626 191.631 94.9938 192.124Z" fill="#000000" fill-rule="nonzero" fill-opacity="1" transform="matrix(1.00373 0 0 1 267.148 164)"/><path d="M108.761 190.16 108.761 191.745 108.417 191.745C107.64 191.697 106.88 191.986 106.332 192.538 105.798 193.158 105.526 193.961 105.574 194.778L105.574 199.947 104.057 199.947 104.057 190.263 105.574 190.263 105.574 192.21C105.809 191.612 106.202 191.087 106.711 190.694 107.215 190.341 107.818 190.153 108.434 190.16Z" fill="#000000" fill-rule="nonzero" fill-opacity="1" transform="matrix(1.00373 0 0 1 267.148 164)"/><path d="M110.708 188.506 110.708 186.783 112.431 186.783 112.431 188.506ZM112.328 199.947 110.812 199.947 110.812 190.263 112.328 190.263Z" fill="#000000" fill-rule="nonzero" fill-opacity="1" transform="matrix(1.00373 0 0 1 267.148 164)"/><path d="M121.167 190.436C121.704 190.691 122.153 191.099 122.46 191.607 122.771 192.171 122.926 192.807 122.908 193.451L122.908 199.878 121.426 199.878 121.426 198.431C121.15 198.968 120.709 199.403 120.168 199.671 119.553 199.975 118.872 200.123 118.187 200.102 117.592 200.116 117.002 199.992 116.463 199.74 115.999 199.52 115.601 199.18 115.309 198.758 115.033 198.326 114.89 197.822 114.895 197.311 114.896 196.818 115.033 196.335 115.292 195.915 115.551 195.484 115.912 195.122 116.343 194.864 116.82 194.595 117.349 194.431 117.894 194.381L120.719 194.089C120.915 194.078 121.097 193.983 121.219 193.83 121.349 193.63 121.409 193.394 121.391 193.158 121.408 192.798 121.312 192.443 121.116 192.141 120.926 191.848 120.657 191.616 120.34 191.469 119.984 191.306 119.596 191.223 119.203 191.228 118.801 191.22 118.402 191.295 118.031 191.452 117.7 191.573 117.404 191.774 117.17 192.038 116.953 192.271 116.815 192.567 116.774 192.882L115.309 192.882C115.364 192.338 115.58 191.823 115.929 191.4 116.31 190.949 116.787 190.591 117.325 190.349 117.929 190.091 118.581 189.962 119.238 189.97 119.909 189.97 120.57 190.129 121.167 190.436ZM119.996 198.655C120.425 198.439 120.788 198.112 121.047 197.707 121.291 197.283 121.416 196.801 121.409 196.311L121.409 195.226 118.118 195.57C117.656 195.598 117.22 195.794 116.894 196.122 116.587 196.434 116.42 196.856 116.429 197.293 116.425 197.605 116.515 197.912 116.687 198.172 116.868 198.436 117.119 198.646 117.411 198.775 117.743 198.918 118.101 198.989 118.462 198.982 118.992 198.992 119.517 198.88 119.996 198.655Z" fill="#000000" fill-rule="nonzero" fill-opacity="1" transform="matrix(1.00373 0 0 1 267.148 164)"/><path d="M127.508 199.878 126.009 199.878 126.009 186.645 127.508 186.645Z" fill="#000000" fill-rule="nonzero" fill-opacity="1" transform="matrix(1.00373 0 0 1 267.148 164)"/><path d="M130.593 188.506 130.593 186.783 132.316 186.783 132.316 188.506ZM132.212 199.947 130.696 199.947 130.696 190.263 132.212 190.263Z" fill="#000000" fill-rule="nonzero" fill-opacity="1" transform="matrix(1.00373 0 0 1 267.148 164)"/><path d="M134.642 199.878 134.642 198.569 140.569 191.573 134.9 191.573 134.9 190.229 142.344 190.229 142.344 191.538 136.417 198.534 142.327 198.534 142.327 199.878Z" fill="#000000" fill-rule="nonzero" fill-opacity="1" transform="matrix(1.00373 0 0 1 267.148 164)"/><path d="M150.374 190.436C150.908 190.687 151.353 191.096 151.649 191.607 151.974 192.166 152.135 192.805 152.114 193.451L152.114 199.878 150.632 199.878 150.632 198.431C150.35 198.97 149.903 199.404 149.357 199.671 148.742 199.976 148.062 200.124 147.376 200.102 146.781 200.121 146.19 199.997 145.653 199.74 145.185 199.525 144.786 199.184 144.498 198.758 144.223 198.326 144.079 197.822 144.085 197.311 144.079 196.82 144.21 196.335 144.464 195.915 144.729 195.482 145.096 195.122 145.532 194.864 146.002 194.593 146.525 194.43 147.065 194.381L149.891 194.089C150.087 194.078 150.269 193.983 150.391 193.83 150.528 193.634 150.594 193.398 150.581 193.158 150.584 192.8 150.488 192.448 150.305 192.141 150.115 191.848 149.846 191.616 149.529 191.469 149.167 191.307 148.773 191.225 148.375 191.228 147.973 191.22 147.574 191.295 147.203 191.452 146.877 191.581 146.582 191.781 146.342 192.038 146.129 192.272 145.997 192.569 145.963 192.882L144.481 192.882C144.536 192.338 144.752 191.823 145.101 191.4 145.484 190.946 145.968 190.585 146.514 190.349 147.112 190.091 147.758 189.962 148.409 189.97 149.092 189.965 149.766 190.125 150.374 190.436ZM149.202 198.655C149.63 198.443 149.988 198.115 150.236 197.707 150.493 197.288 150.625 196.802 150.615 196.311L150.615 195.226 147.307 195.57C146.85 195.598 146.42 195.794 146.101 196.122 145.794 196.434 145.626 196.856 145.635 197.293 145.631 197.605 145.721 197.912 145.894 198.172 146.07 198.434 146.314 198.643 146.6 198.775 146.938 198.918 147.302 198.989 147.669 198.982 148.198 198.992 148.723 198.88 149.202 198.655Z" fill="#000000" fill-rule="nonzero" fill-opacity="1" transform="matrix(1.00373 0 0 1 267.148 164)"/><path d="M157.731 199.878C157.103 199.933 156.48 199.728 156.008 199.309 155.582 198.917 155.354 198.355 155.388 197.776L155.388 191.607 153.665 191.607 153.665 190.263 154.716 190.263C154.933 190.267 155.143 190.186 155.302 190.039 155.456 189.884 155.537 189.672 155.526 189.453L155.526 187.816 156.887 187.816 156.887 190.246 159.213 190.246 159.213 191.59 156.956 191.59 156.956 197.724C156.939 197.959 157.02 198.189 157.18 198.362 157.352 198.512 157.573 198.591 157.8 198.586L159.282 198.586 159.282 199.878Z" fill="#000000" fill-rule="nonzero" fill-opacity="1" transform="matrix(1.00373 0 0 1 267.148 164)"/><path d="M161.729 188.506 161.729 186.783 163.452 186.783 163.452 188.506ZM163.349 199.878 161.832 199.878 161.832 190.194 163.349 190.194Z" fill="#000000" fill-rule="nonzero" fill-opacity="1" transform="matrix(1.00373 0 0 1 267.148 164)"/><path d="M168.191 199.516C167.469 199.073 166.875 198.45 166.467 197.707 165.63 196.086 165.63 194.159 166.467 192.538 166.874 191.817 167.47 191.221 168.191 190.815 170.482 189.419 173.472 190.144 174.867 192.438 174.888 192.471 174.909 192.503 174.928 192.538 175.765 194.159 175.765 196.086 174.928 197.707 174.073 199.261 172.428 200.211 170.655 200.171 169.79 200.176 168.939 199.95 168.191 199.516ZM172.395 198.31C172.895 197.993 173.299 197.547 173.567 197.018 173.853 196.422 173.994 195.767 173.98 195.105 173.994 194.438 173.853 193.778 173.567 193.175 173.299 192.646 172.895 192.2 172.395 191.883 171.336 191.242 170.008 191.242 168.949 191.883 168.448 192.2 168.044 192.646 167.777 193.175 167.491 193.778 167.349 194.438 167.363 195.105 167.35 195.767 167.491 196.422 167.777 197.018 168.044 197.547 168.448 197.993 168.949 198.31 170.008 198.951 171.336 198.951 172.395 198.31Z" fill="#000000" fill-rule="nonzero" fill-opacity="1" transform="matrix(1.00373 0 0 1 267.148 164)"/><path d="M184.491 190.504C185.034 190.811 185.471 191.273 185.749 191.831 186.055 192.452 186.209 193.137 186.197 193.83L186.197 199.878 184.68 199.878 184.68 193.882C184.72 193.18 184.493 192.491 184.043 191.952 183.595 191.483 182.968 191.226 182.32 191.245 181.822 191.237 181.329 191.356 180.89 191.59 180.483 191.824 180.154 192.171 179.942 192.589 179.708 193.053 179.589 193.568 179.597 194.089L179.597 199.878 178.098 199.878 178.098 190.194 179.546 190.194 179.546 191.676C179.825 191.133 180.264 190.689 180.804 190.401 181.979 189.803 183.367 189.803 184.543 190.401Z" fill="#000000" fill-rule="nonzero" fill-opacity="1" transform="matrix(1.00373 0 0 1 267.148 164)"/><path d="M94.1322 285.774 89.3593 299.042 91.0824 299.042 92.2541 295.509 98.1126 295.509 99.3877 299.042 101.111 299.042 96.1483 285.774ZM92.7365 294.148 94.8732 287.842 95.0972 287.066 95.3384 287.842 97.5956 294.148ZM109.967 289.772C109.254 289.33 108.429 289.103 107.59 289.117 106.893 289.103 106.204 289.268 105.591 289.599 104.987 289.913 104.485 290.39 104.143 290.978L104.143 289.255 102.696 289.255 102.696 302.005 104.195 302.005 104.195 297.939 104.195 297.319C104.542 297.903 105.043 298.378 105.642 298.697 106.256 299.028 106.944 299.193 107.641 299.18 108.479 299.185 109.302 298.959 110.019 298.525 110.751 298.087 111.348 297.455 111.742 296.698 112.541 295.068 112.541 293.159 111.742 291.529 111.328 290.793 110.72 290.185 109.985 289.772ZM110.243 296.095C109.984 296.633 109.586 297.091 109.089 297.422 108.58 297.762 107.977 297.93 107.366 297.905 106.755 297.925 106.153 297.756 105.642 297.422 105.149 297.088 104.752 296.629 104.488 296.095 103.936 294.886 103.936 293.497 104.488 292.287 104.742 291.746 105.142 291.288 105.642 290.96 106.153 290.626 106.755 290.457 107.366 290.478 107.977 290.452 108.58 290.621 109.089 290.96 109.593 291.283 109.994 291.743 110.243 292.287 110.795 293.497 110.795 294.886 110.243 296.095ZM120.943 289.772C119.388 288.913 117.502 288.913 115.947 289.772 115.215 290.202 114.618 290.829 114.223 291.581 113.797 292.382 113.578 293.276 113.586 294.183 113.578 295.096 113.797 295.995 114.223 296.802 115.589 299.155 118.6 299.964 120.961 298.611 121.689 298.175 122.284 297.55 122.684 296.802 123.118 295.999 123.338 295.096 123.321 294.183 123.335 293.278 123.122 292.382 122.701 291.581 122.297 290.829 121.695 290.204 120.961 289.772ZM121.305 296.113C120.477 297.708 118.511 298.332 116.915 297.503 116.855 297.472 116.797 297.439 116.739 297.405 116.239 297.088 115.834 296.641 115.567 296.113 115.282 295.509 115.14 294.849 115.154 294.183 115.142 293.516 115.283 292.856 115.567 292.253 115.834 291.724 116.239 291.278 116.739 290.96 118.241 290.023 120.218 290.481 121.155 291.984 121.209 292.07 121.259 292.161 121.305 292.253 121.603 292.852 121.751 293.514 121.736 294.183 121.758 294.849 121.616 295.513 121.323 296.113ZM125.424 285.774 126.94 285.774 126.94 299.042 125.441 299.042ZM129.059 285.774 130.576 285.774 130.576 299.042 129.059 299.042ZM141.793 291.581C141.4 290.828 140.803 290.201 140.07 289.772 138.515 288.913 136.628 288.913 135.073 289.772 134.341 290.202 133.744 290.829 133.35 291.581 132.912 292.377 132.692 293.275 132.712 294.183 132.696 295.096 132.915 295.999 133.35 296.802 134.653 299.147 137.611 299.993 139.957 298.689 140.75 298.249 141.404 297.594 141.845 296.802 142.279 295.999 142.498 295.096 142.482 294.183 142.491 293.271 142.259 292.373 141.81 291.581ZM140.414 296.113C139.586 297.708 137.62 298.332 136.024 297.503 135.964 297.472 135.906 297.439 135.848 297.405 135.348 297.088 134.943 296.641 134.676 296.113 134.39 295.509 134.249 294.849 134.263 294.183 134.251 293.516 134.392 292.856 134.676 292.253 134.943 291.724 135.348 291.278 135.848 290.96 137.35 290.023 139.327 290.481 140.264 291.984 140.318 292.07 140.369 292.161 140.414 292.253 140.712 292.852 140.86 293.514 140.845 294.183 140.867 294.849 140.725 295.513 140.432 296.113Z" fill="#000000" fill-rule="nonzero" fill-opacity="1" transform="matrix(1.00373 0 0 1 267.148 164)"/><path d="M927.951 28.3965C941.274 28.3965 952.074 39.1968 952.074 52.5197L952.074 110.536C952.074 123.859 941.274 134.659 927.951 134.659L768.893 134.659C755.57 134.659 744.77 123.859 744.77 110.536L744.77 52.5197C744.77 39.1968 755.57 28.3965 768.893 28.3965Z" fill="#F3F3F3" fill-rule="nonzero" fill-opacity="1" transform="matrix(1.00373 0 0 1 267.148 164)"/><path d="M822.223 88.515C821.558 88.211 820.991 87.7277 820.586 87.1193 820.195 86.5076 819.991 85.7947 820 85.0688L821.602 85.0688C821.595 85.5358 821.735 85.9934 821.999 86.3783 822.267 86.7781 822.645 87.0943 823.084 87.2916 823.584 87.5066 824.125 87.6124 824.669 87.6017 825.2 87.6095 825.729 87.5099 826.22 87.3088 826.654 87.1356 827.027 86.8353 827.289 86.4473 827.547 86.0797 827.68 85.6386 827.668 85.1894 827.674 84.6658 827.492 84.1573 827.151 83.7593 826.775 83.3474 826.27 83.0743 825.72 82.9839L823.394 82.5359C822.81 82.4309 822.255 82.1954 821.775 81.8466 821.325 81.5167 820.96 81.0859 820.706 80.5888 820.463 80.0837 820.339 79.5296 820.344 78.9691 820.338 78.3021 820.529 77.648 820.896 77.0909 821.27 76.5261 821.795 76.0783 822.412 75.7986 823.105 75.4831 823.858 75.3242 824.618 75.3334 825.395 75.3167 826.167 75.4757 826.875 75.7986 827.499 76.0841 828.029 76.5376 828.409 77.1081 828.784 77.6676 828.977 78.33 828.96 79.0035L827.357 79.0035C827.363 78.5928 827.242 78.1902 827.013 77.8491 826.775 77.4924 826.441 77.2113 826.048 77.0392 825.148 76.6724 824.139 76.6724 823.239 77.0392 822.848 77.205 822.512 77.4802 822.274 77.8318 822.045 78.1792 821.924 78.5872 821.93 79.0035 821.912 79.4967 822.085 79.9778 822.412 80.3475 822.762 80.7297 823.229 80.9844 823.739 81.0712L826.169 81.5537C827.309 81.7651 828.284 82.4985 828.805 83.5353 829.075 84.0686 829.211 84.6603 829.201 85.2583 829.208 85.9679 829.005 86.6635 828.615 87.2571 828.183 87.8654 827.585 88.3377 826.892 88.6184 826.143 88.9433 825.333 89.1077 824.514 89.1008 823.717 89.0748 822.934 88.8748 822.223 88.515Z" fill="#000000" fill-rule="nonzero" fill-opacity="1" transform="matrix(1.00373 0 0 1 267.148 164)"/><path d="M834.646 88.7907C834.021 88.851 833.397 88.6516 832.923 88.2393 832.501 87.8444 832.273 87.2833 832.303 86.7057L832.303 80.4682 830.58 80.4682 830.58 79.1242 831.613 79.1242C831.834 79.1331 832.049 79.0451 832.199 78.8829 832.354 78.7358 832.437 78.5276 832.423 78.3143L832.423 76.6946 833.974 76.6946 833.974 79.1242 836.317 79.1242 836.317 80.4682 833.974 80.4682 833.974 86.6023C833.965 86.8303 834.046 87.0528 834.198 87.2227 834.365 87.3801 834.589 87.4613 834.818 87.4467L836.3 87.4467 836.3 88.7907Z" fill="#000000" fill-rule="nonzero" fill-opacity="1" transform="matrix(1.00373 0 0 1 267.148 164)"/><path d="M840.35 88.3599C839.617 87.9308 839.019 87.3038 838.626 86.5507 837.784 84.9306 837.784 83.0014 838.626 81.3814 839.031 80.6599 839.628 80.0639 840.35 79.6583 841.895 78.7621 843.801 78.7621 845.346 79.6583 846.068 80.0639 846.665 80.6599 847.07 81.3814 847.912 83.0014 847.912 84.9306 847.07 86.5507 846.67 87.299 846.075 87.9245 845.346 88.3599 844.592 88.8122 843.727 89.045 842.848 89.0319 841.967 89.0486 841.102 88.8157 840.35 88.3599ZM844.537 87.171C845.042 86.8589 845.446 86.4111 845.708 85.8787 846.284 84.6623 846.284 83.2525 845.708 82.0362 845.452 81.5005 845.045 81.0514 844.537 80.7439 843.48 80.0944 842.147 80.0944 841.09 80.7439 840.582 81.0514 840.175 81.5005 839.919 82.0362 839.343 83.2525 839.343 84.6623 839.919 85.8787 840.181 86.4111 840.586 86.8589 841.09 87.171 842.157 87.7866 843.47 87.7866 844.537 87.171Z" fill="#000000" fill-rule="nonzero" fill-opacity="1" transform="matrix(1.00373 0 0 1 267.148 164)"/><path d="M854.892 79.0208 854.892 80.606 854.548 80.606C853.771 80.5581 853.011 80.8469 852.463 81.3986 851.932 82.0134 851.66 82.8102 851.705 83.6214L851.705 88.7907 850.188 88.7907 850.188 79.1242 851.705 79.1242 851.705 81.0712C851.934 80.4694 852.328 79.9442 852.842 79.5549 853.345 79.1969 853.948 79.0096 854.565 79.0208Z" fill="#000000" fill-rule="nonzero" fill-opacity="1" transform="matrix(1.00373 0 0 1 267.148 164)"/><path d="M865.369 84.3279 857.684 84.3279C857.742 84.9327 857.925 85.5189 858.218 86.051 858.757 87.0595 859.813 87.6839 860.958 87.6707 861.356 87.6695 861.752 87.6054 862.129 87.4811 862.477 87.356 862.803 87.1756 863.094 86.947 863.358 86.7431 863.565 86.4766 863.697 86.1716L865.145 86.1716C865.036 86.7157 864.767 87.2146 864.369 87.6017 863.933 88.0504 863.404 88.3976 862.819 88.6184 862.2 88.8692 861.538 88.998 860.871 88.9974 859.129 89.0391 857.517 88.0823 856.719 86.5334 856.31 85.7155 856.104 84.8114 856.116 83.8971 856.102 83.0026 856.316 82.1192 856.736 81.3297 857.146 80.6119 857.741 80.0171 858.459 79.6066 859.195 79.1541 860.043 78.921 860.906 78.9346 861.724 78.926 862.529 79.1598 863.215 79.6066 863.894 80.026 864.449 80.6213 864.817 81.3297 865.219 82.1373 865.419 83.0299 865.403 83.9316ZM858.769 80.9851C858.183 81.532 857.816 82.2728 857.735 83.07L863.783 83.07C863.696 82.2941 863.356 81.568 862.819 81.0023 862.31 80.4885 861.611 80.208 860.889 80.2269 860.112 80.1983 859.352 80.4699 858.769 80.9851Z" fill="#000000" fill-rule="nonzero" fill-opacity="1" transform="matrix(1.00373 0 0 1 267.148 164)"/><path d="M870.245 88.5667C869.609 88.2713 869.049 87.8352 868.608 87.2916 868.182 86.7404 867.909 86.0866 867.816 85.3962L869.418 85.3962C869.499 85.8304 869.695 86.235 869.987 86.5679 870.283 86.9122 870.653 87.1835 871.072 87.3605 871.513 87.5485 871.989 87.6424 872.468 87.6362 873.028 87.6531 873.583 87.5159 874.07 87.2399 874.534 86.9804 874.911 86.5912 875.156 86.1199 875.435 85.5897 875.573 84.9959 875.552 84.3968 875.573 83.7977 875.435 83.2039 875.156 82.6737 874.918 82.1985 874.548 81.8032 874.088 81.5365 873.605 81.2609 873.057 81.1238 872.502 81.1402 871.887 81.1252 871.284 81.3061 870.779 81.6571 870.278 81.9977 869.902 82.4943 869.711 83.07L868.195 83.07 868.367 75.4367 876.465 75.4367 876.465 76.8841 869.918 76.8841 869.78 81.3642C870.049 80.8715 870.464 80.4744 870.969 80.2269 871.555 79.9447 872.197 79.803 872.847 79.8134 873.629 79.7993 874.401 79.9893 875.087 80.3648 875.731 80.7392 876.259 81.2889 876.603 81.95 877.37 83.4365 877.37 85.202 876.603 86.6885 876.202 87.391 875.602 87.9601 874.88 88.3254 874.125 88.7192 873.285 88.9204 872.433 88.9113 871.687 88.9559 870.941 88.8384 870.245 88.5667Z" fill="#000000" fill-rule="nonzero" fill-opacity="1" transform="matrix(1.00373 0 0 1 267.148 164)"/></g></g></g></g></g></svg>