<svg width="989" height="421" xmlns="http://www.w3.org/2000/svg" xmlns:xlink="http://www.w3.org/1999/xlink" xml:space="preserve" overflow="hidden"><defs><clipPath id="clip0"><rect x="274" y="177" width="988" height="420"/></clipPath><clipPath id="clip1"><rect x="274" y="177" width="988" height="420"/></clipPath><clipPath id="clip2"><rect x="274" y="177" width="988" height="420"/></clipPath><radialGradient cx="201.55" cy="262.14" r="200.03" gradientUnits="userSpaceOnUse" spreadMethod="pad" id="fill3" gradientTransform="scale(1.64667 1.64667)"><stop offset="0" stop-color="#E44857" stop-opacity="1"/><stop offset="0.05" stop-color="#DA4968" stop-opacity="1"/><stop offset="0.22" stop-color="#BE4C96" stop-opacity="1"/><stop offset="0.38" stop-color="#A74EBC" stop-opacity="1"/><stop offset="0.54" stop-color="#9650D9" stop-opacity="1"/><stop offset="0.7" stop-color="#8951EE" stop-opacity="1"/><stop offset="0.85" stop-color="#8252FB" stop-opacity="1"/><stop offset="1" stop-color="#7F52FF" stop-opacity="1"/></radialGradient><radialGradient cx="302.97" cy="154.46" r="200.03" gradientUnits="userSpaceOnUse" spreadMethod="pad" id="fill4" gradientTransform="scale(1.64667 1.64667)"><stop offset="0" stop-color="#E44857" stop-opacity="1"/><stop offset="0.05" stop-color="#DA4968" stop-opacity="1"/><stop offset="0.22" stop-color="#BE4C96" stop-opacity="1"/><stop offset="0.38" stop-color="#A74EBC" stop-opacity="1"/><stop offset="0.54" stop-color="#9650D9" stop-opacity="1"/><stop offset="0.7" stop-color="#8951EE" stop-opacity="1"/><stop offset="0.85" stop-color="#8252FB" stop-opacity="1"/><stop offset="1" stop-color="#7F52FF" stop-opacity="1"/></radialGradient></defs><g transform="translate(-273 -176)"><g><g clip-path="url(#clip0)"><g clip-path="url(#clip1)"><g clip-path="url(#clip2)"><path d="M630.081 357.656C647.023 357.656 660.758 371.391 660.758 388.333L660.758 388.333C660.758 405.276 647.023 419.011 630.081 419.011L357.821 419.011C340.878 419.011 327.143 405.276 327.143 388.333 327.143 371.391 340.878 357.656 357.821 357.656Z" fill="url(#fill3)" fill-rule="nonzero" transform="matrix(1 0 0 1.00024 274 177.404)"/><path d="M356.223 396.847C354.829 395.995 353.691 394.783 352.93 393.339 351.326 390.201 351.326 386.483 352.93 383.344 354.478 380.355 357.584 378.5 360.949 378.552 363.68 378.531 366.275 379.741 368.014 381.846 368.778 382.797 369.278 383.932 369.463 385.139L367.207 385.139C367.006 384.299 366.604 383.519 366.038 382.866 364.753 381.389 362.891 380.541 360.933 380.545 359.683 380.531 358.455 380.874 357.393 381.533 356.326 382.204 355.469 383.163 354.923 384.299 353.737 386.817 353.737 389.733 354.923 392.252 355.476 393.385 356.33 394.342 357.393 395.019 358.455 395.678 359.683 396.02 360.933 396.007 362.896 396.015 364.761 395.159 366.038 393.669 366.604 393.023 367.006 392.248 367.207 391.413L369.446 391.413C369.267 392.62 368.766 393.758 367.997 394.706 367.174 395.743 366.126 396.582 364.934 397.16 362.153 398.507 358.883 398.37 356.223 396.797Z" fill="#FFFFFF" fill-rule="nonzero" fill-opacity="1" transform="matrix(1 0 0 1.00024 274 177.404)"/><path d="M374.946 397.176C373.902 396.552 373.042 395.659 372.46 394.591 371.253 392.256 371.253 389.481 372.46 387.148 373.038 386.071 373.904 385.175 374.962 384.563 377.174 383.313 379.881 383.313 382.093 384.563 383.151 385.175 384.017 386.071 384.595 387.148 385.205 388.292 385.516 389.572 385.501 390.869 385.519 392.168 385.201 393.45 384.579 394.591 383.988 395.674 383.104 396.57 382.027 397.176 379.815 398.426 377.108 398.426 374.897 397.176ZM380.94 395.529C381.648 395.072 382.218 394.428 382.587 393.669 383.01 392.821 383.219 391.882 383.196 390.935 383.219 389.983 383.01 389.038 382.587 388.185 381.445 385.898 378.666 384.971 376.38 386.112 376.25 386.176 376.123 386.247 376 386.324 375.284 386.774 374.712 387.419 374.353 388.185 373.93 389.038 373.721 389.983 373.744 390.935 373.721 391.882 373.93 392.821 374.353 393.669 374.712 394.434 375.284 395.08 376 395.529 377.495 396.384 379.329 396.384 380.825 395.529Z" fill="#FFFFFF" fill-rule="nonzero" fill-opacity="1" transform="matrix(1 0 0 1.00024 274 177.404)"/><path d="M406.546 384.299C407.3 384.754 407.906 385.417 408.291 386.209 408.719 387.097 408.933 388.073 408.917 389.058L408.917 397.785 406.727 397.785 406.727 389.14C406.786 388.165 406.494 387.202 405.903 386.423 405.304 385.761 404.439 385.404 403.549 385.452 402.832 385.434 402.128 385.628 401.523 386.012 400.945 386.387 400.492 386.926 400.222 387.559 399.898 388.307 399.74 389.116 399.761 389.931L399.761 397.785 397.604 397.785 397.604 389.14C397.658 388.157 397.347 387.191 396.731 386.423 396.116 385.758 395.233 385.401 394.327 385.452 393.621 385.43 392.926 385.626 392.335 386.012 391.77 386.394 391.329 386.93 391.067 387.559 390.756 388.31 390.604 389.117 390.622 389.931L390.622 397.785 388.465 397.785 388.465 383.937 390.54 383.937 390.54 385.979C390.929 385.264 391.497 384.663 392.187 384.233 392.941 383.813 393.794 383.603 394.657 383.624 395.602 383.604 396.534 383.854 397.341 384.348 398.121 384.829 398.745 385.527 399.136 386.357 400.604 383.782 403.868 382.865 406.463 384.299Z" fill="#FFFFFF" fill-rule="nonzero" fill-opacity="1" transform="matrix(1 0 0 1.00024 274 177.404)"/><path d="M430.752 384.299C431.506 384.754 432.112 385.417 432.497 386.209 432.925 387.097 433.139 388.073 433.123 389.058L433.123 397.785 430.949 397.785 430.949 389.14C431.017 388.164 430.724 387.197 430.126 386.423 429.528 385.76 428.662 385.402 427.771 385.452 426.348 385.425 425.049 386.257 424.478 387.559 424.153 388.307 423.995 389.116 424.017 389.931L424.017 397.785 421.86 397.785 421.86 389.14C421.914 388.157 421.603 387.191 420.987 386.423 420.371 385.758 419.488 385.401 418.583 385.452 417.876 385.43 417.181 385.626 416.59 386.012 416.025 386.394 415.584 386.93 415.322 387.559 415.018 388.312 414.871 389.119 414.894 389.931L414.894 397.785 412.721 397.785 412.721 383.937 414.812 383.937 414.812 385.979C415.194 385.259 415.764 384.656 416.458 384.233 417.213 383.813 418.066 383.603 418.928 383.624 419.874 383.604 420.806 383.854 421.613 384.348 422.393 384.829 423.017 385.527 423.407 386.357 423.847 385.524 424.507 384.829 425.318 384.348 426.174 383.861 427.15 383.627 428.133 383.673 429.047 383.635 429.953 383.853 430.752 384.299Z" fill="#FFFFFF" fill-rule="nonzero" fill-opacity="1" transform="matrix(1 0 0 1.00024 274 177.404)"/><path d="M439.166 397.176C438.122 396.552 437.262 395.659 436.68 394.591 435.473 392.256 435.473 389.481 436.68 387.148 437.264 386.076 438.13 385.182 439.182 384.563 440.266 383.932 441.501 383.607 442.756 383.624 444.006 383.606 445.236 383.93 446.313 384.563 447.371 385.175 448.238 386.071 448.815 387.148 450.022 389.481 450.022 392.256 448.815 394.591 448.211 395.671 447.322 396.565 446.247 397.176 444.035 398.426 441.328 398.426 439.117 397.176ZM445.176 395.529C445.891 395.078 446.461 394.433 446.823 393.669 447.246 392.821 447.455 391.882 447.432 390.935 447.455 389.983 447.246 389.038 446.823 388.185 446.461 387.421 445.891 386.776 445.176 386.324 444.445 385.888 443.607 385.661 442.756 385.666 441.014 385.63 439.41 386.614 438.656 388.185 438.232 389.038 438.023 389.983 438.046 390.935 438.023 391.882 438.232 392.821 438.656 393.669 439.405 395.241 441.014 396.224 442.756 396.172 443.612 396.162 444.45 395.916 445.176 395.463Z" fill="#FFFFFF" fill-rule="nonzero" fill-opacity="1" transform="matrix(1 0 0 1.00024 274 177.404)"/><path d="M461.939 384.283C462.71 384.726 463.331 385.392 463.718 386.193 464.159 387.082 464.375 388.067 464.344 389.058L464.344 397.785 462.186 397.785 462.186 389.223C462.251 388.218 461.926 387.228 461.281 386.456 460.62 385.771 459.695 385.404 458.745 385.452 458.033 385.437 457.329 385.607 456.703 385.946 456.123 386.275 455.654 386.767 455.353 387.362 455.015 388.03 454.852 388.771 454.875 389.519L454.875 397.752 452.702 397.752 452.702 383.904 454.793 383.904 454.793 386.028C455.193 385.257 455.812 384.622 456.571 384.2 458.261 383.354 460.25 383.354 461.939 384.2Z" fill="#FFFFFF" fill-rule="nonzero" fill-opacity="1" transform="matrix(1 0 0 1.00024 274 177.404)"/><path d="M477.056 397.785 474.816 397.785 474.816 378.865 477.682 378.865 484.4 394.344 484.762 395.348 485.108 394.344 491.695 378.865 494.642 378.865 494.642 397.785 492.353 397.785 492.353 382.027 485.767 397.736 483.807 397.736 477.122 382.109Z" fill="#FFFFFF" fill-rule="nonzero" fill-opacity="1" transform="matrix(1 0 0 1.00024 274 177.404)"/><path d="M508.408 383.937 510.565 383.937 510.565 397.785 508.491 397.785 508.491 395.661C508.089 396.44 507.465 397.082 506.696 397.505 505.881 397.922 504.977 398.131 504.061 398.115 503.111 398.134 502.174 397.901 501.344 397.439 500.569 397.003 499.944 396.343 499.549 395.546 499.12 394.653 498.905 393.672 498.924 392.681L498.924 383.937 501.081 383.937 501.081 392.516C501.021 393.522 501.351 394.513 502.003 395.282 502.661 395.957 503.58 396.316 504.522 396.27 505.234 396.287 505.938 396.117 506.564 395.776 507.154 395.455 507.629 394.961 507.931 394.36 508.26 393.69 508.423 392.951 508.408 392.203Z" fill="#FFFFFF" fill-rule="nonzero" fill-opacity="1" transform="matrix(1 0 0 1.00024 274 177.404)"/><path d="M516.839 397.785 514.666 397.785 514.666 378.865 516.839 378.865Z" fill="#FFFFFF" fill-rule="nonzero" fill-opacity="1" transform="matrix(1 0 0 1.00024 274 177.404)"/><path d="M524.661 397.785C523.798 397.835 522.95 397.551 522.29 396.995 521.689 396.423 521.369 395.617 521.417 394.788L521.417 385.863 518.98 385.863 518.98 383.937 520.478 383.937C520.79 383.952 521.093 383.84 521.318 383.624 521.529 383.403 521.641 383.105 521.631 382.801L521.631 380.479 523.64 380.479 523.64 383.937 526.933 383.937 526.933 385.863 523.64 385.863 523.64 394.657C523.624 394.986 523.742 395.307 523.969 395.546 524.211 395.766 524.531 395.885 524.859 395.875L526.933 395.875 526.933 397.785Z" fill="#FFFFFF" fill-rule="nonzero" fill-opacity="1" transform="matrix(1 0 0 1.00024 274 177.404)"/><path d="M529.848 381.434 529.848 378.865 532.301 378.865 532.301 381.434ZM532.153 397.785 529.996 397.785 529.996 383.937 532.153 383.937Z" fill="#FFFFFF" fill-rule="nonzero" fill-opacity="1" transform="matrix(1 0 0 1.00024 274 177.404)"/><path d="M546.693 384.563C547.711 385.197 548.536 386.096 549.081 387.164 550.25 389.491 550.25 392.231 549.081 394.558 548.538 395.626 547.711 396.526 546.693 397.16 545.672 397.8 544.488 398.131 543.285 398.115 542.292 398.128 541.312 397.891 540.436 397.423 539.593 396.959 538.883 396.284 538.378 395.463L538.378 396.336 538.378 402.149 536.237 402.149 536.237 383.937 538.328 383.937 538.328 386.275C538.829 385.447 539.539 384.765 540.387 384.299 541.266 383.845 542.244 383.612 543.235 383.624 544.454 383.601 545.654 383.927 546.693 384.563ZM545.442 395.48C546.157 395.007 546.726 394.345 547.089 393.57 547.492 392.728 547.696 391.803 547.681 390.869 547.696 389.931 547.494 389 547.089 388.152 546.725 387.382 546.155 386.726 545.442 386.259 544.744 385.798 543.924 385.555 543.087 385.567 542.241 385.555 541.409 385.796 540.699 386.259 539.986 386.726 539.417 387.382 539.053 388.152 538.648 389 538.445 389.931 538.46 390.869 538.445 391.803 538.649 392.728 539.053 393.57 539.415 394.345 539.985 395.007 540.699 395.48 541.409 395.943 542.241 396.183 543.087 396.172 543.912 396.176 544.721 395.936 545.409 395.48Z" fill="#FFFFFF" fill-rule="nonzero" fill-opacity="1" transform="matrix(1 0 0 1.00024 274 177.404)"/><path d="M555.058 397.785 552.901 397.785 552.901 378.865 555.058 378.865Z" fill="#FFFFFF" fill-rule="nonzero" fill-opacity="1" transform="matrix(1 0 0 1.00024 274 177.404)"/><path d="M567.161 384.184C567.919 384.543 568.553 385.116 568.989 385.83 569.45 386.629 569.679 387.543 569.648 388.465L569.648 397.752 567.54 397.752 567.54 395.694C567.124 396.456 566.486 397.077 565.712 397.472 564.831 397.902 563.86 398.111 562.88 398.082 562.045 398.1 561.217 397.925 560.459 397.571 559.786 397.267 559.215 396.776 558.813 396.155 558.413 395.544 558.207 394.826 558.22 394.097 558.218 393.394 558.413 392.704 558.78 392.104 559.15 391.485 559.671 390.97 560.295 390.606 560.967 390.204 561.721 389.962 562.501 389.898L566.536 389.486C566.817 389.475 567.077 389.335 567.244 389.107 567.443 388.824 567.535 388.48 567.507 388.136 567.543 387.103 566.951 386.153 566.009 385.732 565.492 385.498 564.929 385.386 564.362 385.402 563.797 385.397 563.239 385.504 562.715 385.715 562.244 385.896 561.823 386.184 561.48 386.555 561.179 386.889 560.99 387.309 560.937 387.757L558.829 387.757C558.91 386.981 559.219 386.249 559.718 385.649 560.259 384.992 560.947 384.474 561.727 384.134 562.585 383.769 563.511 383.583 564.444 383.591 565.383 383.583 566.312 383.785 567.161 384.184ZM565.515 395.941C566.132 395.643 566.653 395.174 567.013 394.591 567.367 393.993 567.55 393.31 567.54 392.615L567.54 390.968 562.831 391.462C562.172 391.507 561.553 391.786 561.085 392.252 560.657 392.692 560.42 393.285 560.427 393.899 560.415 394.344 560.542 394.78 560.789 395.151 561.041 395.528 561.395 395.824 561.81 396.007 562.284 396.224 562.803 396.331 563.325 396.32 564.064 396.364 564.802 396.236 565.482 395.941Z" fill="#FFFFFF" fill-rule="nonzero" fill-opacity="1" transform="matrix(1 0 0 1.00024 274 177.404)"/><path d="M577.14 397.785C576.277 397.835 575.429 397.551 574.769 396.995 574.175 396.419 573.857 395.615 573.896 394.788L573.896 385.863 571.393 385.863 571.393 383.937 573.04 383.937C573.346 383.95 573.643 383.836 573.863 383.624 574.074 383.403 574.186 383.105 574.176 382.801L574.176 380.479 576.119 380.479 576.119 383.937 579.413 383.937 579.413 385.863 576.119 385.863 576.119 394.657C576.103 394.986 576.221 395.307 576.449 395.546 576.691 395.766 577.01 395.885 577.338 395.875L579.446 395.875 579.446 397.785Z" fill="#FFFFFF" fill-rule="nonzero" fill-opacity="1" transform="matrix(1 0 0 1.00024 274 177.404)"/><path d="M583.068 397.785 583.068 385.863 580.631 385.863 580.631 383.937 583.068 383.937 583.068 381.862C583.027 381.039 583.338 380.235 583.924 379.655 584.59 379.096 585.444 378.812 586.312 378.865L588.799 378.865 588.799 380.775 586.444 380.775C585.818 380.727 585.273 381.197 585.225 381.822 585.22 381.88 585.22 381.936 585.225 381.994L585.225 383.937 588.667 383.937 588.667 385.863 585.225 385.863 585.225 397.785Z" fill="#FFFFFF" fill-rule="nonzero" fill-opacity="1" transform="matrix(1 0 0 1.00024 274 177.404)"/><path d="M593.492 397.176C592.443 396.557 591.583 395.663 591.005 394.591 589.798 392.256 589.798 389.481 591.005 387.148 591.578 386.073 592.439 385.178 593.492 384.563 595.71 383.313 598.42 383.313 600.638 384.563 601.69 385.178 602.552 386.073 603.125 387.148 604.332 389.481 604.332 392.256 603.125 394.591 602.535 395.659 601.671 396.552 600.622 397.176 599.532 397.808 598.292 398.133 597.032 398.115 595.789 398.131 594.564 397.807 593.492 397.176ZM599.485 395.529C600.193 395.072 600.763 394.428 601.132 393.669 601.547 392.817 601.756 391.882 601.741 390.935 601.756 389.983 601.547 389.041 601.132 388.185 599.978 385.895 597.185 384.974 594.896 386.129 594.776 386.189 594.659 386.254 594.545 386.324 593.831 386.776 593.261 387.421 592.899 388.185 592.476 389.038 592.266 389.983 592.29 390.935 592.266 391.882 592.476 392.821 592.899 393.669 593.261 394.433 593.831 395.078 594.545 395.529 596.049 396.374 597.883 396.374 599.387 395.529Z" fill="#FFFFFF" fill-rule="nonzero" fill-opacity="1" transform="matrix(1 0 0 1.00024 274 177.404)"/><path d="M613.729 383.805 613.729 386.061 613.235 386.061C612.13 386 611.052 386.413 610.271 387.197 609.504 388.078 609.114 389.226 609.184 390.392L609.184 397.785 607.027 397.785 607.027 383.937 609.267 383.937 609.267 386.72C609.603 385.862 610.174 385.114 610.913 384.563 611.643 384.044 612.522 383.777 613.416 383.805Z" fill="#FFFFFF" fill-rule="nonzero" fill-opacity="1" transform="matrix(1 0 0 1.00024 274 177.404)"/><path d="M634.197 384.299C634.956 384.754 635.567 385.415 635.959 386.209 636.372 387.102 636.58 388.075 636.568 389.058L636.568 397.785 634.411 397.785 634.411 389.14C634.474 388.162 634.174 387.196 633.571 386.423 632.975 385.758 632.109 385.399 631.217 385.452 629.794 385.425 628.495 386.257 627.923 387.559 627.607 388.309 627.449 389.117 627.462 389.931L627.462 397.785 625.305 397.785 625.305 389.14C625.365 388.16 625.06 387.192 624.449 386.423 623.825 385.758 622.939 385.404 622.028 385.452 621.322 385.43 620.627 385.626 620.036 386.012 619.471 386.394 619.03 386.93 618.768 387.559 618.47 388.314 618.325 389.121 618.34 389.931L618.34 397.785 616.166 397.785 616.166 383.937 618.257 383.937 618.257 385.979C618.643 385.261 619.211 384.658 619.904 384.233 620.681 383.813 621.559 383.619 622.44 383.673 623.392 383.65 624.329 383.901 625.141 384.398 625.913 384.885 626.53 385.582 626.919 386.407 627.359 385.574 628.019 384.879 628.829 384.398 629.666 383.902 630.624 383.65 631.595 383.673 632.504 383.639 633.404 383.854 634.197 384.299Z" fill="#FFFFFF" fill-rule="nonzero" fill-opacity="1" transform="matrix(1 0 0 1.00024 274 177.404)"/><path d="M463.471 0C480.413 0 494.148 13.7347 494.148 30.6774L494.148 30.6774C494.148 47.6201 480.413 61.3548 463.471 61.3548L364.852 61.3548C347.909 61.3548 334.174 47.6201 334.174 30.6774 334.174 13.7347 347.909-1.38194e-06 364.852-1.38194e-06Z" fill="#F3F3F3" fill-rule="nonzero" fill-opacity="1" transform="matrix(1 0 0 1.00024 274 177.404)"/><path d="M368.475 39.1907 366.021 39.1907 372.838 20.254 375.621 20.254 382.718 39.1907 380.38 39.1907 378.552 34.1519 370.204 34.1519ZM373.892 23.218 370.829 32.2088 377.778 32.2088 374.485 23.218 374.172 22.1147Z" fill="#000000" fill-rule="nonzero" fill-opacity="1" transform="matrix(1 0 0 1.00024 274 177.404)"/><path d="M394.294 25.688C395.065 26.1257 395.684 26.7857 396.073 27.5817 396.511 28.472 396.725 29.4552 396.698 30.4469L396.698 39.1907 394.541 39.1907 394.541 30.6115C394.606 29.6074 394.281 28.6168 393.636 27.8451 392.972 27.1656 392.048 26.8054 391.1 26.8571 390.388 26.8425 389.684 27.0126 389.058 27.3511 388.475 27.6755 388.004 28.1694 387.708 28.7673 387.37 29.4352 387.207 30.1768 387.23 30.9244L387.23 39.1577 385.057 39.1577 385.057 25.3422 387.148 25.3422 387.148 27.4664C387.543 26.6882 388.162 26.046 388.926 25.6221 389.746 25.2036 390.657 24.9943 391.577 25.0129 392.527 24.9936 393.464 25.2266 394.294 25.688Z" fill="#000000" fill-rule="nonzero" fill-opacity="1" transform="matrix(1 0 0 1.00024 274 177.404)"/><path d="M413.017 25.3422 413.017 25.3422 413.017 39.1907 410.926 39.1907 410.926 36.8524C410.425 37.6807 409.715 38.3622 408.867 38.8284 407.988 39.2829 407.01 39.5147 406.019 39.5035 404.817 39.5175 403.636 39.1921 402.61 38.5649 401.592 37.9311 400.767 37.0316 400.222 35.9632 399.053 33.6373 399.053 30.8956 400.222 28.5697 400.767 27.5013 401.592 26.6017 402.61 25.9679 403.631 25.3282 404.815 24.9966 406.019 25.0129 407.007 24.9976 407.981 25.2357 408.851 25.7045 409.694 26.1692 410.404 26.8441 410.909 27.664L410.827 20.254 413 20.254ZM408.62 36.8689C409.333 36.4014 409.903 35.746 410.267 34.9752 410.672 34.1273 410.875 33.1975 410.86 32.2582 410.875 31.3242 410.67 30.3998 410.267 29.5577 409.905 28.7818 409.335 28.1208 408.62 27.6475 407.909 27.1878 407.079 26.9472 406.233 26.9559 405.396 26.9447 404.576 27.1858 403.878 27.6475 403.163 28.1208 402.594 28.7818 402.231 29.5577 401.828 30.3998 401.624 31.3242 401.638 32.2582 401.624 33.1975 401.826 34.1273 402.231 34.9752 402.595 35.746 403.165 36.4014 403.878 36.8689 404.576 37.3306 405.396 37.5717 406.233 37.5605 407.079 37.5692 407.909 37.3286 408.62 36.8689Z" fill="#000000" fill-rule="nonzero" fill-opacity="1" transform="matrix(1 0 0 1.00024 274 177.404)"/><path d="M423.72 25.2105 423.72 27.4664 423.193 27.4664C422.083 27.4055 421 27.8185 420.213 28.6026 419.454 29.4875 419.07 30.6336 419.143 31.7971L419.143 39.1907 416.985 39.1907 416.985 25.3422 419.143 25.3422 419.143 28.1251C419.467 27.2591 420.04 26.5084 420.789 25.9679 421.519 25.4491 422.398 25.183 423.292 25.2105Z" fill="#000000" fill-rule="nonzero" fill-opacity="1" transform="matrix(1 0 0 1.00024 274 177.404)"/><path d="M428.331 38.5649C427.282 37.9451 426.422 37.0513 425.844 35.9797 424.637 33.6455 424.637 30.8709 425.844 28.5367 426.429 27.4639 427.294 26.5703 428.347 25.9515 430.559 24.7012 433.266 24.7012 435.477 25.9515 436.543 26.5655 437.421 27.4596 438.013 28.5367 438.621 29.6823 438.932 30.9616 438.919 32.2582 438.937 33.5573 438.619 34.839 437.997 35.9797 437.419 37.0571 436.553 37.9522 435.494 38.5649 433.281 39.8152 430.575 39.8152 428.364 38.5649ZM434.325 36.9183C435.033 36.4668 435.603 35.8287 435.971 35.074 436.773 33.3284 436.773 31.3198 435.971 29.5741 435.603 28.8195 435.033 28.1812 434.325 27.7299 432.836 26.8507 430.989 26.8507 429.5 27.7299 428.784 28.1723 428.212 28.8129 427.853 29.5741 427.051 31.3198 427.051 33.3284 427.853 35.074 428.212 35.8353 428.784 36.4758 429.5 36.9183 430.989 37.7974 432.836 37.7974 434.325 36.9183Z" fill="#000000" fill-rule="nonzero" fill-opacity="1" transform="matrix(1 0 0 1.00024 274 177.404)"/><path d="M441.718 22.8228 441.718 20.254 444.172 20.254 444.172 22.8228ZM444.024 39.1907 441.867 39.1907 441.867 25.3422 444.024 25.3422Z" fill="#000000" fill-rule="nonzero" fill-opacity="1" transform="matrix(1 0 0 1.00024 274 177.404)"/><path d="M460.655 25.3422 460.655 25.3422 460.655 39.1907 458.597 39.1907 458.597 36.8524C458.089 37.6813 457.375 38.3627 456.522 38.8284 455.643 39.2849 454.664 39.5167 453.673 39.5035 452.471 39.5175 451.29 39.1921 450.265 38.5649 449.253 37.9288 448.433 37.0296 447.893 35.9632 446.752 33.6307 446.752 30.9022 447.893 28.5697 448.437 27.5013 449.263 26.6017 450.281 25.9679 451.302 25.3282 452.486 24.9966 453.69 25.0129 454.683 24.9969 455.664 25.235 456.538 25.7045 457.381 26.1692 458.091 26.8441 458.597 27.664L458.514 20.254 460.671 20.254ZM456.258 36.8689C456.97 36.4001 457.539 35.7452 457.905 34.9752 458.31 34.1273 458.513 33.1975 458.498 32.2582 458.513 31.3242 458.309 30.3998 457.905 29.5577 457.539 28.7831 456.971 28.1228 456.258 27.6475 455.549 27.185 454.717 26.9442 453.871 26.9559 453.034 26.9469 452.214 27.1876 451.516 27.6475 450.805 28.1246 450.237 28.7844 449.869 29.5577 449.451 30.3957 449.242 31.3221 449.26 32.2582 449.244 33.1996 449.453 34.1311 449.869 34.9752 450.237 35.7437 450.806 36.3983 451.516 36.8689 452.214 37.3288 453.034 37.5695 453.871 37.5605 454.717 37.5722 455.549 37.3314 456.258 36.8689Z" fill="#000000" fill-rule="nonzero" fill-opacity="1" transform="matrix(1 0 0 1.00024 274 177.404)"/><path d="M628.121 0C645.064 0 658.798 13.7347 658.798 30.6774L658.798 30.6774C658.798 47.6201 645.064 61.3548 628.121 61.3548L529.502 61.3548C512.559 61.3548 498.825 47.6201 498.825 30.6774 498.825 13.7347 512.559-1.38194e-06 529.502-1.38194e-06Z" fill="#F3F3F3" fill-rule="nonzero" fill-opacity="1" transform="matrix(1 0 0 1.00024 274 177.404)"/><path d="M559.126 22.8228 559.126 20.254 561.513 20.254 561.513 22.8228ZM561.513 39.1907 559.356 39.1907 559.356 25.3422 561.513 25.3422Z" fill="#000000" fill-rule="nonzero" fill-opacity="1" transform="matrix(1 0 0 1.00024 274 177.404)"/><path d="M569.318 38.2356C567.927 37.3739 566.791 36.1577 566.025 34.7117 565.199 33.1976 564.774 31.4969 564.79 29.7717 564.779 28.0472 565.203 26.3477 566.025 24.8317 566.796 23.3935 567.932 22.1839 569.318 21.3243 572.259 19.6105 575.895 19.6105 578.836 21.3243 580.223 22.1839 581.359 23.3935 582.13 24.8317 582.951 26.3477 583.376 28.0472 583.365 29.7717 583.381 31.4969 582.956 33.1976 582.13 34.7117 581.364 36.1577 580.228 37.3739 578.836 38.2356 575.889 39.9256 572.266 39.9256 569.318 38.2356ZM577.667 36.4572C578.747 35.7939 579.62 34.8413 580.187 33.7073 581.403 31.1844 581.403 28.2438 580.187 25.7209 579.044 23.3919 576.654 21.9348 574.061 21.983 572.793 21.9652 571.546 22.314 570.471 22.9875 569.391 23.6507 568.518 24.6033 567.952 25.7374 567.331 26.9724 567.02 28.3401 567.046 29.7223 567.02 31.1045 567.331 32.4721 567.952 33.7073 568.523 34.8379 569.394 35.7891 570.471 36.4572 572.678 37.7966 575.444 37.7966 577.651 36.4572Z" fill="#000000" fill-rule="nonzero" fill-opacity="1" transform="matrix(1 0 0 1.00024 274 177.404)"/><path d="M589.078 38.7955C588.127 38.3578 587.317 37.6617 586.74 36.7865 586.172 35.9098 585.881 34.8833 585.9 33.839L588.189 33.839C588.178 34.5127 588.374 35.1736 588.749 35.7327 589.133 36.299 589.67 36.7444 590.297 37.0171 591.005 37.3367 591.776 37.4943 592.553 37.4781 593.32 37.4905 594.083 37.3448 594.792 37.05 595.407 36.7949 595.937 36.3729 596.324 35.8315 596.675 35.2991 596.857 34.674 596.851 34.0366 596.866 33.2826 596.602 32.5498 596.11 31.9783 595.575 31.3884 594.855 30.9992 594.068 30.875L590.775 30.2163C589.938 30.0708 589.144 29.7386 588.453 29.2448 587.817 28.775 587.303 28.1595 586.954 27.4499 586.592 26.7305 586.411 25.9335 586.427 25.1281 586.406 24.1703 586.676 23.2285 587.201 22.4276 587.745 21.6309 588.497 20.9986 589.375 20.5998 590.365 20.1412 591.445 19.9103 592.536 19.9247 593.643 19.9069 594.741 20.1376 595.748 20.5998 596.64 21.0055 597.404 21.6494 597.954 22.4605 598.484 23.2659 598.761 24.2129 598.744 25.1775L596.439 25.1775C596.444 24.5913 596.273 24.0171 595.945 23.5309 595.603 23.0341 595.13 22.641 594.578 22.3947 593.948 22.11 593.261 21.9693 592.569 21.983 591.88 21.973 591.194 22.1077 590.561 22.3782 590.006 22.6262 589.528 23.0186 589.177 23.5144 588.853 24.0025 588.682 24.5753 588.683 25.1611 588.664 25.8594 588.904 26.5403 589.358 27.0712 589.864 27.6265 590.544 27.9925 591.285 28.1086L594.76 28.8002C595.589 28.956 596.372 29.2996 597.048 29.8047 597.705 30.2898 598.241 30.9213 598.613 31.6489 598.99 32.3817 599.182 33.1958 599.173 34.0201 599.192 35.0333 598.898 36.0279 598.333 36.8689 597.742 37.721 596.927 38.3933 595.978 38.8119 594.903 39.274 593.74 39.504 592.569 39.4871 591.369 39.5226 590.175 39.2862 589.078 38.7955Z" fill="#000000" fill-rule="nonzero" fill-opacity="1" transform="matrix(1 0 0 1.00024 274 177.404)"/><path d="M792.919 0C809.862 0 823.597 13.7347 823.597 30.6774L823.597 30.6774C823.597 47.6201 809.862 61.3548 792.919 61.3548L694.3 61.3548C677.358 61.3548 663.623 47.6201 663.623 30.6774 663.623 13.7347 677.358-1.38194e-06 694.3-1.38194e-06Z" fill="#F3F3F3" fill-rule="nonzero" fill-opacity="1" transform="matrix(1 0 0 1.00024 274 177.404)"/><path d="M695.19 39.1907 695.19 20.3363 701.875 20.3363C703.52 20.3034 705.142 20.719 706.568 21.5384 707.96 22.2964 709.104 23.4398 709.862 24.8317 710.645 26.3584 711.036 28.0562 710.998 29.7717 711.039 31.4876 710.647 33.1861 709.862 34.7117 709.097 36.0992 707.956 37.2412 706.568 38.0051 705.137 38.8119 703.517 39.2213 701.875 39.1907ZM701.875 37.0994C703.102 37.1172 704.309 36.7982 705.366 36.1773 706.394 35.5558 707.222 34.6529 707.754 33.5755 708.897 31.1625 708.897 28.3645 707.754 25.9515 707.222 24.8741 706.394 23.9712 705.366 23.3497 704.309 22.7288 703.102 22.4098 701.875 22.4276L697.429 22.4276 697.429 37.0994Z" fill="#000000" fill-rule="nonzero" fill-opacity="1" transform="matrix(1 0 0 1.00024 274 177.404)"/><path d="M726.312 32.8181 715.378 32.8181C715.44 33.6961 715.694 34.55 716.119 35.321 716.514 36.005 717.082 36.573 717.766 36.9677 718.455 37.382 719.249 37.5931 720.054 37.5769 720.614 37.583 721.171 37.4939 721.701 37.3135 722.207 37.1518 722.676 36.8946 723.084 36.556 723.458 36.2655 723.751 35.8861 723.941 35.4527L726.015 35.4527C725.852 36.2293 725.464 36.94 724.896 37.4946 724.276 38.1263 723.529 38.6201 722.706 38.9437 721.82 39.2939 720.876 39.4727 719.923 39.4706 718.689 39.4925 717.474 39.1673 716.415 38.532 715.391 37.9148 714.559 37.0256 714.011 35.9632 713.435 34.802 713.142 33.5212 713.155 32.2253 713.138 30.9428 713.438 29.6761 714.028 28.5367 714.592 27.4806 715.427 26.5938 716.448 25.9679 717.497 25.3386 718.699 25.0135 719.923 25.0293 721.089 25.0104 722.235 25.3369 723.216 25.9679 724.207 26.5973 725.001 27.4934 725.505 28.5532 726.076 29.698 726.363 30.9628 726.345 32.2417ZM716.909 28.0757C716.081 28.8577 715.556 29.9077 715.427 31.0397L724.056 31.0397C723.945 29.9232 723.456 28.8779 722.673 28.0757 721.946 27.3465 720.952 26.9475 719.923 26.9724 718.813 26.9355 717.733 27.3312 716.909 28.0757Z" fill="#000000" fill-rule="nonzero" fill-opacity="1" transform="matrix(1 0 0 1.00024 274 177.404)"/><path d="M730.939 38.9766C730.152 38.6832 729.462 38.1757 728.946 37.5111 728.472 36.8988 728.217 36.145 728.222 35.3704L730.379 35.3704C730.389 35.8222 730.552 36.2573 730.84 36.6054 731.166 36.9866 731.586 37.2761 732.059 37.4452 732.628 37.6522 733.231 37.7528 733.837 37.7416 734.682 37.7908 735.518 37.5656 736.225 37.0994 736.776 36.6849 737.089 36.0268 737.064 35.3375 737.089 34.8214 736.905 34.317 736.554 33.9378 736.137 33.536 735.599 33.2865 735.023 33.2297L732.52 32.8345C731.461 32.7193 730.471 32.2561 729.704 31.5172 729.032 30.8412 728.668 29.9178 728.699 28.9649 728.68 28.2392 728.899 27.5272 729.325 26.9395 729.786 26.3345 730.4 25.8629 731.104 25.5727 731.922 25.2322 732.803 25.0641 733.689 25.0787 734.596 25.0629 735.498 25.2311 736.34 25.5727 737.074 25.8576 737.717 26.3355 738.201 26.9559 738.654 27.5286 738.902 28.2352 738.909 28.9649L736.752 28.9649C736.752 28.5646 736.605 28.1783 736.34 27.8781 736.035 27.5364 735.65 27.276 735.22 27.1206 734.721 26.9301 734.191 26.8351 733.656 26.8407 733.144 26.8298 732.635 26.9192 732.157 27.1041 731.754 27.2509 731.397 27.5007 731.12 27.8287 730.876 28.1315 730.748 28.5107 730.758 28.899 730.731 29.38 730.903 29.8508 731.235 30.1999 731.632 30.561 732.134 30.7861 732.668 30.8421L735.253 31.2537C736.337 31.3736 737.349 31.8483 738.135 32.604 738.815 33.3287 739.175 34.2951 739.139 35.2881 739.154 36.0768 738.93 36.8516 738.497 37.5111 738.036 38.1636 737.404 38.6764 736.669 38.9931 735.793 39.3585 734.851 39.5378 733.903 39.52 732.888 39.5396 731.881 39.3548 730.939 38.9766Z" fill="#000000" fill-rule="nonzero" fill-opacity="1" transform="matrix(1 0 0 1.00024 274 177.404)"/><path d="M744.442 39.1907 742.284 39.1907 742.284 20.3363 744.442 20.3363 744.442 31.7642 750.682 25.4081 753.366 25.4081 746.911 31.9947 753.613 39.2236 750.88 39.2236 744.458 32.2582Z" fill="#000000" fill-rule="nonzero" fill-opacity="1" transform="matrix(1 0 0 1.00024 274 177.404)"/><path d="M759.278 39.1907C758.42 39.2447 757.575 38.961 756.923 38.4003 756.326 37.8267 756.006 37.0212 756.051 36.1937L756.051 27.3182 753.63 27.3182 753.63 25.4081 755.128 25.4081C755.436 25.4143 755.733 25.2954 755.952 25.0787 756.164 24.8586 756.278 24.561 756.265 24.2554L756.265 21.9501 758.208 21.9501 758.208 25.4081 761.501 25.4081 761.501 27.3182 758.208 27.3182 758.208 36.062C758.191 36.391 758.31 36.7124 758.537 36.9512 758.771 37.1756 759.085 37.2947 759.41 37.2805L761.517 37.2805 761.517 39.1907Z" fill="#000000" fill-rule="nonzero" fill-opacity="1" transform="matrix(1 0 0 1.00024 274 177.404)"/><path d="M766.919 38.5814C765.87 37.9616 765.01 37.0678 764.432 35.9961 763.826 34.8565 763.52 33.5816 763.543 32.2911 763.525 31.0011 763.829 29.7273 764.432 28.5861 765.018 27.5184 765.883 26.6304 766.935 26.0173 768.012 25.3852 769.242 25.0606 770.492 25.0787 771.74 25.0647 772.97 25.3891 774.049 26.0173 775.093 26.6353 775.952 27.5226 776.535 28.5861 777.143 29.7258 777.454 30.9998 777.441 32.2911 777.461 33.5853 777.143 34.8622 776.519 35.9961 775.945 37.0712 775.084 37.9662 774.032 38.5814 772.949 39.2117 771.714 39.5361 770.459 39.52 769.216 39.5384 767.99 39.2137 766.919 38.5814ZM772.896 36.9347C773.606 36.4854 774.175 35.8466 774.543 35.0905 775.354 33.3587 775.354 31.3553 774.543 29.6235 773.431 27.3727 770.706 26.4486 768.457 27.5594 767.559 28.0017 766.835 28.7273 766.392 29.6235 765.58 31.3553 765.58 33.3587 766.392 35.0905 766.759 35.8466 767.329 36.4854 768.038 36.9347 769.527 37.8139 771.374 37.8139 772.863 36.9347Z" fill="#000000" fill-rule="nonzero" fill-opacity="1" transform="matrix(1 0 0 1.00024 274 177.404)"/><path d="M790.828 26.0173C791.846 26.6511 792.671 27.5507 793.216 28.6191 794.359 30.9395 794.359 33.6592 793.216 35.9797 792.674 37.0454 791.847 37.9404 790.828 38.5649 789.814 39.206 788.635 39.5379 787.436 39.52 786.448 39.5353 785.473 39.2972 784.604 38.8284 783.752 38.3691 783.036 37.6932 782.529 36.8689L782.529 37.7416 782.529 43.5214 780.52 43.5214 780.52 25.4081 782.595 25.4081 782.595 27.7299C783.102 26.9055 783.818 26.2296 784.67 25.7703 785.539 25.3015 786.514 25.0634 787.502 25.0787 788.676 25.0749 789.829 25.4 790.828 26.0173ZM789.593 36.8853C790.303 36.4147 790.873 35.7602 791.24 34.9917 792.029 33.2778 792.029 31.3044 791.24 29.5906 790.868 28.8252 790.3 28.1718 789.593 27.6969 788.89 27.249 788.072 27.0146 787.238 27.0218 786.394 27.0129 785.565 27.2474 784.851 27.6969 784.148 28.1759 783.581 28.8282 783.204 29.5906 782.415 31.3044 782.415 33.2778 783.204 34.9917 783.573 35.7593 784.141 36.4134 784.851 36.8853 785.56 37.3479 786.392 37.5886 787.238 37.5769 788.075 37.586 788.895 37.3452 789.593 36.8853Z" fill="#000000" fill-rule="nonzero" fill-opacity="1" transform="matrix(1 0 0 1.00024 274 177.404)"/><path d="M957.306 0C974.249 0 987.984 13.7347 987.984 30.6774L987.984 30.6774C987.984 47.6201 974.249 61.3548 957.306 61.3548L858.687 61.3548C841.745 61.3548 828.01 47.6201 828.01 30.6774 828.01 13.7347 841.745-1.38194e-06 858.687-1.38194e-06Z" fill="#F3F3F3" fill-rule="nonzero" fill-opacity="1" transform="matrix(1 0 0 1.00024 274 177.404)"/><path d="M885.215 39.1907 878.908 20.2375 881.345 20.2375 886.467 35.9138 891.308 20.1881 893.448 20.1881 898.388 35.9138 903.328 20.2375 905.667 20.2375 899.376 39.1907 897.186 39.1907 892.246 23.7285 887.306 39.1907Z" fill="#000000" fill-rule="nonzero" fill-opacity="1" transform="matrix(1 0 0 1.00024 274 177.404)"/><path d="M919.68 32.7851 908.68 32.7851C908.741 33.6687 908.995 34.5286 909.421 35.3045 909.821 35.9839 910.388 36.5506 911.068 36.9512 911.764 37.3668 912.563 37.5779 913.373 37.5605 913.933 37.5623 914.489 37.4734 915.02 37.297 915.524 37.1313 915.993 36.8746 916.403 36.5395 916.777 36.2491 917.07 35.8697 917.259 35.4363L919.35 35.4363C919.178 36.2138 918.789 36.927 918.231 37.4946 917.605 38.1235 916.853 38.6119 916.024 38.9272 915.13 39.2921 914.173 39.4767 913.208 39.4706 911.975 39.4925 910.76 39.1673 909.701 38.532 908.683 37.9204 907.855 37.0363 907.313 35.9797 906.725 34.8168 906.432 33.5278 906.457 32.2253 906.442 30.943 906.742 29.6767 907.33 28.5367 908.481 26.3442 910.765 24.9827 913.241 25.0129 914.407 24.9979 915.552 25.3241 916.535 25.9515 917.526 26.5844 918.325 27.4791 918.84 28.5367 919.408 29.6943 919.695 30.969 919.68 32.2582ZM910.228 27.9933C909.395 28.7872 908.865 29.8471 908.729 30.9903L917.407 30.9903C917.291 29.8656 916.805 28.8116 916.024 27.9933 915.29 27.2665 914.292 26.8685 913.258 26.8901 912.145 26.8575 911.06 27.2522 910.228 27.9933Z" fill="#000000" fill-rule="nonzero" fill-opacity="1" transform="matrix(1 0 0 1.00024 274 177.404)"/><path d="M933.66 25.9515C934.678 26.5853 935.504 27.4848 936.048 28.5532 937.222 30.8836 937.222 33.6328 936.048 35.9632 935.504 37.0316 934.678 37.9311 933.66 38.5649 932.636 39.1971 931.455 39.5281 930.251 39.52 929.253 39.5337 928.269 39.2959 927.386 38.8284 926.538 38.3622 925.828 37.6807 925.328 36.8524L925.328 39.1907 923.237 39.1907 923.237 25.3257 923.237 20.2375 925.427 20.2375 925.344 27.664C925.852 26.8351 926.566 26.1537 927.419 25.688 928.295 25.2243 929.277 24.992 930.268 25.0129 931.465 25.002 932.639 25.3272 933.66 25.9515ZM932.409 36.8689C933.118 36.3969 933.686 35.7429 934.055 34.9752 934.837 33.2483 934.837 31.2681 934.055 29.5412 933.686 28.7735 933.118 28.1195 932.409 27.6475 931.705 27.1855 930.879 26.9446 930.037 26.9559 929.191 26.9472 928.361 27.1878 927.65 27.6475 926.937 28.115 926.367 28.7704 926.003 29.5412 925.19 31.2613 925.19 33.2551 926.003 34.9752 926.367 35.746 926.937 36.4014 927.65 36.8689 928.361 37.3286 929.191 37.5692 930.037 37.5605 930.867 37.5652 931.681 37.3247 932.376 36.8689Z" fill="#000000" fill-rule="nonzero" fill-opacity="1" transform="matrix(1 0 0 1.00024 274 177.404)"/><path d="M494.329 353.72 493.621 353.72 493.621 319.322C493.639 308.212 502.65 299.216 513.76 299.216L641.146 299.216C651.864 299.206 660.55 290.52 660.56 279.802L660.56 253.076 661.268 253.076 661.268 279.802C661.25 290.905 652.25 299.897 641.146 299.907L513.76 299.907C503.048 299.926 494.371 308.61 494.362 319.322Z" fill="#000000" fill-rule="nonzero" fill-opacity="1" transform="matrix(1 0 0 1.00024 274 177.404)"/><path d="M666.06 254.591 660.89 245.617 655.686 254.591 666.06 254.591Z" fill="#000000" fill-rule="nonzero" fill-opacity="1" transform="matrix(1 0 0 1.00024 274 177.404)"/><path d="M494.313 324.393 493.621 324.393 493.621 319.322C493.611 308.617 484.945 299.935 474.24 299.907L184.427 299.907C173.326 299.897 164.33 290.902 164.321 279.802L164.321 72.7662 165.012 72.7662 165.012 279.802C165.022 290.52 173.709 299.206 184.427 299.216L474.24 299.216C485.34 299.226 494.336 308.221 494.346 319.322Z" fill="#000000" fill-rule="nonzero" fill-opacity="1" transform="matrix(1 0 0 1.00024 274 177.404)"/><path d="M159.546 74.2811 164.733 65.3068 169.92 74.2811 159.546 74.2811Z" fill="#000000" fill-rule="nonzero" fill-opacity="1" transform="matrix(1 0 0 1.00024 274 177.404)"/><path d="M661.137 176.44 660.445 176.44 660.445 142.041C660.435 131.323 651.749 122.636 641.031 122.627L598.218 122.627C587.121 122.609 578.13 113.618 578.112 102.521L578.112 72.7662 578.82 72.7662 578.82 102.521C578.83 113.234 587.506 121.918 598.218 121.936L641.031 121.936C652.134 121.936 661.137 130.937 661.137 142.041Z" fill="#000000" fill-rule="nonzero" fill-opacity="1" transform="matrix(1 0 0 1.00024 274 177.404)"/><path d="M583.71 74.2811 578.523 65.3068 573.353 74.2811 583.71 74.2811Z" fill="#000000" fill-rule="nonzero" fill-opacity="1" transform="matrix(1 0 0 1.00024 274 177.404)"/><path d="M660.445 176.44 661.137 176.44 661.137 142.041C661.147 131.323 669.833 122.636 680.551 122.627L723.364 122.627C734.464 122.618 743.462 113.622 743.47 102.521L743.47 72.7662 742.647 72.7662 742.647 102.521C742.637 113.24 733.951 121.927 723.232 121.936L680.419 121.936C669.319 121.945 660.322 130.941 660.313 142.041Z" fill="#000000" fill-rule="nonzero" fill-opacity="1" transform="matrix(1 0 0 1.00024 274 177.404)"/><path d="M737.871 74.2811 743.058 65.3068 748.245 74.2811 737.871 74.2811Z" fill="#000000" fill-rule="nonzero" fill-opacity="1" transform="matrix(1 0 0 1.00024 274 177.404)"/><path d="M661.137 176.44 660.445 176.44 660.445 142.041C660.455 130.941 669.451 121.945 680.551 121.936L888.196 121.936C898.914 121.927 907.6 113.24 907.61 102.521L907.61 72.7662 908.301 72.7662 908.301 102.521C908.283 113.618 899.292 122.609 888.196 122.627L680.551 122.627C669.833 122.636 661.147 131.323 661.137 142.041Z" fill="#000000" fill-rule="nonzero" fill-opacity="1" transform="matrix(1 0 0 1.00024 274 177.404)"/><path d="M913.142 74.2811 907.956 65.3068 902.768 74.2811 913.142 74.2811Z" fill="#000000" fill-rule="nonzero" fill-opacity="1" transform="matrix(1 0 0 1.00024 274 177.404)"/><path d="M661.137 176.44 660.445 176.44 660.445 142.041C660.435 131.323 651.749 122.636 641.031 122.627L433.946 122.627C422.846 122.618 413.85 113.622 413.84 102.521L413.84 72.7662 414.532 72.7662 414.532 102.521C414.542 113.24 423.228 121.927 433.946 121.936L641.031 121.936C652.134 121.936 661.137 130.937 661.137 142.041Z" fill="#000000" fill-rule="nonzero" fill-opacity="1" transform="matrix(1 0 0 1.00024 274 177.404)"/><path d="M419.373 74.2811 414.186 65.3068 408.999 74.2811 419.373 74.2811Z" fill="#000000" fill-rule="nonzero" fill-opacity="1" transform="matrix(1 0 0 1.00024 274 177.404)"/><path d="M298.705 0C315.648 0 329.383 13.7347 329.383 30.6774L329.383 30.6774C329.383 47.6201 315.648 61.3548 298.705 61.3548L30.6774 61.3548C13.7347 61.3548-1.08042e-05 47.6201-1.08042e-05 30.6774-1.08042e-05 13.7347 13.7347-1.38194e-06 30.6774-1.38194e-06Z" fill="#F3F3F3" fill-rule="nonzero" fill-opacity="1" transform="matrix(1 0 0 1.00024 274 177.404)"/><path d="M129.774 38.7955C128.822 38.3578 128.012 37.6617 127.436 36.7865 126.868 35.9098 126.575 34.8833 126.596 33.839L128.901 33.839C128.885 34.5108 129.074 35.1716 129.444 35.7327 129.828 36.299 130.365 36.7444 130.992 37.0171 131.701 37.3367 132.471 37.4943 133.248 37.4781 134.016 37.4905 134.779 37.3448 135.488 37.05 136.102 36.7949 136.633 36.3729 137.019 35.8315 137.37 35.2991 137.553 34.674 137.546 34.0366 137.561 33.2826 137.297 32.5498 136.805 31.9783 136.27 31.3884 135.55 30.9992 134.763 30.875L131.47 30.2163C130.633 30.0708 129.839 29.7386 129.148 29.2448 128.512 28.775 127.998 28.1595 127.65 27.4499 127.287 26.7305 127.106 25.9335 127.123 25.1281 127.101 24.1703 127.371 23.2285 127.897 22.4276 128.445 21.6286 129.202 20.9962 130.087 20.5998 131.077 20.1412 132.157 19.9103 133.248 19.9247 134.383 19.8944 135.51 20.1254 136.542 20.5998 137.434 21.0055 138.197 21.6494 138.748 22.4605 139.279 23.2659 139.555 24.2129 139.539 25.1775L137.233 25.1775C137.239 24.5913 137.067 24.0171 136.739 23.5309 136.404 23.0273 135.929 22.6324 135.372 22.3947 134.742 22.11 134.055 21.9693 133.364 21.983 132.674 21.973 131.989 22.1077 131.355 22.3782 130.8 22.6262 130.322 23.0186 129.971 23.5144 129.648 24.0025 129.476 24.5753 129.477 25.1611 129.435 25.8565 129.652 26.5429 130.087 27.0877 130.592 27.6429 131.272 28.009 132.013 28.1251L135.488 28.8167C136.317 28.9724 137.1 29.3161 137.777 29.8211 138.464 30.2965 139.028 30.9287 139.423 31.6654 139.801 32.3982 139.993 33.2123 139.983 34.0366 140.002 35.0498 139.709 36.0444 139.143 36.8853 138.521 37.7543 137.664 38.4283 136.673 38.8284 135.597 39.2905 134.436 39.5205 133.265 39.5035 132.062 39.5338 130.869 39.2918 129.774 38.7955Z" fill="#000000" fill-rule="nonzero" fill-opacity="1" transform="matrix(1 0 0 1.00024 274 177.404)"/><path d="M155.363 32.7851 144.396 32.7851C144.442 33.6715 144.696 34.5346 145.137 35.3045 145.538 35.9839 146.104 36.5506 146.784 36.9512 147.479 37.3525 148.27 37.5575 149.073 37.544 149.632 37.547 150.189 37.458 150.719 37.2805 151.23 37.1188 151.705 36.8618 152.119 36.5231 152.488 36.2321 152.777 35.8525 152.959 35.4198L155.05 35.4198C154.884 36.1998 154.495 36.915 153.93 37.4781 153.308 38.1106 152.555 38.5995 151.724 38.9107 150.835 39.2699 149.883 39.449 148.925 39.4377 147.692 39.4645 146.477 39.1451 145.417 38.5155 144.388 37.8901 143.555 36.9887 143.013 35.9138 142.422 34.7575 142.122 33.4743 142.14 32.1759 142.122 30.8859 142.428 29.612 143.029 28.4709 144.178 26.2836 146.454 24.9231 148.925 24.947 150.09 24.9338 151.234 25.26 152.218 25.8856 153.205 26.5262 153.997 27.4262 154.507 28.4873 155.078 29.6379 155.365 30.9081 155.347 32.1923ZM145.928 27.9933C145.092 28.7837 144.567 29.8467 144.446 30.9903L153.14 30.9903C153.004 29.8646 152.507 28.8132 151.724 27.9933 150.993 27.2599 149.992 26.8608 148.957 26.8901 147.844 26.8575 146.76 27.2522 145.928 27.9933Z" fill="#000000" fill-rule="nonzero" fill-opacity="1" transform="matrix(1 0 0 1.00024 274 177.404)"/><path d="M165.062 25.2105 165.062 27.4664 164.551 27.4664C163.447 27.4081 162.37 27.8211 161.587 28.6026 160.816 29.4814 160.425 30.6303 160.501 31.7971L160.501 39.1907 158.343 39.1907 158.343 25.3422 160.501 25.3422 160.501 28.1251C160.837 27.2663 161.408 26.5191 162.147 25.9679 162.877 25.4491 163.756 25.183 164.65 25.2105Z" fill="#000000" fill-rule="nonzero" fill-opacity="1" transform="matrix(1 0 0 1.00024 274 177.404)"/><path d="M173.41 39.1907 171.105 39.1907 165.721 25.3422 168.075 25.3422 172.34 36.6548 176.523 25.3422 178.795 25.3422Z" fill="#000000" fill-rule="nonzero" fill-opacity="1" transform="matrix(1 0 0 1.00024 274 177.404)"/><path d="M193.088 32.7851 182.121 32.7851C182.182 33.6687 182.436 34.5286 182.862 35.3045 183.262 35.9839 183.829 36.5506 184.509 36.9512 185.21 37.3523 186.006 37.5572 186.814 37.544 187.374 37.5458 187.931 37.4569 188.461 37.2805 188.965 37.1149 189.434 36.8582 189.844 36.5231 190.213 36.2278 190.506 35.8499 190.7 35.4198L192.775 35.4198C192.609 36.196 192.227 36.9095 191.672 37.4781 191.046 38.107 190.294 38.5954 189.465 38.9107 188.576 39.2686 187.624 39.4477 186.666 39.4377 185.434 39.4645 184.219 39.1451 183.159 38.5155 182.121 37.8954 181.282 36.993 180.738 35.9138 180.154 34.756 179.859 33.4729 179.882 32.1759 179.857 30.8872 180.158 29.6132 180.755 28.4709 181.318 27.4099 182.154 26.5179 183.175 25.8856 184.229 25.2533 185.438 24.9282 186.666 24.947 187.832 24.931 188.976 25.2574 189.959 25.8856 190.947 26.5308 191.743 27.4293 192.265 28.4873 192.825 29.6413 193.106 30.9101 193.088 32.1923ZM183.653 27.9933C182.826 28.7897 182.301 29.8495 182.171 30.9903L190.832 30.9903C190.715 29.8705 190.23 28.8216 189.449 28.0098 188.718 27.2764 187.717 26.8772 186.683 26.9065 185.571 26.8695 184.488 27.2583 183.653 27.9933Z" fill="#000000" fill-rule="nonzero" fill-opacity="1" transform="matrix(1 0 0 1.00024 274 177.404)"/><path d="M202.787 25.2105 202.787 27.4664 202.293 27.4664C201.183 27.4055 200.1 27.8185 199.313 28.6026 198.547 29.4841 198.163 30.6326 198.242 31.7971L198.242 39.1907 196.069 39.1907 196.069 25.3422 198.242 25.3422 198.242 28.1251C198.572 27.2619 199.143 26.5126 199.889 25.9679 200.625 25.451 201.509 25.1854 202.408 25.2105Z" fill="#000000" fill-rule="nonzero" fill-opacity="1" transform="matrix(1 0 0 1.00024 274 177.404)"/><path d="M797.085 180.326C814.028 180.326 827.763 194.061 827.763 211.004L827.763 211.004C827.763 227.947 814.028 241.681 797.085 241.681L524.826 241.681C507.883 241.681 494.148 227.947 494.148 211.004 494.148 194.061 507.883 180.326 524.826 180.326Z" fill="url(#fill4)" fill-rule="nonzero" transform="matrix(1 0 0 1.00024 274 177.404)"/><path d="M546.38 219.517C544.982 218.666 543.843 217.446 543.087 215.993 541.483 212.855 541.483 209.137 543.087 205.998 545.409 201.695 550.711 199.988 555.108 202.128 556.298 202.701 557.341 203.541 558.154 204.582 558.935 205.525 559.442 206.663 559.62 207.875L557.38 207.875C557.179 207.035 556.773 206.26 556.195 205.619 555.577 204.913 554.813 204.351 553.955 203.973 551.903 203.008 549.503 203.138 547.566 204.318 546.504 204.995 545.649 205.952 545.096 207.085 544.488 208.323 544.184 209.69 544.207 211.07 544.187 212.45 544.492 213.815 545.096 215.055 545.649 216.183 546.504 217.134 547.566 217.805 549.503 218.98 551.897 219.115 553.955 218.167 554.81 217.783 555.574 217.222 556.195 216.52 556.773 215.873 557.179 215.093 557.38 214.248L559.62 214.248C559.435 215.456 558.93 216.594 558.154 217.541 557.339 218.577 556.297 219.41 555.108 219.978 553.866 220.599 552.495 220.914 551.106 220.9 549.433 220.884 547.798 220.406 546.38 219.517Z" fill="#FFFFFF" fill-rule="nonzero" fill-opacity="1" transform="matrix(1 0 0 1.00024 274 177.404)"/><path d="M564.988 220.472 562.831 220.472 562.831 201.536 564.988 201.536Z" fill="#FFFFFF" fill-rule="nonzero" fill-opacity="1" transform="matrix(1 0 0 1.00024 274 177.404)"/><path d="M568.956 204.187 568.956 201.618 571.393 201.618 571.393 204.187ZM571.262 220.555 569.104 220.555 569.104 206.706 571.262 206.706Z" fill="#FFFFFF" fill-rule="nonzero" fill-opacity="1" transform="matrix(1 0 0 1.00024 274 177.404)"/><path d="M587.465 214.067 576.482 214.067C576.542 214.953 576.801 215.814 577.239 216.586 577.634 217.269 578.202 217.838 578.886 218.233 579.576 218.648 580.369 218.858 581.175 218.842 581.734 218.845 582.291 218.756 582.821 218.579 583.33 218.412 583.804 218.157 584.221 217.821 584.59 217.53 584.878 217.151 585.061 216.718L587.152 216.718C586.979 217.49 586.59 218.198 586.032 218.76 585.415 219.402 584.661 219.898 583.826 220.209 582.936 220.568 581.985 220.747 581.026 220.736 579.795 220.752 578.583 220.433 577.519 219.814 576.495 219.183 575.663 218.282 575.115 217.212 574.522 216.051 574.222 214.762 574.242 213.457 574.226 212.173 574.532 210.905 575.131 209.769 575.681 208.699 576.519 207.803 577.552 207.184 578.601 206.555 579.803 206.229 581.026 206.245 582.192 206.235 583.335 206.561 584.32 207.184 585.308 207.824 586.1 208.725 586.609 209.785 587.18 210.936 587.468 212.206 587.448 213.49ZM577.98 209.291C577.145 210.082 576.618 211.144 576.498 212.288L585.159 212.288C585.029 211.172 584.544 210.128 583.776 209.308 583.045 208.575 582.044 208.175 581.01 208.205 579.898 208.167 578.815 208.557 577.98 209.291Z" fill="#FFFFFF" fill-rule="nonzero" fill-opacity="1" transform="matrix(1 0 0 1.00024 274 177.404)"/><path d="M599.667 206.97C600.442 207.406 601.066 208.066 601.461 208.863 601.891 209.756 602.105 210.737 602.087 211.728L602.087 220.472 599.93 220.472 599.93 211.893C599.989 210.887 599.66 209.896 599.008 209.127 598.349 208.452 597.43 208.093 596.489 208.139 595.777 208.122 595.072 208.292 594.447 208.633 593.864 208.955 593.388 209.441 593.08 210.032 592.751 210.709 592.588 211.453 592.602 212.206L592.602 220.439 590.445 220.439 590.445 206.591 592.52 206.591 592.52 208.715C592.922 207.936 593.546 207.294 594.315 206.871 595.127 206.446 596.034 206.237 596.95 206.261 597.903 206.243 598.843 206.489 599.667 206.97Z" fill="#FFFFFF" fill-rule="nonzero" fill-opacity="1" transform="matrix(1 0 0 1.00024 274 177.404)"/><path d="M609.58 220.472C608.715 220.51 607.869 220.222 607.208 219.665 606.617 219.089 606.304 218.284 606.352 217.459L606.352 208.534 603.915 208.534 603.915 206.624 605.413 206.624C605.723 206.639 606.023 206.518 606.237 206.294 606.454 206.075 606.573 205.779 606.566 205.471L606.566 203.149 608.509 203.149 608.509 206.624 611.803 206.624 611.803 208.534 608.509 208.534 608.509 217.36C608.484 217.691 608.605 218.015 608.839 218.249 609.077 218.476 609.398 218.595 609.728 218.579L611.835 218.579 611.835 220.505Z" fill="#FFFFFF" fill-rule="nonzero" fill-opacity="1" transform="matrix(1 0 0 1.00024 274 177.404)"/><path d="M623.84 220.472 621.617 220.472 621.617 201.536 624.465 201.536 631.184 217.014 631.546 218.019 631.908 217.014 638.495 201.536 641.443 201.536 641.443 220.472 639.187 220.472 639.187 204.747 632.6 220.472 630.64 220.472 623.955 204.829Z" fill="#FFFFFF" fill-rule="nonzero" fill-opacity="1" transform="matrix(1 0 0 1.00024 274 177.404)"/><path d="M655.192 206.624 657.349 206.624 657.349 220.472 655.275 220.472 655.275 218.348C654.869 219.115 654.252 219.749 653.496 220.176 652.678 220.601 651.765 220.81 650.845 220.785 649.897 220.81 648.96 220.583 648.128 220.126 647.361 219.674 646.737 219.012 646.333 218.216 645.903 217.324 645.689 216.342 645.707 215.351L645.707 206.624 647.865 206.624 647.865 215.186C647.805 216.193 648.135 217.184 648.787 217.953 649.447 218.638 650.372 219.005 651.323 218.957 652.034 218.972 652.739 218.802 653.364 218.463 653.944 218.134 654.413 217.642 654.715 217.047 655.046 216.37 655.209 215.626 655.192 214.874Z" fill="#FFFFFF" fill-rule="nonzero" fill-opacity="1" transform="matrix(1 0 0 1.00024 274 177.404)"/><path d="M663.607 220.472 661.466 220.472 661.466 201.536 663.607 201.536Z" fill="#FFFFFF" fill-rule="nonzero" fill-opacity="1" transform="matrix(1 0 0 1.00024 274 177.404)"/><path d="M671.445 220.472C670.58 220.515 669.732 220.227 669.074 219.665 668.476 219.092 668.156 218.285 668.201 217.459L668.201 208.534 665.78 208.534 665.78 206.624 667.295 206.624C667.603 206.63 667.9 206.512 668.119 206.294 668.331 206.074 668.445 205.777 668.431 205.471L668.431 203.149 670.374 203.149 670.374 206.624 673.668 206.624 673.668 208.534 670.374 208.534 670.374 217.36C670.356 217.693 670.481 218.017 670.72 218.249 670.954 218.473 671.269 218.593 671.593 218.579L673.701 218.579 673.701 220.505Z" fill="#FFFFFF" fill-rule="nonzero" fill-opacity="1" transform="matrix(1 0 0 1.00024 274 177.404)"/><path d="M676.632 204.187 676.632 201.618 679.085 201.618 679.085 204.187ZM678.937 220.555 676.78 220.555 676.78 206.706 678.937 206.706Z" fill="#FFFFFF" fill-rule="nonzero" fill-opacity="1" transform="matrix(1 0 0 1.00024 274 177.404)"/><path d="M693.444 207.233C694.469 207.864 695.3 208.764 695.848 209.835 696.99 212.173 696.99 214.906 695.848 217.245 695.3 218.315 694.469 219.216 693.444 219.846 692.427 220.475 691.249 220.802 690.052 220.785 689.059 220.802 688.078 220.563 687.203 220.093 686.349 219.639 685.631 218.962 685.129 218.134L685.129 219.007 685.129 224.803 683.004 224.803 683.004 206.69 685.079 206.69 685.079 209.028C685.581 208.195 686.298 207.513 687.154 207.052 688.028 206.583 689.01 206.344 690.003 206.36 691.21 206.314 692.405 206.617 693.444 207.233ZM692.209 218.15C692.919 217.679 693.489 217.026 693.856 216.257 694.638 214.529 694.638 212.55 693.856 210.823 693.489 210.054 692.919 209.4 692.209 208.929 690.763 208.007 688.913 208.007 687.467 208.929 686.755 209.398 686.186 210.052 685.82 210.823 685.038 212.55 685.038 214.529 685.82 216.257 686.186 217.027 686.755 217.681 687.467 218.15 688.913 219.073 690.763 219.073 692.209 218.15Z" fill="#FFFFFF" fill-rule="nonzero" fill-opacity="1" transform="matrix(1 0 0 1.00024 274 177.404)"/><path d="M701.859 220.472 699.685 220.472 699.685 201.536 701.859 201.536Z" fill="#FFFFFF" fill-rule="nonzero" fill-opacity="1" transform="matrix(1 0 0 1.00024 274 177.404)"/><path d="M713.945 206.871C714.708 207.226 715.35 207.799 715.79 208.517 716.234 209.323 716.456 210.232 716.432 211.152L716.432 220.456 714.324 220.456 714.324 218.397C713.917 219.158 713.285 219.774 712.513 220.159 711.632 220.587 710.66 220.797 709.68 220.769 708.846 220.788 708.016 220.614 707.26 220.258 706.593 219.952 706.023 219.468 705.613 218.858 705.228 218.236 705.029 217.516 705.037 216.784 705.032 216.082 705.22 215.392 705.58 214.791 705.954 214.175 706.474 213.66 707.095 213.293 707.772 212.901 708.524 212.66 709.302 212.585L713.336 212.189C713.614 212.166 713.871 212.03 714.044 211.811 714.238 211.526 714.331 211.183 714.308 210.839 714.321 210.329 714.182 209.825 713.912 209.39 713.644 208.969 713.262 208.633 712.809 208.419 712.29 208.193 711.729 208.081 711.162 208.089 710.598 208.084 710.039 208.191 709.516 208.402 709.046 208.587 708.628 208.88 708.297 209.258 707.991 209.586 707.795 209.999 707.737 210.444L705.63 210.444C705.715 209.67 706.023 208.937 706.519 208.336 707.065 207.684 707.76 207.17 708.544 206.838 709.392 206.457 710.314 206.266 711.245 206.278 712.178 206.27 713.101 206.472 713.945 206.871ZM712.299 218.611C712.919 218.318 713.441 217.849 713.797 217.261 714.159 216.667 714.342 215.98 714.324 215.285L714.324 213.639 709.615 214.116C708.954 214.165 708.335 214.452 707.869 214.923 707.441 215.363 707.204 215.955 707.21 216.57 707.204 217.014 707.329 217.449 707.573 217.821 707.836 218.195 708.193 218.49 708.61 218.677 709.081 218.888 709.593 218.995 710.109 218.99 710.848 219.035 711.586 218.906 712.266 218.611Z" fill="#FFFFFF" fill-rule="nonzero" fill-opacity="1" transform="matrix(1 0 0 1.00024 274 177.404)"/><path d="M723.924 220.472C723.06 220.51 722.213 220.222 721.553 219.665 720.955 219.092 720.636 218.285 720.68 217.459L720.68 208.534 718.243 208.534 718.243 206.624 719.742 206.624C720.049 206.634 720.349 206.515 720.565 206.294 720.782 206.075 720.901 205.779 720.894 205.471L720.894 203.149 722.887 203.149 722.887 206.624 726.18 206.624 726.18 208.534 722.887 208.534 722.887 217.36C722.862 217.691 722.982 218.015 723.216 218.249 723.455 218.476 723.776 218.595 724.105 218.579L726.18 218.579 726.18 220.505Z" fill="#FFFFFF" fill-rule="nonzero" fill-opacity="1" transform="matrix(1 0 0 1.00024 274 177.404)"/><path d="M729.852 220.472 729.852 208.534 727.431 208.534 727.431 206.624 729.852 206.624 729.852 204.532C729.812 203.706 730.13 202.902 730.725 202.326 731.38 201.761 732.233 201.478 733.096 201.536L735.582 201.536 735.582 203.446 733.244 203.446C732.91 203.426 732.582 203.546 732.339 203.775 732.118 204.017 732.004 204.338 732.026 204.664L732.026 206.624 735.451 206.624 735.451 208.534 732.026 208.534 732.026 220.472Z" fill="#FFFFFF" fill-rule="nonzero" fill-opacity="1" transform="matrix(1 0 0 1.00024 274 177.404)"/><path d="M740.275 219.846C739.227 219.227 738.367 218.333 737.789 217.261 736.582 214.926 736.582 212.152 737.789 209.818 738.367 208.741 739.233 207.846 740.292 207.233 742.503 205.983 745.211 205.983 747.422 207.233 748.481 207.846 749.347 208.741 749.925 209.818 750.534 210.963 750.845 212.242 750.831 213.54 750.849 214.839 750.531 216.12 749.908 217.261 749.33 218.338 748.464 219.234 747.406 219.846 745.192 221.096 742.487 221.096 740.275 219.846ZM746.269 218.2C746.974 217.744 747.542 217.106 747.916 216.356 748.718 214.61 748.718 212.601 747.916 210.856 747.542 210.1 746.974 209.458 746.269 208.995 744.774 208.14 742.94 208.14 741.445 208.995 740.732 209.448 740.162 210.093 739.798 210.856 738.996 212.601 738.996 214.61 739.798 216.356 740.162 217.113 740.732 217.754 741.445 218.2 742.933 219.079 744.781 219.079 746.269 218.2Z" fill="#FFFFFF" fill-rule="nonzero" fill-opacity="1" transform="matrix(1 0 0 1.00024 274 177.404)"/><path d="M760.529 206.476 760.529 208.748 760.019 208.748C758.914 208.69 757.837 209.102 757.055 209.884 756.286 210.758 755.896 211.901 755.968 213.062L755.968 220.472 753.811 220.472 753.811 206.624 755.968 206.624 755.968 209.407C756.309 208.545 756.877 207.793 757.615 207.233 758.349 206.724 759.225 206.459 760.118 206.476Z" fill="#FFFFFF" fill-rule="nonzero" fill-opacity="1" transform="matrix(1 0 0 1.00024 274 177.404)"/><path d="M780.981 206.97C781.74 207.431 782.353 208.099 782.743 208.896 783.168 209.779 783.375 210.749 783.352 211.728L783.352 220.472 781.195 220.472 781.195 211.827C781.256 210.844 780.958 209.873 780.355 209.094 779.758 208.432 778.89 208.079 778.001 208.139 777.293 208.122 776.594 208.312 775.992 208.682 775.401 209.085 774.946 209.66 774.691 210.329 774.368 211.071 774.21 211.875 774.23 212.683L774.23 220.555 772.056 220.555 772.056 211.91C772.122 210.928 771.816 209.958 771.2 209.193 770.584 208.524 769.701 208.168 768.796 208.221 768.093 208.2 767.399 208.389 766.803 208.764 766.214 209.161 765.769 209.739 765.535 210.411 765.226 211.157 765.074 211.959 765.091 212.766L765.091 220.637 762.934 220.637 762.934 206.788 765.008 206.788 765.008 208.83C765.392 208.107 765.96 207.5 766.655 207.068 767.409 206.648 768.262 206.438 769.125 206.459 770.07 206.446 770.999 206.696 771.809 207.184 772.586 207.671 773.204 208.376 773.588 209.209 774.026 208.371 774.688 207.671 775.498 207.184 776.337 206.695 777.293 206.444 778.264 206.459 779.199 206.378 780.138 206.555 780.981 206.97Z" fill="#FFFFFF" fill-rule="nonzero" fill-opacity="1" transform="matrix(1 0 0 1.00024 274 177.404)"/></g></g></g></g></g></svg>