<svg width="624" height="324" xmlns="http://www.w3.org/2000/svg" xmlns:xlink="http://www.w3.org/1999/xlink" xml:space="preserve" overflow="hidden"><defs><linearGradient x1="181.733" y1="347.536" x2="268.529" y2="237.547" gradientUnits="userSpaceOnUse" spreadMethod="pad" id="fill0"><stop offset="0" stop-color="#EA4961" stop-opacity="1"/><stop offset="0.890523" stop-color="#7F52FF" stop-opacity="1"/><stop offset="1" stop-color="#7F52FF" stop-opacity="1"/></linearGradient></defs><g transform="translate(-152 -252)"><g><g><g><g><g><path d="M101.969 130.418 398.691 130.409C401.867 130.409 404.577 132.713 405.081 135.839L418.258 217.568C418.891 221.498 415.854 225.062 411.868 225.062L115.229 225.071C112.053 225.071 109.348 222.772 108.839 219.642L95.579 137.917C94.9409 133.987 97.9789 130.418 101.969 130.418ZM427.455 321.71 287.058 321.71C283.877 321.71 281.167 319.401 280.668 316.266L267.584 234.509C266.955 230.58 269.992 227.024 273.973 227.024L414.273 227.024C417.45 227.024 420.159 229.328 420.663 232.459L433.85 314.221C434.482 318.15 431.44 321.71 427.455 321.71ZM111.235 234.518 124.333 316.271C124.837 319.406 127.546 321.715 130.723 321.715L272.026 321.71C276.007 321.71 279.045 318.154 278.416 314.225L265.355 232.473C264.855 229.338 262.146 227.029 258.96 227.029L117.625 227.034C113.643 227.034 110.606 230.589 111.235 234.518Z" fill="url(#fill0)" fill-rule="evenodd" transform="matrix(1 0 0 1.00036 153 253)"/><path d="M109.131 151.897 107.527 141.952 111.055 141.952C111.757 141.952 112.354 142.072 112.848 142.307 113.343 142.543 113.736 142.866 114.023 143.263 114.309 143.665 114.494 144.104 114.573 144.593 114.642 145.022 114.624 145.374 114.513 145.65 114.407 145.927 114.24 146.149 114.018 146.311 113.796 146.472 113.547 146.592 113.269 146.671L113.283 146.768C113.593 146.786 113.921 146.893 114.263 147.086 114.605 147.28 114.91 147.558 115.183 147.922 115.451 148.287 115.627 148.73 115.715 149.252 115.794 149.751 115.752 150.198 115.586 150.596 115.419 150.993 115.109 151.311 114.651 151.542 114.194 151.773 113.565 151.893 112.774 151.893L109.131 151.893 109.131 151.897ZM109.455 146.32 111.72 146.32C112.085 146.32 112.409 146.251 112.682 146.107 112.955 145.965 113.163 145.766 113.292 145.507 113.426 145.249 113.463 144.944 113.408 144.593 113.338 144.154 113.121 143.785 112.765 143.48 112.409 143.176 111.891 143.023 111.225 143.023L108.918 143.023 109.455 146.32ZM110.181 150.826 112.603 150.826C113.403 150.826 113.944 150.674 114.231 150.369 114.517 150.065 114.629 149.69 114.555 149.257 114.499 148.919 114.365 148.61 114.143 148.324 113.921 148.037 113.639 147.807 113.287 147.636 112.936 147.46 112.543 147.377 112.104 147.377L109.621 147.377 110.181 150.826Z" fill="#FFFFFF" fill-rule="nonzero" fill-opacity="1" transform="matrix(1 0 0 1.00036 153 253)"/><path d="M122.063 148.846 121.351 144.436 122.512 144.436 123.714 151.897 122.553 151.897 122.35 150.632 122.271 150.632C122.156 151.011 121.929 151.334 121.601 151.598 121.273 151.861 120.819 151.994 120.246 151.994 119.774 151.994 119.335 151.893 118.938 151.685 118.535 151.477 118.198 151.168 117.92 150.753 117.643 150.337 117.453 149.81 117.352 149.178L116.589 144.436 117.749 144.436 118.503 149.099C118.591 149.644 118.817 150.078 119.178 150.401 119.539 150.724 119.964 150.886 120.445 150.886 120.731 150.886 121.018 150.812 121.296 150.669 121.573 150.522 121.79 150.3 121.947 150 122.105 149.7 122.142 149.312 122.063 148.846Z" fill="#FFFFFF" fill-rule="nonzero" fill-opacity="1" transform="matrix(1 0 0 1.00036 153 253)"/><path d="M130.066 146.107 129.068 146.399C128.975 146.228 128.85 146.061 128.698 145.895 128.545 145.729 128.351 145.595 128.12 145.489 127.884 145.383 127.602 145.327 127.26 145.327 126.797 145.327 126.427 145.433 126.155 145.641 125.882 145.849 125.771 146.117 125.822 146.435 125.868 146.722 126.012 146.943 126.247 147.109 126.483 147.275 126.835 147.414 127.297 147.52L128.462 147.793C129.165 147.954 129.71 148.199 130.094 148.531 130.478 148.864 130.714 149.289 130.797 149.811 130.866 150.24 130.801 150.618 130.612 150.955 130.418 151.293 130.117 151.556 129.706 151.75 129.294 151.944 128.795 152.041 128.208 152.041 127.436 152.041 126.77 151.874 126.21 151.546 125.651 151.219 125.253 150.734 125.017 150.101L126.076 149.829C126.247 150.231 126.492 150.531 126.821 150.734 127.149 150.937 127.547 151.034 128.023 151.034 128.564 151.034 128.975 150.919 129.262 150.692 129.544 150.461 129.659 150.189 129.609 149.87 129.567 149.612 129.442 149.395 129.23 149.215 129.017 149.039 128.712 148.906 128.319 148.818L127.01 148.527C126.289 148.365 125.743 148.116 125.364 147.774 124.985 147.433 124.754 147.003 124.671 146.491 124.601 146.071 124.661 145.697 124.851 145.374 125.04 145.05 125.327 144.796 125.72 144.612 126.109 144.427 126.571 144.334 127.103 144.334 127.852 144.334 128.466 144.496 128.948 144.819 129.428 145.143 129.798 145.576 130.066 146.107Z" fill="#FFFFFF" fill-rule="nonzero" fill-opacity="1" transform="matrix(1 0 0 1.00036 153 253)"/><path d="M131.869 143.194C131.643 143.194 131.435 143.116 131.25 142.963 131.065 142.811 130.954 142.626 130.917 142.414 130.88 142.201 130.935 142.017 131.074 141.864 131.213 141.712 131.393 141.638 131.62 141.638 131.846 141.638 132.054 141.716 132.239 141.864 132.429 142.017 132.535 142.201 132.572 142.414 132.609 142.626 132.554 142.811 132.415 142.963 132.276 143.116 132.096 143.194 131.869 143.194ZM132.683 151.897 131.481 144.436 132.641 144.436 133.843 151.897 132.683 151.897Z" fill="#FFFFFF" fill-rule="nonzero" fill-opacity="1" transform="matrix(1 0 0 1.00036 153 253)"/><path d="M136.202 147.41 136.928 151.897 135.767 151.897 134.565 144.436 135.688 144.436 135.878 145.604 135.975 145.604C136.09 145.226 136.312 144.921 136.636 144.69 136.96 144.459 137.408 144.343 137.977 144.343 138.49 144.343 138.952 144.445 139.373 144.653 139.79 144.861 140.141 145.17 140.418 145.586 140.7 146.001 140.89 146.527 140.991 147.16L141.754 151.902 140.594 151.902 139.84 147.239C139.743 146.652 139.517 146.195 139.156 145.867 138.795 145.54 138.342 145.373 137.806 145.373 137.436 145.373 137.117 145.452 136.854 145.613 136.59 145.775 136.396 146.006 136.28 146.306 136.155 146.606 136.132 146.976 136.202 147.41Z" fill="#FFFFFF" fill-rule="nonzero" fill-opacity="1" transform="matrix(1 0 0 1.00036 153 253)"/><path d="M146.868 152.05C146.138 152.05 145.486 151.888 144.908 151.57 144.33 151.251 143.853 150.803 143.474 150.231 143.1 149.658 142.846 148.989 142.725 148.222 142.6 147.46 142.638 146.786 142.827 146.2 143.017 145.613 143.34 145.161 143.798 144.828 144.256 144.501 144.825 144.334 145.509 144.334 145.902 144.334 146.304 144.399 146.706 144.529 147.113 144.658 147.497 144.866 147.857 145.156 148.218 145.447 148.532 145.83 148.796 146.306 149.06 146.782 149.249 147.368 149.36 148.065L149.439 148.55 143.608 148.55 143.447 147.557 148.098 147.557C148.028 147.137 147.885 146.763 147.663 146.431 147.441 146.103 147.159 145.84 146.817 145.65 146.475 145.461 146.096 145.364 145.675 145.364 145.213 145.364 144.829 145.475 144.529 145.701 144.228 145.927 144.015 146.219 143.895 146.578 143.775 146.938 143.743 147.322 143.812 147.733L143.918 148.393C144.011 148.956 144.186 149.432 144.445 149.825 144.709 150.217 145.032 150.512 145.416 150.715 145.804 150.919 146.23 151.02 146.701 151.02 147.007 151.02 147.275 150.979 147.511 150.891 147.747 150.803 147.936 150.674 148.088 150.503 148.241 150.332 148.348 150.115 148.403 149.857L149.577 150.166C149.522 150.54 149.374 150.872 149.143 151.154 148.912 151.436 148.602 151.657 148.213 151.814 147.83 151.971 147.381 152.05 146.868 152.05Z" fill="#FFFFFF" fill-rule="nonzero" fill-opacity="1" transform="matrix(1 0 0 1.00036 153 253)"/><path d="M155.967 146.107 154.969 146.399C154.876 146.228 154.751 146.061 154.599 145.895 154.446 145.734 154.252 145.595 154.021 145.489 153.785 145.383 153.503 145.327 153.161 145.327 152.699 145.327 152.329 145.433 152.056 145.641 151.783 145.849 151.672 146.117 151.723 146.435 151.769 146.722 151.912 146.943 152.148 147.109 152.384 147.275 152.735 147.414 153.198 147.52L154.363 147.793C155.066 147.954 155.611 148.199 155.995 148.531 156.379 148.864 156.614 149.289 156.698 149.811 156.767 150.24 156.702 150.618 156.513 150.955 156.318 151.293 156.018 151.556 155.607 151.75 155.195 151.944 154.696 152.041 154.109 152.041 153.336 152.041 152.671 151.874 152.111 151.546 151.552 151.219 151.154 150.734 150.918 150.101L151.977 149.829C152.148 150.231 152.393 150.531 152.722 150.734 153.05 150.937 153.447 151.034 153.924 151.034 154.465 151.034 154.876 150.919 155.163 150.692 155.445 150.461 155.561 150.189 155.509 149.87 155.468 149.612 155.339 149.395 155.13 149.215 154.918 149.039 154.613 148.906 154.22 148.818L152.911 148.527C152.195 148.365 151.644 148.116 151.265 147.774 150.886 147.433 150.655 147.003 150.572 146.491 150.502 146.071 150.562 145.697 150.752 145.374 150.942 145.05 151.228 144.796 151.621 144.612 152.009 144.427 152.472 144.334 153.004 144.334 153.753 144.334 154.368 144.496 154.848 144.819 155.329 145.152 155.704 145.576 155.967 146.107Z" fill="#FFFFFF" fill-rule="nonzero" fill-opacity="1" transform="matrix(1 0 0 1.00036 153 253)"/><path d="M163.009 146.107 162.01 146.399C161.918 146.228 161.793 146.061 161.64 145.895 161.488 145.729 161.293 145.595 161.062 145.489 160.827 145.383 160.545 145.327 160.202 145.327 159.74 145.327 159.37 145.433 159.097 145.641 158.824 145.849 158.714 146.117 158.764 146.435 158.81 146.722 158.954 146.943 159.189 147.109 159.425 147.275 159.777 147.414 160.239 147.52L161.404 147.793C162.107 147.954 162.653 148.199 163.037 148.531 163.42 148.864 163.656 149.289 163.739 149.811 163.808 150.24 163.744 150.618 163.554 150.955 163.36 151.293 163.059 151.556 162.648 151.75 162.237 151.944 161.737 152.041 161.15 152.041 160.378 152.041 159.712 151.874 159.153 151.546 158.593 151.219 158.196 150.734 157.96 150.101L159.019 149.829C159.189 150.231 159.435 150.531 159.763 150.734 160.091 150.937 160.489 151.034 160.965 151.034 161.506 151.034 161.918 150.919 162.204 150.692 162.486 150.461 162.602 150.189 162.551 149.87 162.51 149.612 162.385 149.395 162.172 149.215 161.959 149.039 161.654 148.906 161.261 148.818L159.953 148.527C159.231 148.365 158.686 148.116 158.306 147.774 157.927 147.433 157.696 147.003 157.613 146.491 157.544 146.071 157.604 145.697 157.793 145.374 157.983 145.05 158.27 144.796 158.663 144.612 159.051 144.427 159.513 144.334 160.045 144.334 160.794 144.334 161.409 144.496 161.89 144.819 162.371 145.143 162.745 145.576 163.009 146.107Z" fill="#FFFFFF" fill-rule="nonzero" fill-opacity="1" transform="matrix(1 0 0 1.00036 153 253)"/><path d="M168.881 141.952 170.485 151.897 169.324 151.897 167.72 141.952 168.881 141.952Z" fill="#FFFFFF" fill-rule="nonzero" fill-opacity="1" transform="matrix(1 0 0 1.00036 153 253)"/><path d="M175.501 152.05C174.817 152.05 174.193 151.888 173.629 151.57 173.065 151.251 172.589 150.798 172.209 150.226 171.83 149.649 171.576 148.975 171.451 148.203 171.326 147.428 171.359 146.749 171.553 146.167 171.747 145.586 172.076 145.138 172.538 144.819 173 144.496 173.573 144.339 174.258 144.339 174.942 144.339 175.566 144.501 176.13 144.819 176.694 145.138 177.17 145.59 177.55 146.167 177.929 146.745 178.183 147.423 178.308 148.203 178.433 148.975 178.396 149.649 178.201 150.226 178.008 150.803 177.679 151.251 177.217 151.57 176.759 151.893 176.186 152.05 175.501 152.05ZM175.335 151.02C175.853 151.02 176.26 150.891 176.551 150.628 176.842 150.365 177.036 150.023 177.129 149.594 177.221 149.164 177.226 148.702 177.147 148.203 177.069 147.705 176.912 147.239 176.681 146.809 176.449 146.38 176.144 146.029 175.77 145.766 175.391 145.498 174.942 145.369 174.424 145.369 173.906 145.369 173.499 145.503 173.208 145.766 172.917 146.029 172.723 146.38 172.63 146.809 172.538 147.239 172.533 147.705 172.612 148.203 172.69 148.702 172.847 149.164 173.079 149.594 173.31 150.023 173.611 150.365 173.99 150.628 174.369 150.891 174.817 151.02 175.335 151.02Z" fill="#FFFFFF" fill-rule="nonzero" fill-opacity="1" transform="matrix(1 0 0 1.00036 153 253)"/><path d="M184 154.848C183.44 154.848 182.945 154.779 182.515 154.636 182.09 154.497 181.725 154.312 181.42 154.081 181.114 153.855 180.865 153.611 180.666 153.352L181.489 152.71C181.614 152.844 181.776 153.001 181.965 153.176 182.155 153.352 182.4 153.509 182.7 153.638 183.001 153.767 183.38 153.837 183.838 153.837 184.448 153.837 184.929 153.689 185.28 153.398 185.632 153.107 185.757 152.65 185.655 152.027L185.41 150.512 185.313 150.512C185.248 150.646 185.156 150.817 185.031 151.016 184.906 151.214 184.712 151.389 184.448 151.546 184.184 151.699 183.805 151.778 183.311 151.778 182.7 151.778 182.127 151.634 181.6 151.348 181.068 151.062 180.62 150.651 180.25 150.106 179.88 149.561 179.635 148.901 179.51 148.125 179.385 147.359 179.417 146.694 179.598 146.126 179.778 145.558 180.088 145.119 180.522 144.806 180.957 144.491 181.494 144.339 182.131 144.339 182.622 144.339 183.029 144.417 183.343 144.579 183.657 144.741 183.912 144.921 184.101 145.124 184.291 145.327 184.439 145.493 184.545 145.623L184.665 145.623 184.476 144.436 185.599 144.436 186.839 152.11C186.94 152.752 186.88 153.274 186.649 153.675 186.418 154.077 186.075 154.377 185.609 154.566 185.142 154.755 184.605 154.848 184 154.848ZM183.297 150.753C183.764 150.753 184.138 150.646 184.43 150.438 184.716 150.226 184.915 149.926 185.017 149.529 185.118 149.132 185.127 148.661 185.04 148.111 184.952 147.576 184.795 147.1 184.564 146.689 184.332 146.278 184.036 145.955 183.676 145.724 183.315 145.493 182.899 145.373 182.427 145.373 181.938 145.373 181.544 145.498 181.258 145.743 180.971 145.988 180.777 146.32 180.685 146.736 180.587 147.151 180.583 147.608 180.661 148.116 180.744 148.633 180.902 149.09 181.133 149.487 181.364 149.884 181.66 150.194 182.021 150.42 182.391 150.637 182.811 150.753 183.297 150.753Z" fill="#FFFFFF" fill-rule="nonzero" fill-opacity="1" transform="matrix(1 0 0 1.00036 153 253)"/><path d="M187.902 143.194C187.675 143.194 187.467 143.116 187.282 142.963 187.097 142.811 186.986 142.626 186.949 142.414 186.912 142.201 186.967 142.017 187.106 141.864 187.245 141.712 187.425 141.638 187.652 141.638 187.879 141.638 188.087 141.716 188.271 141.864 188.461 142.017 188.567 142.201 188.604 142.414 188.641 142.626 188.586 142.811 188.447 142.963 188.308 143.116 188.128 143.194 187.902 143.194ZM188.715 151.897 187.513 144.436 188.674 144.436 189.876 151.897 188.715 151.897Z" fill="#FFFFFF" fill-rule="nonzero" fill-opacity="1" transform="matrix(1 0 0 1.00036 153 253)"/><path d="M194.893 152.05C194.185 152.05 193.547 151.883 192.978 151.556 192.414 151.228 191.947 150.771 191.577 150.189 191.207 149.607 190.962 148.947 190.842 148.204 190.722 147.446 190.754 146.777 190.944 146.195 191.133 145.613 191.457 145.161 191.915 144.828 192.372 144.501 192.941 144.334 193.625 144.334 194.157 144.334 194.652 144.431 195.11 144.626 195.567 144.819 195.96 145.092 196.289 145.443 196.617 145.794 196.853 146.2 196.991 146.666L195.831 146.666C195.688 146.325 195.442 146.024 195.096 145.761 194.749 145.498 194.319 145.364 193.806 145.364 193.353 145.364 192.974 145.48 192.673 145.711 192.372 145.941 192.16 146.269 192.04 146.689 191.919 147.109 191.906 147.599 191.993 148.162 192.086 148.74 192.262 149.238 192.516 149.668 192.77 150.097 193.085 150.425 193.464 150.665 193.843 150.9 194.259 151.02 194.721 151.02 195.022 151.02 195.29 150.969 195.521 150.863 195.752 150.762 195.937 150.609 196.076 150.416 196.215 150.221 196.298 149.986 196.326 149.713L197.486 149.713C197.491 150.157 197.394 150.549 197.195 150.9 196.996 151.251 196.7 151.528 196.312 151.736 195.924 151.944 195.452 152.05 194.893 152.05Z" fill="#FFFFFF" fill-rule="nonzero" fill-opacity="1" transform="matrix(1 0 0 1.00036 153 253)"/><path d="M113.228 164.465C112.747 164.465 112.298 164.378 111.878 164.198 111.457 164.018 111.106 163.759 110.819 163.417 110.532 163.076 110.352 162.66 110.273 162.176 110.204 161.746 110.232 161.4 110.361 161.132 110.49 160.864 110.685 160.656 110.944 160.504 111.202 160.352 111.503 160.236 111.836 160.162 112.169 160.084 112.511 160.024 112.853 159.978 113.302 159.918 113.672 159.876 113.954 159.844 114.236 159.811 114.439 159.761 114.559 159.687 114.68 159.613 114.726 159.484 114.693 159.299L114.689 159.262C114.61 158.782 114.42 158.412 114.111 158.145 113.806 157.881 113.38 157.747 112.849 157.747 112.294 157.747 111.878 157.867 111.6 158.107 111.323 158.348 111.142 158.602 111.059 158.874L109.894 158.486C110.019 158.034 110.223 157.678 110.514 157.424 110.801 157.17 111.133 156.99 111.512 156.889 111.892 156.787 112.266 156.736 112.65 156.736 112.895 156.736 113.177 156.764 113.505 156.819 113.833 156.875 114.157 156.99 114.481 157.166 114.804 157.341 115.095 157.604 115.35 157.955 115.604 158.306 115.78 158.782 115.872 159.373L116.663 164.286 115.502 164.286 115.341 163.274 115.281 163.274C115.229 163.436 115.123 163.611 114.971 163.791 114.818 163.976 114.596 164.133 114.314 164.262 114.032 164.392 113.667 164.465 113.228 164.465ZM113.237 163.436C113.694 163.436 114.069 163.348 114.36 163.168 114.647 162.988 114.85 162.762 114.966 162.48 115.082 162.198 115.119 161.903 115.068 161.594L114.897 160.545C114.855 160.605 114.758 160.656 114.601 160.702 114.444 160.749 114.259 160.79 114.051 160.823 113.842 160.855 113.639 160.887 113.441 160.91 113.242 160.933 113.08 160.956 112.959 160.97 112.663 161.007 112.391 161.072 112.146 161.16 111.896 161.248 111.706 161.372 111.577 161.543 111.443 161.713 111.401 161.945 111.448 162.235 111.512 162.632 111.711 162.933 112.044 163.136 112.377 163.334 112.775 163.436 113.237 163.436Z" fill="#FFFFFF" fill-rule="nonzero" fill-opacity="1" transform="matrix(1 0 0 1.00036 153 253)"/><path d="M119.025 159.802 119.751 164.29 118.591 164.29 117.389 156.829 118.512 156.829 118.702 157.992 118.799 157.992C118.914 157.614 119.136 157.309 119.46 157.078 119.783 156.847 120.232 156.732 120.801 156.732 121.314 156.732 121.776 156.833 122.197 157.041 122.613 157.249 122.965 157.558 123.242 157.974 123.524 158.39 123.714 158.916 123.815 159.548L124.578 164.29 123.418 164.29 122.664 159.627C122.571 159.04 122.34 158.583 121.979 158.255 121.619 157.927 121.166 157.761 120.63 157.761 120.26 157.761 119.941 157.84 119.677 158.001 119.414 158.163 119.219 158.39 119.104 158.694 118.988 158.999 118.956 159.368 119.025 159.802Z" fill="#FFFFFF" fill-rule="nonzero" fill-opacity="1" transform="matrix(1 0 0 1.00036 153 253)"/><path d="M129.377 164.447C128.749 164.447 128.166 164.29 127.629 163.971 127.098 163.657 126.645 163.21 126.279 162.632 125.914 162.055 125.669 161.372 125.54 160.583 125.415 159.797 125.438 159.119 125.618 158.542 125.798 157.965 126.104 157.521 126.543 157.207 126.978 156.893 127.514 156.736 128.152 156.736 128.646 156.736 129.049 156.815 129.359 156.977 129.673 157.138 129.923 157.318 130.108 157.521 130.293 157.725 130.441 157.891 130.547 158.02L130.644 158.02 130.052 154.349 131.213 154.349 132.817 164.295 131.694 164.295 131.509 163.149 131.37 163.149C131.305 163.284 131.213 163.454 131.088 163.662 130.963 163.87 130.769 164.05 130.501 164.212 130.237 164.364 129.863 164.447 129.377 164.447ZM129.368 163.417C129.835 163.417 130.21 163.297 130.491 163.057 130.773 162.817 130.963 162.48 131.065 162.051 131.167 161.621 131.167 161.127 131.074 160.564 130.986 160.005 130.824 159.52 130.593 159.1 130.362 158.68 130.066 158.352 129.706 158.121 129.345 157.891 128.929 157.77 128.457 157.77 127.962 157.77 127.574 157.895 127.288 158.14 127.001 158.385 126.811 158.722 126.714 159.147 126.622 159.567 126.617 160.042 126.7 160.569 126.784 161.1 126.945 161.58 127.181 162.014 127.417 162.448 127.717 162.789 128.087 163.043 128.457 163.288 128.883 163.417 129.368 163.417Z" fill="#FFFFFF" fill-rule="nonzero" fill-opacity="1" transform="matrix(1 0 0 1.00036 153 253)"/><path d="M141.69 164.447C140.982 164.447 140.345 164.281 139.78 163.953 139.216 163.621 138.749 163.168 138.38 162.587 138.01 162.005 137.764 161.344 137.644 160.601 137.524 159.844 137.556 159.174 137.746 158.592 137.936 158.011 138.259 157.558 138.717 157.226 139.175 156.898 139.743 156.732 140.428 156.732 140.959 156.732 141.454 156.829 141.912 157.023 142.369 157.217 142.763 157.489 143.091 157.84 143.419 158.191 143.655 158.597 143.794 159.064L142.633 159.064C142.49 158.722 142.245 158.422 141.898 158.158 141.551 157.895 141.121 157.761 140.608 157.761 140.155 157.761 139.776 157.877 139.475 158.108 139.175 158.338 138.962 158.666 138.837 159.082 138.717 159.502 138.703 159.992 138.791 160.555 138.884 161.132 139.059 161.631 139.313 162.06 139.568 162.49 139.882 162.817 140.261 163.057 140.64 163.297 141.056 163.413 141.519 163.413 141.819 163.413 142.087 163.362 142.314 163.256 142.545 163.154 142.73 163.002 142.869 162.808 143.007 162.614 143.091 162.378 143.119 162.111L144.279 162.111C144.284 162.549 144.186 162.947 143.983 163.297 143.784 163.648 143.489 163.926 143.1 164.133 142.712 164.341 142.245 164.447 141.69 164.447Z" fill="#FFFFFF" fill-rule="nonzero" fill-opacity="1" transform="matrix(1 0 0 1.00036 153 253)"/><path d="M149.221 164.447C148.537 164.447 147.913 164.286 147.349 163.967 146.785 163.643 146.309 163.196 145.93 162.623 145.551 162.046 145.296 161.372 145.171 160.601 145.047 159.825 145.079 159.147 145.273 158.565 145.467 157.988 145.795 157.535 146.258 157.217 146.72 156.898 147.294 156.736 147.973 156.736 148.657 156.736 149.282 156.898 149.846 157.217 150.41 157.535 150.886 157.988 151.265 158.565 151.644 159.142 151.899 159.821 152.023 160.601 152.148 161.372 152.111 162.046 151.917 162.623 151.723 163.2 151.395 163.648 150.932 163.967 150.479 164.286 149.906 164.447 149.221 164.447ZM149.055 163.418C149.573 163.418 149.98 163.288 150.271 163.025 150.562 162.762 150.756 162.42 150.849 161.991 150.941 161.561 150.946 161.1 150.867 160.601 150.789 160.102 150.631 159.636 150.4 159.206 150.169 158.777 149.864 158.426 149.49 158.163 149.115 157.9 148.662 157.766 148.144 157.766 147.626 157.766 147.22 157.9 146.928 158.163 146.637 158.426 146.443 158.777 146.355 159.206 146.262 159.636 146.258 160.102 146.336 160.601 146.415 161.1 146.572 161.561 146.803 161.991 147.035 162.42 147.335 162.762 147.714 163.025 148.089 163.284 148.537 163.418 149.055 163.418Z" fill="#FFFFFF" fill-rule="nonzero" fill-opacity="1" transform="matrix(1 0 0 1.00036 153 253)"/><path d="M154.192 164.29 152.989 156.829 154.113 156.829 154.293 157.955 154.372 157.955C154.45 157.586 154.649 157.286 154.978 157.055 155.306 156.824 155.689 156.709 156.143 156.709 156.226 156.709 156.337 156.709 156.462 156.713 156.591 156.718 156.688 156.723 156.753 156.727L156.943 157.891C156.901 157.882 156.809 157.868 156.665 157.844 156.522 157.821 156.374 157.812 156.221 157.812 155.851 157.812 155.537 157.886 155.274 158.038 155.01 158.191 154.816 158.399 154.696 158.662 154.571 158.925 154.538 159.225 154.594 159.562L155.357 164.281 154.192 164.281 154.192 164.29Z" fill="#FFFFFF" fill-rule="nonzero" fill-opacity="1" transform="matrix(1 0 0 1.00036 153 253)"/><path d="M162.343 164.447C161.612 164.447 160.96 164.286 160.382 163.967 159.804 163.648 159.328 163.2 158.949 162.628 158.575 162.055 158.32 161.386 158.2 160.619 158.075 159.857 158.112 159.183 158.302 158.597 158.491 158.011 158.815 157.558 159.273 157.226 159.73 156.898 160.299 156.732 160.983 156.732 161.376 156.732 161.778 156.797 162.181 156.926 162.588 157.055 162.972 157.263 163.332 157.554 163.693 157.844 164.007 158.228 164.271 158.703 164.534 159.179 164.724 159.765 164.835 160.462L164.913 160.947 159.083 160.947 158.921 159.955 163.573 159.955C163.503 159.534 163.36 159.16 163.138 158.828 162.916 158.496 162.634 158.237 162.292 158.048 161.95 157.858 161.571 157.761 161.15 157.761 160.687 157.761 160.304 157.872 160.003 158.098 159.703 158.325 159.49 158.616 159.37 158.976 159.245 159.336 159.217 159.719 159.286 160.13L159.393 160.79C159.485 161.354 159.661 161.829 159.92 162.222 160.184 162.614 160.507 162.91 160.891 163.113 161.279 163.316 161.704 163.418 162.176 163.418 162.481 163.418 162.75 163.376 162.985 163.288 163.221 163.2 163.411 163.071 163.563 162.9 163.716 162.73 163.822 162.513 163.878 162.254L165.052 162.563C164.996 162.937 164.848 163.27 164.617 163.551 164.386 163.833 164.077 164.055 163.688 164.212 163.3 164.369 162.856 164.447 162.343 164.447Z" fill="#FFFFFF" fill-rule="nonzero" fill-opacity="1" transform="matrix(1 0 0 1.00036 153 253)"/><path d="M99.8332 111.312C99.773 110.813 99.5325 110.425 99.1119 110.153 98.691 109.88 98.1779 109.742 97.5631 109.742 97.1144 109.742 96.7259 109.816 96.3932 109.959 96.0601 110.102 95.8014 110.3 95.6167 110.554 95.4315 110.808 95.3389 111.095 95.3389 111.413 95.3389 111.681 95.4038 111.912 95.5332 112.106 95.6625 112.3 95.8291 112.457 96.0324 112.581 96.2362 112.706 96.4486 112.812 96.6706 112.891 96.8925 112.969 97.1006 113.034 97.2853 113.085L98.312 113.362C98.5755 113.431 98.8666 113.528 99.1903 113.648 99.5139 113.768 99.8236 113.934 100.12 114.142 100.415 114.35 100.661 114.618 100.855 114.941 101.049 115.264 101.146 115.666 101.146 116.137 101.146 116.681 101.003 117.171 100.721 117.614 100.434 118.053 100.023 118.404 99.4818 118.662 98.9363 118.921 98.2795 119.05 97.503 119.05 96.7818 119.05 96.1574 118.935 95.6305 118.699 95.1031 118.468 94.6869 118.141 94.3914 117.725 94.0907 117.31 93.9194 116.825 93.8826 116.275L95.1446 116.275C95.1771 116.654 95.3069 116.968 95.5332 117.217 95.7599 117.467 96.0419 117.647 96.3885 117.766 96.7355 117.887 97.1097 117.946 97.5073 117.946 97.9745 117.946 98.3907 117.868 98.765 117.716 99.1396 117.564 99.4308 117.351 99.648 117.079 99.8656 116.806 99.9716 116.483 99.9716 116.118 99.9716 115.786 99.8794 115.513 99.6899 115.301 99.5048 115.093 99.2551 114.922 98.9501 114.789 98.6447 114.659 98.3167 114.544 97.9607 114.442L96.7216 114.086C95.9355 113.861 95.3112 113.537 94.8492 113.117 94.3867 112.697 94.16 112.147 94.16 111.469 94.16 110.905 94.3127 110.411 94.6225 109.991 94.9275 109.571 95.3437 109.243 95.8615 109.008 96.3842 108.772 96.9617 108.657 97.6094 108.657 98.2609 108.657 98.8389 108.772 99.343 109.003 99.847 109.234 100.249 109.548 100.545 109.95 100.841 110.351 100.998 110.804 101.017 111.312L99.8332 111.312Z" fill="#777A80" fill-rule="nonzero" fill-opacity="1" transform="matrix(1 0 0 1.00036 153 253)"/><path d="M103.962 114.323 103.962 118.866 102.801 118.866 102.801 108.791 103.962 108.791 103.962 112.49 104.059 112.49C104.235 112.097 104.503 111.788 104.859 111.557 105.215 111.326 105.692 111.21 106.283 111.21 106.801 111.21 107.249 111.312 107.638 111.52 108.026 111.723 108.327 112.037 108.544 112.462 108.757 112.882 108.868 113.418 108.868 114.069L108.868 118.871 107.707 118.871 107.707 114.147C107.707 113.547 107.55 113.081 107.24 112.753 106.931 112.425 106.501 112.259 105.95 112.259 105.571 112.259 105.229 112.337 104.928 112.499 104.628 112.66 104.392 112.896 104.221 113.2 104.045 113.51 103.962 113.884 103.962 114.323Z" fill="#777A80" fill-rule="nonzero" fill-opacity="1" transform="matrix(1 0 0 1.00036 153 253)"/><path d="M113.014 119.046C112.534 119.046 112.099 118.954 111.711 118.774 111.322 118.594 111.008 118.326 110.782 117.984 110.55 117.638 110.435 117.217 110.435 116.728 110.435 116.294 110.518 115.943 110.689 115.671 110.86 115.398 111.087 115.186 111.373 115.033 111.66 114.881 111.974 114.766 112.321 114.687 112.668 114.609 113.014 114.549 113.366 114.503 113.823 114.443 114.198 114.397 114.485 114.369 114.771 114.337 114.984 114.285 115.114 114.207 115.248 114.133 115.313 113.999 115.313 113.815L115.313 113.778C115.313 113.293 115.178 112.914 114.915 112.647 114.651 112.379 114.249 112.245 113.717 112.245 113.162 112.245 112.728 112.365 112.413 112.609 112.099 112.854 111.877 113.113 111.748 113.385L110.643 112.993C110.841 112.536 111.105 112.175 111.433 111.917 111.761 111.658 112.127 111.478 112.515 111.377 112.904 111.275 113.292 111.22 113.675 111.22 113.921 111.22 114.198 111.247 114.517 111.308 114.836 111.363 115.141 111.483 115.437 111.658 115.733 111.834 115.983 112.101 116.177 112.462 116.376 112.818 116.473 113.298 116.473 113.898L116.473 118.875 115.313 118.875 115.313 117.85 115.252 117.85C115.174 118.017 115.04 118.192 114.859 118.376 114.674 118.566 114.429 118.723 114.124 118.852 113.823 118.981 113.454 119.046 113.014 119.046ZM113.19 118.003C113.648 118.003 114.036 117.91 114.355 117.73 114.674 117.55 114.91 117.319 115.077 117.033 115.243 116.747 115.322 116.446 115.322 116.132L115.322 115.071C115.271 115.13 115.165 115.181 114.998 115.232 114.831 115.278 114.642 115.32 114.425 115.357 114.207 115.394 113.999 115.422 113.8 115.444 113.597 115.467 113.435 115.491 113.31 115.505 113.01 115.541 112.728 115.606 112.464 115.694 112.205 115.782 111.992 115.911 111.835 116.082 111.678 116.253 111.595 116.488 111.595 116.784 111.595 117.185 111.748 117.49 112.048 117.698 112.344 117.901 112.728 118.003 113.19 118.003Z" fill="#777A80" fill-rule="nonzero" fill-opacity="1" transform="matrix(1 0 0 1.00036 153 253)"/><path d="M118.401 118.871 118.401 111.312 119.525 111.312 119.525 112.452 119.603 112.452C119.742 112.079 119.992 111.774 120.352 111.543 120.713 111.312 121.12 111.192 121.573 111.192 121.656 111.192 121.767 111.192 121.892 111.196 122.017 111.201 122.118 111.206 122.183 111.21L122.183 112.393C122.142 112.383 122.054 112.365 121.915 112.346 121.777 112.328 121.629 112.314 121.476 112.314 121.106 112.314 120.782 112.393 120.491 112.545 120.204 112.697 119.978 112.91 119.812 113.173 119.645 113.441 119.562 113.746 119.562 114.087L119.562 118.871 118.401 118.871Z" fill="#777A80" fill-rule="nonzero" fill-opacity="1" transform="matrix(1 0 0 1.00036 153 253)"/><path d="M126.524 119.028C125.794 119.028 125.165 118.866 124.638 118.543 124.111 118.219 123.704 117.767 123.422 117.185 123.136 116.604 122.997 115.925 122.997 115.149 122.997 114.373 123.14 113.69 123.422 113.099 123.704 112.508 124.102 112.046 124.615 111.714 125.123 111.381 125.72 111.215 126.404 111.215 126.797 111.215 127.185 111.28 127.569 111.414 127.953 111.543 128.304 111.755 128.619 112.051 128.933 112.346 129.187 112.73 129.372 113.214 129.562 113.694 129.655 114.29 129.655 114.997L129.655 115.491 123.829 115.491 123.829 114.489 128.48 114.489C128.48 114.064 128.397 113.681 128.226 113.348 128.055 113.016 127.819 112.748 127.505 112.559 127.195 112.365 126.829 112.268 126.409 112.268 125.946 112.268 125.544 112.383 125.211 112.609 124.874 112.836 124.615 113.131 124.435 113.496 124.254 113.861 124.162 114.249 124.162 114.669L124.162 115.338C124.162 115.911 124.259 116.391 124.458 116.788 124.656 117.185 124.934 117.485 125.29 117.689 125.646 117.891 126.058 117.998 126.524 117.998 126.829 117.998 127.107 117.956 127.352 117.869 127.602 117.781 127.814 117.651 127.994 117.476 128.175 117.301 128.314 117.084 128.415 116.82L129.539 117.134C129.419 117.513 129.22 117.85 128.942 118.136 128.665 118.423 128.318 118.644 127.907 118.806 127.495 118.967 127.037 119.028 126.524 119.028Z" fill="#777A80" fill-rule="nonzero" fill-opacity="1" transform="matrix(1 0 0 1.00036 153 253)"/><path d="M134.08 119.028C133.45 119.028 132.891 118.866 132.41 118.547 131.929 118.229 131.55 117.776 131.277 117.19 131.005 116.604 130.871 115.911 130.871 115.112 130.871 114.318 131.005 113.63 131.277 113.048 131.55 112.466 131.929 112.014 132.415 111.695 132.901 111.377 133.464 111.22 134.098 111.22 134.593 111.22 134.981 111.303 135.268 111.465 135.554 111.626 135.776 111.811 135.929 112.014 136.081 112.217 136.202 112.388 136.285 112.517L136.382 112.517 136.382 108.8 137.542 108.8 137.542 118.875 136.419 118.875 136.419 117.716 136.28 117.716C136.197 117.855 136.072 118.026 135.915 118.233 135.758 118.441 135.531 118.626 135.24 118.787 134.949 118.949 134.565 119.028 134.08 119.028ZM134.237 117.984C134.703 117.984 135.097 117.864 135.42 117.619 135.744 117.375 135.984 117.037 136.155 116.599 136.322 116.165 136.405 115.662 136.405 115.094 136.405 114.53 136.322 114.036 136.16 113.611 135.998 113.187 135.753 112.854 135.429 112.619 135.106 112.383 134.708 112.263 134.237 112.263 133.742 112.263 133.335 112.388 133.007 112.642 132.679 112.891 132.433 113.233 132.272 113.662 132.11 114.092 132.027 114.572 132.027 115.103 132.027 115.643 132.11 116.128 132.276 116.566 132.443 117.005 132.688 117.352 133.016 117.61 133.344 117.855 133.751 117.984 134.237 117.984Z" fill="#777A80" fill-rule="nonzero" fill-opacity="1" transform="matrix(1 0 0 1.00036 153 253)"/><path d="M151.593 111.944 150.372 111.944C150.298 111.594 150.174 111.284 149.998 111.021 149.818 110.753 149.6 110.532 149.346 110.351 149.092 110.171 148.81 110.033 148.5 109.941 148.19 109.848 147.871 109.802 147.534 109.802 146.923 109.802 146.369 109.955 145.878 110.264 145.384 110.573 144.991 111.026 144.7 111.626 144.408 112.226 144.265 112.96 144.265 113.833 144.265 114.706 144.408 115.44 144.7 116.04 144.991 116.64 145.384 117.093 145.878 117.402 146.373 117.712 146.923 117.864 147.534 117.864 147.866 117.864 148.19 117.818 148.5 117.725 148.81 117.633 149.092 117.494 149.346 117.314 149.6 117.134 149.818 116.908 149.998 116.64 150.178 116.373 150.303 116.063 150.372 115.717L151.593 115.717C151.501 116.234 151.334 116.691 151.089 117.098 150.844 117.504 150.544 117.85 150.183 118.132 149.822 118.413 149.415 118.63 148.967 118.778 148.518 118.926 148.042 119 147.529 119 146.669 119 145.901 118.792 145.236 118.372 144.57 117.952 144.038 117.356 143.655 116.58 143.271 115.804 143.077 114.886 143.077 113.824 143.077 112.762 143.271 111.843 143.655 111.067 144.038 110.292 144.565 109.696 145.236 109.276 145.906 108.856 146.669 108.648 147.529 108.648 148.038 108.648 148.518 108.722 148.967 108.87 149.415 109.017 149.818 109.234 150.183 109.516 150.548 109.798 150.844 110.144 151.089 110.55 151.334 110.957 151.501 111.423 151.593 111.944Z" fill="#777A80" fill-rule="nonzero" fill-opacity="1" transform="matrix(1 0 0 1.00036 153 253)"/><path d="M156.272 119.028C155.588 119.028 154.992 118.866 154.478 118.543 153.965 118.219 153.563 117.762 153.276 117.181 152.99 116.599 152.846 115.916 152.846 115.135 152.846 114.35 152.99 113.662 153.276 113.076 153.563 112.49 153.965 112.032 154.478 111.709 154.992 111.386 155.593 111.224 156.272 111.224 156.957 111.224 157.553 111.386 158.066 111.709 158.579 112.032 158.982 112.49 159.268 113.076 159.555 113.662 159.698 114.35 159.698 115.135 159.698 115.916 159.555 116.599 159.268 117.181 158.982 117.762 158.579 118.219 158.066 118.543 157.553 118.866 156.957 119.028 156.272 119.028ZM156.272 117.984C156.79 117.984 157.215 117.85 157.553 117.587 157.891 117.324 158.136 116.973 158.297 116.539 158.459 116.105 158.538 115.638 158.538 115.13 158.538 114.622 158.459 114.156 158.297 113.718 158.136 113.283 157.891 112.928 157.553 112.66 157.22 112.393 156.79 112.259 156.272 112.259 155.754 112.259 155.325 112.393 154.992 112.66 154.659 112.928 154.409 113.283 154.247 113.718 154.085 114.156 154.007 114.622 154.007 115.13 154.007 115.638 154.085 116.105 154.247 116.539 154.409 116.973 154.654 117.319 154.992 117.587 155.329 117.855 155.754 117.984 156.272 117.984Z" fill="#777A80" fill-rule="nonzero" fill-opacity="1" transform="matrix(1 0 0 1.00036 153 253)"/><path d="M164.123 119.028C163.494 119.028 162.934 118.866 162.454 118.547 161.973 118.229 161.594 117.776 161.321 117.19 161.048 116.604 160.914 115.911 160.914 115.112 160.914 114.318 161.048 113.63 161.321 113.048 161.594 112.466 161.973 112.014 162.458 111.695 162.944 111.377 163.508 111.22 164.141 111.22 164.636 111.22 165.024 111.303 165.311 111.465 165.598 111.626 165.82 111.811 165.972 112.014 166.125 112.217 166.245 112.388 166.328 112.517L166.425 112.517 166.425 108.8 167.586 108.8 167.586 118.875 166.462 118.875 166.462 117.716 166.324 117.716C166.24 117.855 166.116 118.026 165.959 118.233 165.801 118.441 165.575 118.626 165.283 118.787 164.992 118.949 164.608 119.028 164.123 119.028ZM164.28 117.984C164.747 117.984 165.14 117.864 165.464 117.619 165.787 117.375 166.028 117.037 166.199 116.599 166.365 116.165 166.448 115.662 166.448 115.094 166.448 114.53 166.365 114.036 166.203 113.611 166.042 113.187 165.796 112.854 165.473 112.619 165.149 112.383 164.751 112.263 164.28 112.263 163.785 112.263 163.378 112.388 163.05 112.642 162.722 112.891 162.477 113.233 162.315 113.662 162.153 114.092 162.07 114.572 162.07 115.103 162.07 115.643 162.153 116.128 162.32 116.566 162.486 117.005 162.731 117.352 163.059 117.61 163.388 117.855 163.794 117.984 164.28 117.984Z" fill="#777A80" fill-rule="nonzero" fill-opacity="1" transform="matrix(1 0 0 1.00036 153 253)"/><path d="M172.838 119.028C172.108 119.028 171.479 118.866 170.952 118.543 170.425 118.219 170.018 117.767 169.735 117.185 169.449 116.604 169.31 115.925 169.31 115.149 169.31 114.373 169.454 113.69 169.735 113.099 170.018 112.508 170.415 112.046 170.929 111.714 171.437 111.381 172.034 111.215 172.718 111.215 173.111 111.215 173.499 111.28 173.883 111.414 174.267 111.543 174.618 111.755 174.932 112.051 175.247 112.346 175.501 112.73 175.686 113.214 175.876 113.694 175.968 114.29 175.968 114.997L175.968 115.491 170.138 115.491 170.138 114.489 174.789 114.489C174.789 114.064 174.706 113.681 174.535 113.348 174.364 113.016 174.128 112.748 173.814 112.559 173.504 112.365 173.139 112.268 172.718 112.268 172.256 112.268 171.853 112.383 171.521 112.609 171.183 112.836 170.924 113.131 170.744 113.496 170.563 113.861 170.471 114.249 170.471 114.669L170.471 115.338C170.471 115.911 170.568 116.391 170.767 116.788 170.965 117.185 171.243 117.485 171.599 117.689 171.955 117.891 172.366 117.998 172.834 117.998 173.139 117.998 173.416 117.956 173.661 117.869 173.911 117.781 174.123 117.651 174.304 117.476 174.484 117.301 174.623 117.084 174.724 116.82L175.848 117.134C175.728 117.513 175.529 117.85 175.252 118.136 174.974 118.423 174.627 118.644 174.216 118.806 173.804 118.967 173.351 119.028 172.838 119.028Z" fill="#777A80" fill-rule="nonzero" fill-opacity="1" transform="matrix(1 0 0 1.00036 153 253)"/><path d="M196.381 0.309375 196.381 10.3842 195.197 10.3842 189.7 2.47485 189.603 2.47485 189.603 10.3842 188.382 10.3842 188.382 0.309375 189.566 0.309375 195.082 8.23714 195.179 8.23714 195.179 0.309375 196.381 0.309375Z" fill="#777A80" fill-rule="nonzero" fill-opacity="1" transform="matrix(1 0 0 1.00036 153 253)"/><path d="M200.686 10.5596C200.205 10.5596 199.77 10.4672 199.382 10.2872 198.993 10.1071 198.679 9.83929 198.452 9.49763 198.221 9.15131 198.106 8.73117 198.106 8.24173 198.106 7.8077 198.189 7.45679 198.36 7.1844 198.531 6.91197 198.757 6.70422 199.044 6.54721 199.331 6.39484 199.645 6.27941 199.992 6.20093 200.339 6.1224 200.686 6.0624 201.037 6.01623 201.495 5.95618 201.869 5.91002 202.156 5.88233 202.443 5.85001 202.655 5.79922 202.785 5.72074 202.919 5.64685 202.983 5.51294 202.983 5.32825L202.983 5.28672C202.983 4.8019 202.849 4.4233 202.586 4.15548 202.322 3.88768 201.92 3.75379 201.388 3.75379 200.834 3.75379 200.399 3.87384 200.085 4.11855 199.77 4.36325 199.548 4.62184 199.419 4.89423L198.314 4.50178C198.512 4.04467 198.776 3.68453 199.104 3.42596 199.433 3.1674 199.798 2.98733 200.186 2.88575 200.579 2.78417 200.963 2.72876 201.347 2.72876 201.592 2.72876 201.869 2.75647 202.188 2.81649 202.507 2.8719 202.812 2.99194 203.108 3.1674 203.404 3.34285 203.654 3.61065 203.848 3.97079 204.047 4.32632 204.144 4.80653 204.144 5.40677L204.144 10.3841 202.983 10.3841 202.983 9.36373 202.923 9.36373C202.845 9.52995 202.711 9.70076 202.53 9.89008 202.345 10.0794 202.1 10.2364 201.795 10.3656 201.495 10.495 201.125 10.5596 200.686 10.5596ZM200.861 9.51606C201.319 9.51606 201.708 9.42374 202.026 9.24368 202.345 9.06361 202.581 8.83276 202.748 8.54648 202.909 8.2602 202.993 7.96008 202.993 7.64611L202.993 6.58416C202.942 6.64417 202.835 6.69496 202.669 6.74575 202.503 6.79191 202.313 6.83349 202.096 6.87044 201.878 6.90275 201.67 6.93507 201.472 6.95813 201.268 6.98123 201.106 7.00429 200.982 7.01818 200.681 7.05971 200.399 7.11977 200.135 7.20746 199.877 7.2952 199.664 7.42447 199.507 7.59532 199.349 7.76617 199.266 8.00166 199.266 8.29715 199.266 8.69885 199.419 9.00356 199.719 9.20673 200.015 9.41453 200.399 9.51606 200.861 9.51606Z" fill="#777A80" fill-rule="nonzero" fill-opacity="1" transform="matrix(1 0 0 1.00036 153 253)"/><path d="M209.363 2.82575 209.363 3.80922 205.443 3.80922 205.443 2.82575 209.363 2.82575ZM206.585 1.01579 207.745 1.01579 207.745 8.21867C207.745 8.54648 207.796 8.79122 207.889 8.95281 207.986 9.1144 208.111 9.2252 208.263 9.27599 208.416 9.33142 208.577 9.3591 208.749 9.3591 208.878 9.3591 208.98 9.34989 209.063 9.33604 209.146 9.3222 209.211 9.30831 209.262 9.2991L209.498 10.3426C209.419 10.3703 209.308 10.4026 209.169 10.4349 209.026 10.4673 208.85 10.4811 208.633 10.4811 208.305 10.4811 207.986 10.4118 207.671 10.2687 207.357 10.1256 207.098 9.91318 206.894 9.62232 206.691 9.33604 206.585 8.97129 206.585 8.528L206.585 1.01579Z" fill="#777A80" fill-rule="nonzero" fill-opacity="1" transform="matrix(1 0 0 1.00036 153 253)"/><path d="M211.499 1.56986C211.273 1.56986 211.079 1.49136 210.917 1.339 210.755 1.18663 210.672 1.00194 210.672 0.784928 210.672 0.567921 210.755 0.38323 210.917 0.230861 211.079 0.0784928 211.273 0 211.499 0 211.726 0 211.92 0.0784928 212.082 0.230861 212.244 0.38323 212.327 0.567921 212.327 0.784928 212.327 1.00194 212.244 1.18663 212.082 1.339 211.92 1.49136 211.726 1.56986 211.499 1.56986ZM210.908 10.3842 210.908 2.82574 212.068 2.82574 212.068 10.3795 210.908 10.3795 210.908 10.3842Z" fill="#777A80" fill-rule="nonzero" fill-opacity="1" transform="matrix(1 0 0 1.00036 153 253)"/><path d="M220.178 2.82572 217.381 10.3795 216.197 10.3795 213.4 2.82572 214.662 2.82572 216.752 8.8466 216.831 8.8466 218.92 2.82572 220.178 2.82572Z" fill="#777A80" fill-rule="nonzero" fill-opacity="1" transform="matrix(1 0 0 1.00036 153 253)"/><path d="M224.677 10.5412C223.946 10.5412 223.318 10.3795 222.79 10.0563 222.263 9.73312 221.857 9.28062 221.575 8.69885 221.288 8.11708 221.149 7.43836 221.149 6.66727 221.149 5.89159 221.293 5.20824 221.575 4.61725 221.857 4.02623 222.254 3.56451 222.767 3.23207 223.276 2.89963 223.872 2.73341 224.557 2.73341 224.95 2.73341 225.338 2.79805 225.722 2.93195 226.106 3.06585 226.457 3.27362 226.772 3.56913 227.086 3.86001 227.34 4.24786 227.525 4.73268 227.715 5.21287 227.807 5.80848 227.807 6.51494L227.807 7.00897 221.977 7.00897 221.977 6.00702 226.628 6.00702C226.628 5.58225 226.545 5.19902 226.374 4.86658 226.203 4.53414 225.967 4.27095 225.652 4.07702 225.343 3.8831 224.977 3.78614 224.557 3.78614 224.094 3.78614 223.692 3.90157 223.359 4.12781 223.022 4.35403 222.763 4.64957 222.582 5.01433 222.402 5.37909 222.31 5.76695 222.31 6.18708L222.31 6.85659C222.31 7.42914 222.407 7.90933 222.606 8.30641 222.804 8.70348 223.082 9.0036 223.438 9.20677 223.794 9.40994 224.205 9.51148 224.672 9.51148 224.977 9.51148 225.255 9.46995 225.5 9.38221 225.745 9.29447 225.962 9.1652 226.143 8.98976 226.323 8.81428 226.462 8.59268 226.563 8.3341L227.687 8.64806C227.567 9.02671 227.368 9.36373 227.09 9.65001 226.813 9.93629 226.466 10.1625 226.055 10.3195 225.652 10.4626 225.19 10.5412 224.677 10.5412Z" fill="#777A80" fill-rule="nonzero" fill-opacity="1" transform="matrix(1 0 0 1.00036 153 253)"/><path d="M241.344 3.4583 240.124 3.4583C240.05 3.10739 239.925 2.79804 239.749 2.53486 239.569 2.26706 239.351 2.04543 239.097 1.86075 238.843 1.68067 238.561 1.54215 238.251 1.44981 237.941 1.35747 237.622 1.31129 237.285 1.31129 236.675 1.31129 236.12 1.46367 235.629 1.77302 235.135 2.08237 234.742 2.53486 234.45 3.1351 234.159 3.73534 234.016 4.46946 234.016 5.34214 234.016 6.21477 234.159 6.94892 234.45 7.54916 234.742 8.1494 235.135 8.6019 235.629 8.91124 236.124 9.22062 236.675 9.37299 237.285 9.37299 237.618 9.37299 237.941 9.32679 238.251 9.23446 238.561 9.14209 238.843 9.0036 239.097 8.82354 239.351 8.64343 239.569 8.41721 239.749 8.1494 239.929 7.8816 240.054 7.57689 240.124 7.22598L241.344 7.22598C241.252 7.74311 241.085 8.20019 240.84 8.60653 240.595 9.01282 240.295 9.3591 239.934 9.64075 239.573 9.92703 239.167 10.1394 238.718 10.2872 238.269 10.4349 237.793 10.5088 237.28 10.5088 236.42 10.5088 235.653 10.2964 234.987 9.88087 234.316 9.46069 233.789 8.86507 233.406 8.0894 233.022 7.31367 232.828 6.39946 232.828 5.33751 232.828 4.27555 233.022 3.35672 233.406 2.58103 233.789 1.80534 234.316 1.20971 234.987 0.789549 235.658 0.369381 236.42 0.161606 237.28 0.161606 237.789 0.161606 238.269 0.235481 238.718 0.383233 239.167 0.530982 239.569 0.747994 239.934 1.02965 240.295 1.31591 240.595 1.65759 240.84 2.0639 241.085 2.47022 241.252 2.94117 241.344 3.4583Z" fill="#777A80" fill-rule="nonzero" fill-opacity="1" transform="matrix(1 0 0 1.00036 153 253)"/><path d="M246.019 10.5411C245.335 10.5411 244.738 10.3795 244.225 10.0563 243.712 9.73312 243.31 9.27599 243.023 8.69422 242.736 8.11246 242.593 7.4291 242.593 6.64879 242.593 5.85923 242.736 5.17592 243.023 4.58952 243.31 4.00313 243.712 3.54602 244.225 3.22281 244.738 2.89961 245.339 2.738 246.019 2.738 246.703 2.738 247.299 2.89961 247.813 3.22281 248.326 3.54602 248.728 4.00313 249.015 4.58952 249.302 5.17592 249.445 5.86386 249.445 6.64879 249.445 7.4291 249.302 8.11246 249.015 8.69422 248.728 9.27599 248.326 9.73312 247.813 10.0563 247.299 10.3795 246.703 10.5411 246.019 10.5411ZM246.019 9.49763C246.537 9.49763 246.962 9.36373 247.299 9.10056 247.633 8.83276 247.882 8.48647 248.044 8.05245 248.206 7.61842 248.285 7.15208 248.285 6.64417 248.285 6.13629 248.206 5.66995 248.044 5.2313 247.882 4.79727 247.637 4.44177 247.299 4.17396 246.967 3.90616 246.537 3.76764 246.019 3.76764 245.501 3.76764 245.071 3.90155 244.738 4.17396 244.406 4.44177 244.155 4.79727 243.994 5.2313 243.832 5.66995 243.754 6.13629 243.754 6.64417 243.754 7.15208 243.832 7.61842 243.994 8.05245 244.155 8.48647 244.401 8.83276 244.738 9.10056 245.076 9.36373 245.501 9.49763 246.019 9.49763Z" fill="#777A80" fill-rule="nonzero" fill-opacity="1" transform="matrix(1 0 0 1.00036 153 253)"/><path d="M253.87 10.5412C253.241 10.5412 252.681 10.3795 252.201 10.061 251.72 9.74238 251.341 9.28988 251.068 8.70348 250.795 8.11708 250.661 7.42452 250.661 6.62573 250.661 5.83158 250.795 5.1436 251.068 4.56183 251.341 3.98007 251.72 3.52758 252.205 3.20899 252.691 2.8904 253.255 2.73342 253.888 2.73342 254.383 2.73342 254.771 2.81653 255.058 2.97813 255.345 3.13973 255.567 3.32442 255.719 3.52758 255.872 3.73074 255.992 3.90158 256.075 4.03086L256.172 4.03086 256.172 0.309375 257.333 0.309375 257.333 10.3842 256.209 10.3842 256.209 9.22525 256.07 9.22525C255.987 9.36378 255.863 9.53458 255.705 9.74238 255.548 9.95013 255.321 10.1348 255.03 10.301 254.739 10.4673 254.355 10.5412 253.87 10.5412ZM254.027 9.49763C254.494 9.49763 254.887 9.37762 255.211 9.13288 255.534 8.88818 255.774 8.55111 255.946 8.1125 256.117 7.67385 256.195 7.17519 256.195 6.60267 256.195 6.03934 256.112 5.54531 255.95 5.12054 255.789 4.69573 255.543 4.36329 255.22 4.12782 254.896 3.88772 254.499 3.7723 254.027 3.7723 253.532 3.7723 253.125 3.89696 252.797 4.15091 252.469 4.40024 252.224 4.7419 252.062 5.17133 251.9 5.60073 251.817 6.07628 251.817 6.61189 251.817 7.15208 251.9 7.6369 252.067 8.07555 252.233 8.5142 252.478 8.86049 252.806 9.11903 253.134 9.36836 253.542 9.49763 254.027 9.49763Z" fill="#777A80" fill-rule="nonzero" fill-opacity="1" transform="matrix(1 0 0 1.00036 153 253)"/><path d="M262.59 10.5412C261.859 10.5412 261.23 10.3795 260.703 10.0563 260.176 9.73312 259.769 9.28062 259.487 8.69885 259.2 8.11708 259.062 7.43836 259.062 6.66727 259.062 5.89159 259.205 5.20824 259.487 4.61725 259.769 4.02623 260.167 3.56451 260.68 3.23207 261.189 2.89963 261.785 2.73341 262.469 2.73341 262.862 2.73341 263.251 2.79805 263.635 2.93195 264.018 3.06585 264.37 3.27362 264.684 3.56913 264.999 3.86001 265.253 4.24786 265.438 4.73268 265.627 5.21287 265.72 5.80848 265.72 6.51494L265.72 7.00897 259.89 7.00897 259.89 6.00702 264.541 6.00702C264.541 5.58225 264.457 5.19902 264.287 4.86658 264.115 4.53414 263.879 4.27095 263.565 4.07702 263.256 3.8831 262.89 3.78614 262.469 3.78614 262.007 3.78614 261.605 3.90157 261.272 4.12781 260.934 4.35403 260.675 4.64957 260.495 5.01433 260.315 5.37909 260.222 5.76695 260.222 6.18708L260.222 6.85659C260.222 7.42914 260.32 7.90933 260.518 8.30641 260.717 8.70348 260.995 9.0036 261.351 9.20677 261.707 9.40994 262.118 9.51148 262.585 9.51148 262.89 9.51148 263.168 9.46995 263.413 9.38221 263.658 9.29447 263.875 9.1652 264.055 8.98976 264.236 8.81428 264.374 8.59268 264.476 8.3341L265.6 8.64806C265.479 9.02671 265.28 9.36373 265.003 9.65001 264.726 9.93629 264.379 10.1625 263.967 10.3195 263.561 10.4626 263.098 10.5412 262.59 10.5412Z" fill="#777A80" fill-rule="nonzero" fill-opacity="1" transform="matrix(1 0 0 1.00036 153 253)"/><path d="M366.036 213.307 224.52 213.307C221.343 213.307 218.634 211.003 218.13 207.872L189.339 29.3563C188.706 25.427 191.744 21.8625 195.729 21.8625L337.245 21.8625C340.421 21.8625 343.131 24.1665 343.635 27.297L372.426 205.808C373.064 209.747 370.021 213.307 366.036 213.307Z" fill="#F4F4F4" fill-rule="nonzero" fill-opacity="1" transform="matrix(1 0 0 1.00036 153 253)"/><path d="M522.36 213.307 380.84 213.307C377.664 213.307 374.955 211.003 374.451 207.872L345.66 29.3563C345.026 25.427 348.064 21.8625 352.049 21.8625L493.567 21.8625C496.743 21.8625 499.451 24.1665 499.957 27.297L528.745 205.808C529.386 209.747 526.348 213.307 522.36 213.307Z" fill="#F4F4F4" fill-rule="nonzero" fill-opacity="1" transform="matrix(1 0 0 1.00036 153 253)"/><path d="M273.838 83.3963C273.838 83.3963 272.969 81.5217 274.74 79.333 276.733 76.8674 280.094 76.8583 280.094 76.8583 280.094 76.8583 280.991 79.1764 278.975 81.4062 276.821 83.784 273.838 83.3963 273.838 83.3963ZM285.402 91.9288C284.745 88.1104 288.453 86.5408 288.453 86.5408 288.453 86.5408 285.929 83.6966 280.755 83.6966 277.75 83.6966 275.669 85.017 274.426 85.017 272.979 85.017 270.597 83.7749 267.814 83.7749 263.528 83.7749 259.464 86.7437 260.44 92.4 261.429 98.1485 268.059 105.3 272.336 105.3 273.829 105.3 275.919 104.137 278.226 104.137 280.492 104.137 282.355 105.259 284.505 105.259 289.188 105.259 291.357 97.7188 291.357 97.7188 291.357 97.7188 286.142 96.2371 285.402 91.9288Z" fill="#27282C" fill-rule="evenodd" fill-opacity="1" transform="matrix(1 0 0 1.00036 153 253)"/><path d="M265.933 117.665 270.279 126.036 270.399 126.036 272.045 117.665 273.326 117.665 271.227 127.611 269.964 127.611 264.656 117.665 265.933 117.665Z" fill="#27282C" fill-rule="nonzero" fill-opacity="1" transform="matrix(1 0 0 1.00036 153 253)"/><path d="M275.323 118.907C275.096 118.907 274.888 118.829 274.703 118.681 274.518 118.529 274.407 118.344 274.37 118.132 274.338 117.919 274.389 117.734 274.528 117.582 274.666 117.43 274.846 117.356 275.073 117.356 275.299 117.356 275.507 117.43 275.693 117.582 275.882 117.734 275.989 117.919 276.025 118.132 276.063 118.344 276.007 118.529 275.868 118.681 275.734 118.833 275.549 118.907 275.323 118.907ZM276.137 127.611 274.934 120.149 276.095 120.149 277.297 127.611 276.137 127.611Z" fill="#27282C" fill-rule="nonzero" fill-opacity="1" transform="matrix(1 0 0 1.00036 153 253)"/><path d="M282.415 127.763C281.685 127.763 281.033 127.606 280.455 127.283 279.877 126.964 279.401 126.517 279.022 125.944 278.647 125.371 278.393 124.702 278.272 123.935 278.153 123.169 278.185 122.495 278.375 121.913 278.564 121.331 278.888 120.875 279.345 120.542 279.803 120.214 280.372 120.048 281.056 120.048 281.449 120.048 281.851 120.113 282.254 120.242 282.66 120.371 283.044 120.583 283.405 120.87 283.765 121.161 284.08 121.544 284.343 122.019 284.607 122.495 284.796 123.081 284.907 123.778L284.986 124.263 279.156 124.263 278.994 123.271 283.645 123.271C283.576 122.85 283.433 122.477 283.211 122.144 282.989 121.816 282.707 121.553 282.364 121.364 282.022 121.174 281.643 121.077 281.223 121.077 280.76 121.077 280.376 121.188 280.076 121.414 279.775 121.641 279.563 121.932 279.442 122.292 279.322 122.652 279.29 123.035 279.359 123.446L279.466 124.106C279.558 124.67 279.733 125.145 279.993 125.538 280.251 125.93 280.58 126.226 280.964 126.424 281.352 126.627 281.777 126.729 282.249 126.729 282.554 126.729 282.822 126.687 283.058 126.6 283.294 126.512 283.483 126.383 283.636 126.212 283.789 126.041 283.895 125.824 283.95 125.566L285.125 125.875C285.069 126.249 284.921 126.581 284.69 126.863 284.459 127.144 284.149 127.366 283.761 127.523 283.377 127.685 282.929 127.763 282.415 127.763Z" fill="#27282C" fill-rule="nonzero" fill-opacity="1" transform="matrix(1 0 0 1.00036 153 253)"/><path d="M288.8 127.611 285.291 120.149 286.512 120.149 289.069 125.861 289.147 125.861 289.84 120.149 291.079 120.149 293.595 125.843 293.674 125.843 294.39 120.149 295.61 120.149 294.51 127.611 293.368 127.611 290.788 121.881 290.668 121.881 289.938 127.611 288.8 127.611Z" fill="#27282C" fill-rule="nonzero" fill-opacity="1" transform="matrix(1 0 0 1.00036 153 253)"/><path d="M423.89 117.665 428.236 126.036 428.351 126.036 429.997 117.665 431.278 117.665 429.179 127.611 427.917 127.611 422.609 117.665 423.89 117.665Z" fill="#27282C" fill-rule="nonzero" fill-opacity="1" transform="matrix(1 0 0 1.00036 153 253)"/><path d="M433.279 118.907C433.054 118.907 432.847 118.829 432.661 118.681 432.475 118.529 432.365 118.344 432.327 118.132 432.295 117.919 432.346 117.734 432.485 117.582 432.623 117.43 432.803 117.356 433.028 117.356 433.258 117.356 433.465 117.43 433.651 117.582 433.837 117.734 433.945 117.919 433.984 118.132 434.019 118.344 433.963 118.529 433.824 118.681 433.686 118.833 433.508 118.907 433.279 118.907ZM434.093 127.611 432.89 120.149 434.054 120.149 435.252 127.611 434.093 127.611Z" fill="#27282C" fill-rule="nonzero" fill-opacity="1" transform="matrix(1 0 0 1.00036 153 253)"/><path d="M440.374 127.763C439.643 127.763 438.99 127.606 438.41 127.283 437.835 126.96 437.359 126.517 436.978 125.944 436.602 125.371 436.351 124.702 436.23 123.935 436.104 123.174 436.139 122.495 436.334 121.913 436.52 121.327 436.844 120.875 437.303 120.542 437.761 120.214 438.328 120.048 439.012 120.048 439.405 120.048 439.808 120.113 440.21 120.242 440.617 120.371 441.002 120.583 441.361 120.87 441.724 121.161 442.036 121.544 442.3 122.019 442.564 122.495 442.754 123.081 442.866 123.778L442.944 124.263 437.112 124.263 436.957 123.271 441.607 123.271C441.538 122.85 441.395 122.477 441.171 122.144 440.95 121.816 440.669 121.553 440.327 121.364 439.985 121.174 439.604 121.077 439.185 121.077 438.722 121.077 438.337 121.188 438.038 121.414 437.735 121.641 437.523 121.932 437.402 122.292 437.285 122.652 437.251 123.035 437.32 123.446L437.428 124.106C437.519 124.67 437.696 125.145 437.956 125.538 438.211 125.93 438.54 126.226 438.929 126.424 439.319 126.627 439.743 126.729 440.214 126.729 440.522 126.729 440.79 126.687 441.023 126.6 441.261 126.512 441.452 126.383 441.603 126.212 441.755 126.041 441.863 125.824 441.919 125.566L443.091 125.875C443.035 126.249 442.888 126.581 442.654 126.863 442.425 127.144 442.114 127.366 441.729 127.523 441.339 127.68 440.885 127.763 440.374 127.763Z" fill="#27282C" fill-rule="nonzero" fill-opacity="1" transform="matrix(1 0 0 1.00036 153 253)"/><path d="M446.756 127.611 443.247 120.149 444.467 120.149 447.024 125.861 447.102 125.861 447.799 120.149 449.036 120.149 451.554 125.843 451.632 125.843 452.346 120.149 453.566 120.149 452.467 127.611 451.325 127.611 448.746 121.881 448.625 121.881 447.894 127.611 446.756 127.611Z" fill="#27282C" fill-rule="nonzero" fill-opacity="1" transform="matrix(1 0 0 1.00036 153 253)"/><path d="M443.312 88.7152 445.445 84.0704C445.566 83.8121 445.376 83.4794 445.03 83.3271 444.684 83.1748 444.298 83.2626 444.177 83.5257L442.018 88.2306C439.276 87.284 436.316 86.7575 433.275 86.7575 430.233 86.7575 427.529 87.284 425.245 88.2306L420.815 83.5257C420.57 83.267 420.145 83.1791 419.867 83.3271 419.59 83.4794 419.562 83.8073 419.807 84.0704L424.181 88.7152C419.179 91.2223 416.506 95.8996 417.2 101.38L456.408 101.38C454.461 95.9044 449.533 91.2223 443.312 88.7152ZM426.706 96.8419C425.795 96.8419 424.916 96.2323 424.736 95.489 424.555 94.741 425.147 94.1362 426.054 94.1362 426.964 94.1362 427.843 94.7453 428.023 95.489 428.208 96.2323 427.616 96.8419 426.706 96.8419ZM444.705 96.8419C443.792 96.8419 442.914 96.2323 442.737 95.489 442.555 94.741 443.148 94.1362 444.052 94.1362 444.965 94.1362 445.843 94.7453 446.025 95.489 446.206 96.2323 445.614 96.8419 444.705 96.8419Z" fill="#27282C" fill-rule="nonzero" fill-opacity="1" transform="matrix(1 0 0 1.00036 153 253)"/><path d="M123.954 239.366C123.728 239.366 123.52 239.288 123.335 239.136 123.15 238.983 123.039 238.798 123.006 238.581 122.974 238.365 123.025 238.18 123.164 238.027 123.302 237.875 123.487 237.797 123.714 237.797 123.94 237.797 124.148 237.875 124.333 238.027 124.518 238.18 124.629 238.369 124.661 238.581 124.694 238.794 124.643 238.983 124.504 239.136 124.361 239.293 124.181 239.366 123.954 239.366ZM124.722 248.185 123.556 240.632 124.717 240.632 125.882 248.185 124.722 248.185Z" fill="#FFFFFF" fill-rule="nonzero" fill-opacity="1" transform="matrix(1 0 0 1.00036 153 253)"/><path d="M135.693 243.148C135.855 244.21 135.809 245.128 135.541 245.9 135.277 246.676 134.843 247.271 134.237 247.691 133.631 248.111 132.901 248.319 132.041 248.319 131.181 248.319 130.381 248.107 129.651 247.691 128.92 247.276 128.296 246.676 127.792 245.9 127.288 245.124 126.955 244.21 126.788 243.148 126.626 242.086 126.678 241.167 126.941 240.391 127.204 239.616 127.639 239.02 128.245 238.6 128.851 238.18 129.581 237.972 130.441 237.972 131.301 237.972 132.101 238.18 132.831 238.6 133.566 239.02 134.186 239.616 134.69 240.391 135.194 241.167 135.531 242.086 135.693 243.148ZM134.514 243.148C134.38 242.275 134.122 241.541 133.738 240.941 133.354 240.34 132.892 239.888 132.351 239.579 131.809 239.269 131.231 239.117 130.621 239.117 130.011 239.117 129.484 239.269 129.035 239.579 128.587 239.888 128.268 240.34 128.069 240.941 127.87 241.541 127.838 242.275 127.972 243.148 128.106 244.02 128.365 244.755 128.749 245.355 129.133 245.955 129.595 246.408 130.136 246.717 130.677 247.026 131.255 247.179 131.865 247.179 132.475 247.179 133.002 247.026 133.451 246.717 133.9 246.408 134.218 245.955 134.417 245.355 134.616 244.755 134.648 244.02 134.514 243.148Z" fill="#FFFFFF" fill-rule="nonzero" fill-opacity="1" transform="matrix(1 0 0 1.00036 153 253)"/><path d="M142.666 240.627C142.532 240.128 142.231 239.74 141.769 239.468 141.306 239.191 140.77 239.057 140.16 239.057 139.711 239.057 139.332 239.131 139.022 239.274 138.713 239.417 138.481 239.616 138.338 239.87 138.19 240.124 138.144 240.41 138.19 240.729 138.232 240.996 138.333 241.227 138.491 241.421 138.648 241.615 138.842 241.772 139.064 241.897 139.286 242.021 139.517 242.127 139.753 242.206 139.989 242.284 140.206 242.349 140.4 242.4L141.468 242.677C141.741 242.746 142.051 242.843 142.393 242.963 142.735 243.083 143.072 243.249 143.401 243.457 143.729 243.665 144.016 243.933 144.261 244.256 144.506 244.579 144.663 244.981 144.737 245.452 144.82 245.997 144.755 246.491 144.538 246.929 144.321 247.368 143.96 247.719 143.456 247.977 142.953 248.236 142.314 248.365 141.537 248.365 140.816 248.365 140.174 248.25 139.61 248.014 139.045 247.784 138.583 247.456 138.218 247.04 137.853 246.624 137.608 246.14 137.483 245.59L138.745 245.59C138.837 245.969 139.013 246.283 139.277 246.532 139.54 246.782 139.854 246.962 140.22 247.082 140.585 247.202 140.969 247.262 141.366 247.262 141.833 247.262 142.24 247.183 142.587 247.031 142.934 246.878 143.197 246.666 143.368 246.393 143.544 246.121 143.6 245.798 143.544 245.433 143.493 245.101 143.359 244.829 143.137 244.616 142.92 244.408 142.647 244.238 142.319 244.104 141.991 243.974 141.644 243.859 141.274 243.757L139.979 243.402C139.157 243.176 138.481 242.852 137.959 242.432 137.436 242.012 137.122 241.463 137.016 240.784 136.928 240.221 137.006 239.727 137.247 239.306 137.487 238.886 137.853 238.558 138.338 238.323 138.823 238.087 139.388 237.972 140.03 237.972 140.682 237.972 141.274 238.087 141.819 238.318 142.361 238.549 142.809 238.868 143.17 239.265 143.53 239.666 143.757 240.119 143.849 240.627L142.666 240.627Z" fill="#FFFFFF" fill-rule="nonzero" fill-opacity="1" transform="matrix(1 0 0 1.00036 153 253)"/><path d="M131.111 254.875 130.113 255.171C130.02 254.996 129.9 254.829 129.747 254.663 129.595 254.497 129.401 254.363 129.17 254.252 128.938 254.142 128.652 254.091 128.314 254.091 127.852 254.091 127.482 254.197 127.209 254.409 126.936 254.621 126.821 254.889 126.871 255.212 126.918 255.499 127.057 255.73 127.292 255.896 127.528 256.062 127.879 256.201 128.342 256.316L129.507 256.593C130.21 256.755 130.751 257.009 131.135 257.341 131.518 257.674 131.749 258.108 131.832 258.638 131.897 259.072 131.837 259.46 131.638 259.797 131.44 260.135 131.139 260.407 130.727 260.606 130.316 260.804 129.812 260.901 129.225 260.901 128.453 260.901 127.787 260.735 127.232 260.398 126.677 260.061 126.279 259.576 126.044 258.934L127.103 258.657C127.269 259.063 127.519 259.368 127.843 259.571 128.166 259.775 128.568 259.876 129.044 259.876 129.585 259.876 129.997 259.761 130.284 259.53 130.57 259.299 130.686 259.022 130.635 258.694 130.593 258.431 130.469 258.214 130.256 258.034 130.043 257.854 129.743 257.72 129.345 257.632L128.036 257.337C127.32 257.171 126.77 256.916 126.395 256.57 126.021 256.224 125.79 255.79 125.711 255.268 125.646 254.843 125.706 254.465 125.901 254.137 126.09 253.809 126.382 253.55 126.77 253.366 127.158 253.181 127.621 253.084 128.152 253.084 128.901 253.084 129.516 253.25 129.992 253.578 130.469 253.906 130.848 254.335 131.111 254.875Z" fill="#FFFFFF" fill-rule="nonzero" fill-opacity="1" transform="matrix(1 0 0 1.00036 153 253)"/><path d="M134.135 263.57 132.535 253.181 133.659 253.181 133.844 254.381 133.982 254.381C134.047 254.252 134.14 254.081 134.26 253.878 134.38 253.675 134.574 253.49 134.833 253.329 135.092 253.167 135.471 253.084 135.966 253.084 136.604 253.084 137.191 253.241 137.723 253.56 138.259 253.878 138.707 254.331 139.068 254.913 139.429 255.494 139.674 256.187 139.794 256.976 139.919 257.775 139.886 258.468 139.706 259.054 139.526 259.64 139.216 260.093 138.781 260.411 138.347 260.73 137.815 260.892 137.186 260.892 136.701 260.892 136.299 260.809 135.98 260.647 135.661 260.485 135.406 260.301 135.217 260.093 135.027 259.885 134.88 259.71 134.773 259.576L134.676 259.576 135.291 263.57 134.135 263.57ZM134.255 256.958C134.343 257.53 134.505 258.029 134.736 258.468 134.972 258.902 135.268 259.243 135.628 259.488 135.989 259.733 136.401 259.853 136.867 259.853 137.353 259.853 137.741 259.723 138.028 259.465 138.315 259.207 138.509 258.86 138.606 258.422 138.703 257.983 138.712 257.498 138.629 256.958 138.546 256.427 138.393 255.947 138.162 255.517 137.936 255.088 137.635 254.751 137.27 254.497 136.904 254.248 136.475 254.118 135.984 254.118 135.513 254.118 135.133 254.239 134.847 254.474 134.56 254.709 134.371 255.042 134.269 255.466 134.167 255.891 134.172 256.395 134.255 256.958Z" fill="#FFFFFF" fill-rule="nonzero" fill-opacity="1" transform="matrix(1 0 0 1.00036 153 253)"/><path d="M145.139 260.896C144.409 260.896 143.757 260.735 143.179 260.411 142.601 260.088 142.125 259.636 141.755 259.054 141.38 258.472 141.135 257.793 141.015 257.018 140.895 256.242 140.932 255.559 141.126 254.968 141.32 254.377 141.644 253.915 142.106 253.583 142.564 253.25 143.137 253.084 143.822 253.084 144.215 253.084 144.617 253.149 145.019 253.282 145.421 253.416 145.805 253.624 146.166 253.92 146.526 254.215 146.836 254.603 147.1 255.083 147.363 255.564 147.548 256.159 147.654 256.866L147.728 257.36 141.898 257.36 141.745 256.358 146.397 256.358C146.332 255.933 146.189 255.549 145.967 255.217 145.745 254.88 145.467 254.617 145.125 254.423 144.783 254.229 144.404 254.132 143.984 254.132 143.521 254.132 143.137 254.248 142.837 254.474 142.536 254.7 142.323 254.996 142.199 255.36 142.074 255.725 142.046 256.113 142.106 256.533L142.208 257.203C142.296 257.775 142.471 258.255 142.731 258.652 142.989 259.049 143.313 259.35 143.701 259.553 144.085 259.756 144.515 259.862 144.987 259.862 145.292 259.862 145.56 259.82 145.796 259.733 146.032 259.645 146.226 259.516 146.378 259.34 146.531 259.165 146.637 258.948 146.697 258.685L147.867 258.999C147.807 259.382 147.659 259.714 147.423 260.001 147.188 260.287 146.878 260.508 146.494 260.67 146.101 260.813 145.648 260.896 145.139 260.896Z" fill="#FFFFFF" fill-rule="nonzero" fill-opacity="1" transform="matrix(1 0 0 1.00036 153 253)"/><path d="M152.906 260.896C152.199 260.896 151.561 260.73 150.997 260.393 150.433 260.056 149.966 259.599 149.6 259.013 149.235 258.426 148.995 257.757 148.875 257 148.755 256.233 148.796 255.554 148.986 254.963 149.18 254.372 149.504 253.915 149.966 253.583 150.424 253.25 150.997 253.084 151.681 253.084 152.213 253.084 152.708 253.181 153.165 253.38 153.623 253.578 154.016 253.85 154.34 254.206 154.668 254.562 154.899 254.972 155.038 255.443L153.878 255.443C153.734 255.097 153.494 254.792 153.147 254.524 152.8 254.257 152.375 254.123 151.861 254.123 151.408 254.123 151.029 254.239 150.724 254.474 150.419 254.709 150.206 255.037 150.082 255.462 149.957 255.887 149.943 256.385 150.031 256.953 150.118 257.535 150.29 258.047 150.544 258.477 150.794 258.911 151.113 259.248 151.487 259.483 151.861 259.723 152.282 259.844 152.74 259.844 153.04 259.844 153.309 259.793 153.54 259.687 153.771 259.58 153.956 259.433 154.095 259.234 154.234 259.036 154.321 258.8 154.349 258.528L155.509 258.528C155.514 258.975 155.413 259.373 155.209 259.728 155.005 260.084 154.71 260.366 154.321 260.573 153.942 260.79 153.466 260.896 152.906 260.896Z" fill="#FFFFFF" fill-rule="nonzero" fill-opacity="1" transform="matrix(1 0 0 1.00036 153 253)"/><path d="M156.578 251.92C156.351 251.92 156.143 251.842 155.958 251.69 155.773 251.537 155.662 251.348 155.63 251.136 155.597 250.923 155.648 250.734 155.787 250.581 155.926 250.429 156.11 250.351 156.337 250.351 156.564 250.351 156.771 250.429 156.957 250.581 157.141 250.734 157.253 250.918 157.285 251.136 157.317 251.353 157.266 251.537 157.128 251.69 156.989 251.846 156.804 251.92 156.578 251.92ZM157.345 260.735 156.18 253.181 157.34 253.181 158.505 260.735 157.345 260.735Z" fill="#FFFFFF" fill-rule="nonzero" fill-opacity="1" transform="matrix(1 0 0 1.00036 153 253)"/><path d="M162.635 253.181 162.787 254.165 158.709 254.165 158.557 253.181 162.635 253.181ZM160.942 260.735 159.615 252.138C159.551 251.704 159.597 251.343 159.754 251.057 159.911 250.771 160.143 250.554 160.448 250.406 160.753 250.263 161.081 250.189 161.446 250.189 161.733 250.189 161.969 250.212 162.158 250.258 162.348 250.305 162.487 250.346 162.584 250.388L162.403 251.39C162.343 251.371 162.255 251.348 162.149 251.316 162.043 251.283 161.904 251.269 161.738 251.269 161.354 251.269 161.09 251.367 160.952 251.56 160.813 251.754 160.771 252.036 160.831 252.41L162.112 260.735 160.942 260.735Z" fill="#FFFFFF" fill-rule="nonzero" fill-opacity="1" transform="matrix(1 0 0 1.00036 153 253)"/><path d="M164.456 251.92C164.23 251.92 164.022 251.842 163.836 251.69 163.652 251.537 163.541 251.348 163.508 251.136 163.476 250.918 163.527 250.734 163.666 250.581 163.804 250.429 163.989 250.351 164.215 250.351 164.442 250.351 164.65 250.429 164.835 250.581 165.02 250.734 165.131 250.918 165.163 251.136 165.196 251.353 165.145 251.537 165.006 251.69 164.867 251.846 164.683 251.92 164.456 251.92ZM165.223 260.735 164.058 253.181 165.223 253.181 166.389 260.735 165.223 260.735Z" fill="#FFFFFF" fill-rule="nonzero" fill-opacity="1" transform="matrix(1 0 0 1.00036 153 253)"/><path d="M171.405 260.896C170.698 260.896 170.06 260.73 169.496 260.393 168.932 260.056 168.464 259.599 168.099 259.013 167.734 258.426 167.494 257.757 167.373 257 167.253 256.233 167.295 255.554 167.484 254.963 167.679 254.372 168.002 253.915 168.464 253.583 168.922 253.25 169.496 253.084 170.18 253.084 170.712 253.084 171.206 253.181 171.664 253.38 172.122 253.578 172.515 253.85 172.838 254.206 173.167 254.562 173.398 254.972 173.537 255.443L172.376 255.443C172.233 255.097 171.992 254.792 171.646 254.524 171.299 254.257 170.873 254.123 170.36 254.123 169.907 254.123 169.528 254.239 169.223 254.474 168.918 254.709 168.705 255.037 168.58 255.462 168.455 255.887 168.441 256.385 168.529 256.953 168.617 257.535 168.788 258.047 169.042 258.477 169.292 258.911 169.611 259.248 169.986 259.483 170.36 259.723 170.781 259.844 171.238 259.844 171.539 259.844 171.807 259.793 172.038 259.687 172.27 259.58 172.455 259.433 172.593 259.234 172.732 259.036 172.82 258.8 172.847 258.528L174.008 258.528C174.013 258.975 173.911 259.373 173.708 259.728 173.504 260.084 173.208 260.366 172.82 260.573 172.436 260.79 171.96 260.896 171.405 260.896Z" fill="#FFFFFF" fill-rule="nonzero" fill-opacity="1" transform="matrix(1 0 0 1.00036 153 253)"/><path d="M180.107 260.735 178.826 260.735 180.976 250.66 182.238 250.66 187.495 260.735 186.214 260.735 181.891 252.253 181.813 252.253 180.107 260.735ZM179.973 256.801 185.137 256.801 185.304 257.881 180.139 257.881 179.973 256.801Z" fill="#FFFFFF" fill-rule="nonzero" fill-opacity="1" transform="matrix(1 0 0 1.00036 153 253)"/><path d="M188.864 260.735 187.31 250.66 190.718 250.66C191.508 250.66 192.179 250.803 192.724 251.085 193.27 251.371 193.705 251.75 194.023 252.235 194.343 252.715 194.546 253.255 194.638 253.846 194.731 254.441 194.694 254.977 194.527 255.462 194.361 255.947 194.047 256.335 193.589 256.621 193.131 256.907 192.512 257.05 191.726 257.05L189.284 257.05 189.118 255.97 191.522 255.97C192.063 255.97 192.484 255.877 192.784 255.688 193.085 255.504 193.284 255.25 193.385 254.926 193.487 254.603 193.506 254.243 193.441 253.841 193.381 253.439 193.247 253.079 193.048 252.761 192.849 252.442 192.571 252.193 192.211 252.013 191.85 251.833 191.397 251.74 190.847 251.74L188.697 251.74 190.084 260.73 188.864 260.73 188.864 260.735Z" fill="#FFFFFF" fill-rule="nonzero" fill-opacity="1" transform="matrix(1 0 0 1.00036 153 253)"/><path d="M197.13 250.664 198.684 260.739 197.463 260.739 195.91 250.664 197.13 250.664Z" fill="#FFFFFF" fill-rule="nonzero" fill-opacity="1" transform="matrix(1 0 0 1.00036 153 253)"/><path d="M205.212 254.875 204.214 255.171C204.121 254.996 204.001 254.829 203.848 254.663 203.696 254.497 203.502 254.363 203.271 254.252 203.039 254.142 202.753 254.091 202.415 254.091 201.953 254.091 201.583 254.197 201.31 254.409 201.037 254.621 200.922 254.889 200.972 255.212 201.019 255.499 201.158 255.73 201.393 255.896 201.629 256.062 201.98 256.201 202.443 256.316L203.608 256.593C204.311 256.755 204.851 257.009 205.235 257.341 205.619 257.674 205.85 258.108 205.934 258.638 205.998 259.072 205.938 259.46 205.739 259.797 205.541 260.135 205.24 260.407 204.829 260.606 204.417 260.804 203.913 260.901 203.326 260.901 202.554 260.901 201.888 260.735 201.333 260.398 200.778 260.061 200.381 259.576 200.145 258.934L201.204 258.657C201.37 259.063 201.62 259.368 201.943 259.571 202.267 259.775 202.669 259.876 203.146 259.876 203.686 259.876 204.103 259.761 204.385 259.53 204.667 259.299 204.787 259.022 204.736 258.694 204.694 258.431 204.57 258.214 204.357 258.034 204.144 257.854 203.844 257.72 203.446 257.632L202.138 257.337C201.421 257.171 200.871 256.916 200.496 256.57 200.122 256.224 199.89 255.79 199.812 255.268 199.747 254.843 199.807 254.465 200.002 254.137 200.191 253.809 200.482 253.55 200.871 253.366 201.259 253.181 201.721 253.084 202.253 253.084 203.002 253.084 203.617 253.25 204.094 253.578 204.57 253.906 204.949 254.335 205.212 254.875Z" fill="#FFFFFF" fill-rule="nonzero" fill-opacity="1" transform="matrix(1 0 0 1.00036 153 253)"/><path d="M281.99 248.185 280.709 248.185 282.859 238.11 284.121 238.11 289.378 248.185 288.097 248.185 283.774 239.703 283.696 239.703 281.99 248.185ZM281.856 244.247 287.02 244.247 287.187 245.327 282.022 245.327 281.856 244.247Z" fill="#FFFFFF" fill-rule="nonzero" fill-opacity="1" transform="matrix(1 0 0 1.00036 153 253)"/><path d="M291.047 243.637 291.745 248.181 290.585 248.181 289.42 240.627 290.543 240.627 290.724 241.809 290.821 241.809C290.941 241.425 291.163 241.116 291.487 240.881 291.81 240.645 292.259 240.53 292.832 240.53 293.345 240.53 293.808 240.636 294.223 240.844 294.64 241.052 294.987 241.366 295.264 241.791 295.541 242.211 295.731 242.746 295.832 243.388L296.572 248.19 295.412 248.19 294.686 243.466C294.593 242.871 294.367 242.409 294.011 242.077 293.65 241.744 293.202 241.578 292.661 241.578 292.291 241.578 291.972 241.657 291.704 241.818 291.435 241.98 291.246 242.215 291.126 242.52 291.005 242.825 290.983 243.199 291.047 243.637Z" fill="#FFFFFF" fill-rule="nonzero" fill-opacity="1" transform="matrix(1 0 0 1.00036 153 253)"/><path d="M301.376 248.342C300.747 248.342 300.165 248.181 299.633 247.862 299.101 247.543 298.653 247.091 298.292 246.505 297.927 245.918 297.687 245.225 297.562 244.427 297.441 243.633 297.469 242.944 297.654 242.363 297.835 241.781 298.149 241.329 298.584 241.01 299.023 240.691 299.559 240.534 300.197 240.534 300.687 240.534 301.089 240.618 301.404 240.779 301.718 240.941 301.963 241.126 302.148 241.329 302.333 241.532 302.476 241.703 302.583 241.832L302.68 241.832 302.107 238.115 303.267 238.115 304.82 248.19 303.697 248.19 303.517 247.031 303.378 247.031C303.313 247.169 303.221 247.34 303.091 247.548 302.967 247.756 302.768 247.941 302.504 248.107 302.241 248.273 301.862 248.342 301.376 248.342ZM301.371 247.299C301.838 247.299 302.213 247.179 302.495 246.934 302.777 246.689 302.971 246.352 303.073 245.914 303.175 245.479 303.179 244.976 303.091 244.404 303.003 243.84 302.846 243.346 302.615 242.922 302.384 242.497 302.093 242.164 301.732 241.929 301.376 241.689 300.96 241.573 300.484 241.573 299.989 241.573 299.601 241.698 299.314 241.952 299.027 242.201 298.833 242.543 298.736 242.972 298.639 243.402 298.63 243.882 298.713 244.413 298.796 244.953 298.953 245.438 299.189 245.876 299.42 246.315 299.721 246.662 300.091 246.92 300.461 247.169 300.886 247.299 301.371 247.299Z" fill="#FFFFFF" fill-rule="nonzero" fill-opacity="1" transform="matrix(1 0 0 1.00036 153 253)"/><path d="M306.897 248.185 305.732 240.631 306.855 240.631 307.031 241.772 307.11 241.772C307.188 241.398 307.392 241.093 307.72 240.862 308.043 240.631 308.432 240.511 308.889 240.511 308.973 240.511 309.084 240.511 309.208 240.516 309.338 240.52 309.435 240.525 309.5 240.53L309.68 241.712C309.638 241.702 309.546 241.689 309.403 241.666 309.259 241.643 309.111 241.633 308.959 241.633 308.594 241.633 308.275 241.707 308.011 241.859 307.747 242.012 307.553 242.224 307.428 242.488 307.304 242.751 307.267 243.06 307.322 243.402L308.057 248.181 306.897 248.181 306.897 248.185Z" fill="#FFFFFF" fill-rule="nonzero" fill-opacity="1" transform="matrix(1 0 0 1.00036 153 253)"/><path d="M314.951 248.342C314.267 248.342 313.642 248.181 313.083 247.857 312.524 247.534 312.047 247.077 311.673 246.495 311.298 245.913 311.049 245.23 310.928 244.45 310.808 243.66 310.845 242.977 311.044 242.391 311.243 241.804 311.571 241.347 312.033 241.024 312.496 240.7 313.069 240.539 313.753 240.539 314.438 240.539 315.062 240.7 315.626 241.024 316.19 241.347 316.661 241.804 317.041 242.391 317.42 242.977 317.669 243.665 317.79 244.45 317.91 245.23 317.873 245.913 317.674 246.495 317.475 247.077 317.147 247.534 316.68 247.857 316.204 248.181 315.63 248.342 314.951 248.342ZM314.789 247.299C315.307 247.299 315.714 247.165 316.01 246.901 316.306 246.638 316.5 246.287 316.592 245.854 316.685 245.42 316.694 244.953 316.616 244.445 316.537 243.942 316.384 243.471 316.158 243.032 315.931 242.598 315.626 242.243 315.251 241.975 314.877 241.707 314.429 241.573 313.911 241.573 313.393 241.573 312.986 241.707 312.695 241.975 312.403 242.243 312.209 242.598 312.112 243.032 312.02 243.471 312.01 243.937 312.089 244.445 312.168 244.948 312.32 245.42 312.547 245.854 312.773 246.287 313.078 246.634 313.453 246.901 313.823 247.165 314.271 247.299 314.789 247.299Z" fill="#FFFFFF" fill-rule="nonzero" fill-opacity="1" transform="matrix(1 0 0 1.00036 153 253)"/><path d="M319.149 239.366C318.922 239.366 318.714 239.288 318.529 239.136 318.344 238.983 318.233 238.798 318.201 238.581 318.168 238.365 318.219 238.18 318.358 238.027 318.497 237.875 318.682 237.797 318.908 237.797 319.135 237.797 319.343 237.875 319.528 238.027 319.713 238.18 319.824 238.369 319.856 238.581 319.888 238.794 319.837 238.983 319.699 239.136 319.56 239.293 319.375 239.366 319.149 239.366ZM319.916 248.185 318.751 240.632 319.911 240.632 321.076 248.185 319.916 248.185Z" fill="#FFFFFF" fill-rule="nonzero" fill-opacity="1" transform="matrix(1 0 0 1.00036 153 253)"/><path d="M325.88 248.342C325.252 248.342 324.669 248.181 324.137 247.862 323.606 247.543 323.157 247.091 322.797 246.505 322.431 245.918 322.191 245.225 322.066 244.427 321.941 243.633 321.974 242.944 322.158 242.363 322.339 241.781 322.649 241.329 323.088 241.01 323.523 240.691 324.063 240.534 324.697 240.534 325.192 240.534 325.594 240.618 325.904 240.779 326.214 240.941 326.463 241.126 326.648 241.329 326.833 241.532 326.976 241.703 327.083 241.832L327.18 241.832 326.606 238.115 327.767 238.115 329.32 248.19 328.197 248.19 328.016 247.031 327.878 247.031C327.813 247.169 327.72 247.34 327.591 247.548 327.467 247.756 327.268 247.941 327.004 248.107 326.741 248.273 326.366 248.342 325.88 248.342ZM325.876 247.299C326.343 247.299 326.717 247.179 326.999 246.934 327.281 246.689 327.476 246.352 327.577 245.914 327.679 245.479 327.684 244.976 327.596 244.404 327.508 243.84 327.351 243.346 327.12 242.922 326.889 242.497 326.597 242.164 326.237 241.929 325.876 241.689 325.464 241.573 324.988 241.573 324.498 241.573 324.105 241.698 323.819 241.952 323.532 242.201 323.337 242.543 323.241 242.972 323.144 243.402 323.139 243.882 323.218 244.413 323.301 244.953 323.458 245.438 323.694 245.876 323.925 246.315 324.225 246.662 324.595 246.92 324.965 247.169 325.39 247.299 325.876 247.299Z" fill="#FFFFFF" fill-rule="nonzero" fill-opacity="1" transform="matrix(1 0 0 1.00036 153 253)"/><path d="M287.806 254.875 286.808 255.171C286.715 254.996 286.595 254.829 286.442 254.663 286.29 254.497 286.095 254.363 285.864 254.252 285.633 254.142 285.347 254.091 285.009 254.091 284.547 254.091 284.177 254.197 283.904 254.409 283.631 254.621 283.516 254.889 283.567 255.212 283.613 255.499 283.751 255.73 283.987 255.896 284.223 256.062 284.574 256.201 285.037 256.316L286.202 256.593C286.904 256.755 287.446 257.009 287.829 257.341 288.213 257.678 288.444 258.108 288.528 258.638 288.592 259.072 288.528 259.46 288.333 259.797 288.139 260.135 287.834 260.407 287.422 260.606 287.011 260.804 286.507 260.901 285.92 260.901 285.148 260.901 284.482 260.735 283.927 260.398 283.372 260.061 282.975 259.576 282.739 258.934L283.798 258.657C283.964 259.063 284.214 259.368 284.538 259.571 284.861 259.775 285.263 259.876 285.739 259.876 286.281 259.876 286.697 259.761 286.978 259.53 287.261 259.299 287.381 259.022 287.33 258.694 287.288 258.431 287.164 258.214 286.951 258.034 286.738 257.854 286.438 257.72 286.04 257.632L284.732 257.337C284.015 257.171 283.465 256.916 283.09 256.57 282.716 256.224 282.485 255.79 282.406 255.268 282.341 254.843 282.402 254.465 282.595 254.137 282.785 253.809 283.076 253.55 283.465 253.366 283.853 253.181 284.316 253.084 284.847 253.084 285.596 253.084 286.211 253.25 286.687 253.578 287.173 253.901 287.543 254.335 287.806 254.875Z" fill="#FFFFFF" fill-rule="nonzero" fill-opacity="1" transform="matrix(1 0 0 1.00036 153 253)"/><path d="M290.83 263.57 289.23 253.181 290.354 253.181 290.539 254.381 290.678 254.381C290.742 254.252 290.835 254.081 290.955 253.878 291.075 253.675 291.269 253.49 291.528 253.329 291.792 253.167 292.166 253.084 292.661 253.084 293.299 253.084 293.886 253.241 294.418 253.56 294.954 253.878 295.403 254.331 295.763 254.913 296.124 255.494 296.369 256.187 296.489 256.976 296.614 257.775 296.582 258.468 296.401 259.054 296.221 259.64 295.911 260.093 295.477 260.411 295.042 260.73 294.51 260.892 293.882 260.892 293.396 260.892 292.994 260.809 292.675 260.647 292.356 260.485 292.106 260.301 291.917 260.093 291.727 259.885 291.579 259.71 291.473 259.576L291.375 259.576 291.991 263.57 290.83 263.57ZM290.955 256.958C291.043 257.53 291.204 258.029 291.44 258.468 291.676 258.906 291.972 259.243 292.333 259.488 292.693 259.733 293.105 259.853 293.572 259.853 294.057 259.853 294.445 259.723 294.732 259.465 295.019 259.207 295.213 258.86 295.31 258.422 295.407 257.983 295.417 257.498 295.333 256.958 295.25 256.427 295.097 255.947 294.866 255.517 294.64 255.088 294.339 254.751 293.974 254.497 293.609 254.248 293.179 254.118 292.688 254.118 292.217 254.118 291.838 254.239 291.551 254.474 291.265 254.709 291.075 255.042 290.973 255.466 290.872 255.901 290.867 256.395 290.955 256.958Z" fill="#FFFFFF" fill-rule="nonzero" fill-opacity="1" transform="matrix(1 0 0 1.00036 153 253)"/><path d="M301.834 260.896C301.103 260.896 300.451 260.735 299.873 260.411 299.296 260.088 298.819 259.636 298.449 259.054 298.075 258.472 297.83 257.793 297.71 257.018 297.589 256.242 297.627 255.559 297.82 254.968 298.015 254.377 298.338 253.915 298.801 253.583 299.258 253.25 299.832 253.084 300.516 253.084 300.909 253.084 301.311 253.149 301.714 253.282 302.12 253.416 302.499 253.624 302.86 253.92 303.221 254.215 303.531 254.603 303.794 255.083 304.058 255.564 304.242 256.159 304.349 256.866L304.423 257.36 298.593 257.36 298.44 256.358 303.091 256.358C303.027 255.933 302.883 255.549 302.661 255.217 302.439 254.88 302.162 254.617 301.82 254.423 301.478 254.229 301.099 254.132 300.678 254.132 300.215 254.132 299.832 254.248 299.531 254.474 299.231 254.7 299.018 254.996 298.893 255.36 298.768 255.725 298.741 256.113 298.801 256.533L298.902 257.203C298.99 257.775 299.166 258.255 299.425 258.652 299.684 259.049 300.007 259.35 300.391 259.553 300.78 259.756 301.205 259.862 301.677 259.862 301.982 259.862 302.25 259.82 302.486 259.733 302.721 259.645 302.916 259.516 303.068 259.34 303.221 259.165 303.327 258.948 303.387 258.685L304.557 258.999C304.497 259.382 304.349 259.714 304.113 260.001 303.877 260.287 303.568 260.508 303.184 260.67 302.795 260.813 302.347 260.896 301.834 260.896Z" fill="#FFFFFF" fill-rule="nonzero" fill-opacity="1" transform="matrix(1 0 0 1.00036 153 253)"/><path d="M309.606 260.896C308.899 260.896 308.261 260.73 307.697 260.393 307.133 260.061 306.67 259.599 306.3 259.013 305.935 258.426 305.694 257.757 305.575 257 305.454 256.233 305.496 255.554 305.685 254.963 305.88 254.372 306.203 253.915 306.666 253.583 307.123 253.25 307.697 253.084 308.381 253.084 308.912 253.084 309.407 253.181 309.865 253.38 310.323 253.578 310.716 253.85 311.039 254.206 311.368 254.562 311.599 254.972 311.738 255.443L310.577 255.443C310.434 255.097 310.193 254.792 309.846 254.524 309.5 254.257 309.074 254.123 308.561 254.123 308.108 254.123 307.729 254.239 307.424 254.474 307.119 254.709 306.906 255.037 306.781 255.462 306.656 255.887 306.642 256.385 306.726 256.953 306.818 257.535 306.989 258.047 307.239 258.477 307.489 258.911 307.803 259.248 308.182 259.483 308.557 259.723 308.977 259.844 309.435 259.844 309.736 259.844 310.004 259.793 310.235 259.687 310.466 259.58 310.651 259.433 310.79 259.234 310.928 259.036 311.016 258.8 311.044 258.528L312.204 258.528C312.209 258.975 312.107 259.373 311.904 259.728 311.701 260.084 311.405 260.366 311.016 260.573 310.637 260.79 310.166 260.896 309.606 260.896Z" fill="#FFFFFF" fill-rule="nonzero" fill-opacity="1" transform="matrix(1 0 0 1.00036 153 253)"/><path d="M313.277 251.92C313.051 251.92 312.842 251.842 312.658 251.69 312.473 251.537 312.362 251.348 312.329 251.136 312.297 250.918 312.348 250.734 312.486 250.581 312.625 250.429 312.81 250.351 313.037 250.351 313.263 250.351 313.471 250.429 313.656 250.581 313.841 250.734 313.952 250.918 313.985 251.136 314.017 251.353 313.966 251.537 313.827 251.69 313.684 251.846 313.504 251.92 313.277 251.92ZM314.045 260.735 312.88 253.181 314.04 253.181 315.205 260.735 314.045 260.735Z" fill="#FFFFFF" fill-rule="nonzero" fill-opacity="1" transform="matrix(1 0 0 1.00036 153 253)"/><path d="M319.329 253.181 319.482 254.165 315.404 254.165 315.251 253.181 319.329 253.181ZM317.637 260.735 316.31 252.138C316.245 251.704 316.291 251.343 316.449 251.057 316.606 250.771 316.837 250.554 317.142 250.406 317.447 250.258 317.775 250.189 318.136 250.189 318.423 250.189 318.658 250.212 318.848 250.258 319.038 250.305 319.176 250.346 319.274 250.388L319.093 251.39C319.033 251.371 318.945 251.348 318.839 251.316 318.732 251.283 318.594 251.269 318.427 251.269 318.044 251.269 317.78 251.367 317.641 251.56 317.503 251.754 317.461 252.036 317.521 252.41L318.802 260.735 317.637 260.735Z" fill="#FFFFFF" fill-rule="nonzero" fill-opacity="1" transform="matrix(1 0 0 1.00036 153 253)"/><path d="M321.155 251.92C320.929 251.92 320.721 251.842 320.536 251.69 320.351 251.537 320.24 251.348 320.207 251.136 320.175 250.923 320.226 250.734 320.365 250.581 320.503 250.429 320.688 250.351 320.915 250.351 321.141 250.351 321.349 250.429 321.535 250.581 321.719 250.734 321.831 250.918 321.863 251.136 321.895 251.353 321.844 251.537 321.706 251.69 321.562 251.846 321.382 251.92 321.155 251.92ZM321.918 260.735 320.753 253.181 321.914 253.181 323.079 260.735 321.918 260.735Z" fill="#FFFFFF" fill-rule="nonzero" fill-opacity="1" transform="matrix(1 0 0 1.00036 153 253)"/><path d="M328.1 260.896C327.393 260.896 326.755 260.73 326.191 260.393 325.627 260.061 325.16 259.599 324.794 259.013 324.429 258.426 324.189 257.757 324.069 257 323.948 256.233 323.99 255.554 324.179 254.963 324.374 254.372 324.697 253.915 325.16 253.583 325.617 253.25 326.191 253.084 326.875 253.084 327.406 253.084 327.901 253.181 328.359 253.38 328.817 253.578 329.21 253.85 329.533 254.206 329.862 254.562 330.093 254.972 330.232 255.443L329.071 255.443C328.928 255.097 328.687 254.792 328.34 254.524 327.994 254.257 327.568 254.123 327.055 254.123 326.602 254.123 326.223 254.239 325.918 254.474 325.613 254.709 325.4 255.037 325.275 255.462 325.15 255.887 325.136 256.385 325.22 256.953 325.312 257.535 325.483 258.047 325.733 258.477 325.987 258.911 326.301 259.248 326.676 259.483 327.051 259.723 327.471 259.844 327.929 259.844 328.23 259.844 328.498 259.793 328.729 259.687 328.96 259.58 329.145 259.433 329.284 259.234 329.423 259.036 329.51 258.8 329.538 258.528L330.698 258.528C330.703 258.975 330.601 259.373 330.398 259.728 330.195 260.084 329.899 260.366 329.51 260.573 329.131 260.79 328.66 260.896 328.1 260.896Z" fill="#FFFFFF" fill-rule="nonzero" fill-opacity="1" transform="matrix(1 0 0 1.00036 153 253)"/><path d="M336.801 260.735 335.521 260.735 337.67 250.66 338.933 250.66 344.19 260.735 342.909 260.735 338.586 252.253 338.507 252.253 336.801 260.735ZM336.667 256.801 341.831 256.801 341.998 257.881 336.834 257.881 336.667 256.801Z" fill="#FFFFFF" fill-rule="nonzero" fill-opacity="1" transform="matrix(1 0 0 1.00036 153 253)"/><path d="M345.558 260.735 344.005 250.66 347.412 250.66C348.203 250.66 348.873 250.803 349.419 251.085 349.964 251.371 350.399 251.75 350.718 252.235 351.037 252.715 351.24 253.255 351.333 253.846 351.426 254.441 351.388 254.977 351.222 255.462 351.056 255.947 350.741 256.335 350.283 256.621 349.826 256.907 349.201 257.05 348.42 257.05L345.979 257.05 345.813 255.97 348.217 255.97C348.758 255.97 349.179 255.877 349.479 255.688 349.779 255.504 349.978 255.25 350.08 254.926 350.182 254.603 350.2 254.243 350.136 253.841 350.075 253.439 349.941 253.079 349.743 252.761 349.544 252.442 349.266 252.193 348.906 252.013 348.545 251.833 348.092 251.74 347.542 251.74L345.396 251.74 346.783 260.73 345.558 260.73 345.558 260.735Z" fill="#FFFFFF" fill-rule="nonzero" fill-opacity="1" transform="matrix(1 0 0 1.00036 153 253)"/><path d="M353.825 250.664 355.379 260.739 354.158 260.739 352.605 250.664 353.825 250.664Z" fill="#FFFFFF" fill-rule="nonzero" fill-opacity="1" transform="matrix(1 0 0 1.00036 153 253)"/><path d="M361.911 254.875 360.913 255.171C360.82 254.996 360.7 254.829 360.547 254.663 360.395 254.497 360.201 254.363 359.969 254.252 359.738 254.142 359.452 254.091 359.11 254.091 358.647 254.091 358.277 254.197 358.004 254.409 357.732 254.621 357.616 254.889 357.667 255.212 357.713 255.499 357.852 255.73 358.088 255.896 358.324 256.062 358.675 256.201 359.137 256.316L360.303 256.593C361.005 256.755 361.546 257.009 361.93 257.341 362.314 257.678 362.545 258.108 362.628 258.638 362.693 259.072 362.628 259.46 362.434 259.797 362.24 260.139 361.934 260.407 361.523 260.606 361.112 260.804 360.608 260.901 360.02 260.901 359.248 260.901 358.582 260.735 358.028 260.398 357.473 260.061 357.075 259.576 356.839 258.934L357.898 258.657C358.064 259.063 358.314 259.368 358.638 259.571 358.962 259.775 359.364 259.876 359.84 259.876 360.381 259.876 360.793 259.761 361.079 259.53 361.366 259.299 361.481 259.022 361.43 258.694 361.389 258.431 361.264 258.214 361.051 258.034 360.839 257.854 360.538 257.72 360.141 257.632L358.832 257.337C358.116 257.171 357.565 256.916 357.191 256.57 356.816 256.224 356.585 255.79 356.507 255.268 356.442 254.843 356.502 254.465 356.696 254.137 356.886 253.809 357.177 253.55 357.565 253.366 357.954 253.181 358.416 253.084 358.948 253.084 359.697 253.084 360.312 253.25 360.788 253.578 361.264 253.906 361.648 254.335 361.911 254.875Z" fill="#FFFFFF" fill-rule="nonzero" fill-opacity="1" transform="matrix(1 0 0 1.00036 153 253)"/></g></g></g></g></g></g></svg>